<svg width="125" height="13" viewBox="0 0 125 13" fill="none" xmlns="http://www.w3.org/2000/svg">
<path d="M3.48864 10.1364H5.27273V7.09659H8.3125V5.3125H5.27273V2.27273H3.48864V5.3125H0.448864V7.09659H3.48864V10.1364ZM14.6161 12.1591C17.1331 12.1591 18.9343 10.7727 18.9399 8.88068C18.9343 7.42614 17.8604 6.21023 16.5081 5.98295V5.90341C17.6843 5.64205 18.5024 4.58523 18.5081 3.32386C18.5024 1.53409 16.8547 0.204545 14.6161 0.204545C12.3604 0.204545 10.7127 1.52841 10.7184 3.32386C10.7127 4.58523 11.5195 5.64205 12.7184 5.90341V5.98295C11.3434 6.21023 10.2809 7.42614 10.2865 8.88068C10.2809 10.7727 12.0763 12.1591 14.6161 12.1591ZM14.6161 10.5341C13.2979 10.5341 12.4456 9.80682 12.457 8.73295C12.4456 7.61932 13.3604 6.82955 14.6161 6.82955C15.8547 6.82955 16.7638 7.625 16.7752 8.73295C16.7638 9.80682 15.9172 10.5341 14.6161 10.5341ZM14.6161 5.23295C13.5365 5.23295 12.7638 4.53409 12.7752 3.52273C12.7638 2.52273 13.5138 1.85227 14.6161 1.85227C15.7013 1.85227 16.4456 2.52273 16.457 3.52273C16.4456 4.53977 15.6786 5.23295 14.6161 5.23295ZM24.664 12.1591C27.1526 12.1591 28.9651 10.733 28.9594 8.76705C28.9651 7.3125 28.056 6.26705 26.4253 6.03409V5.94318C27.6867 5.67045 28.5333 4.73295 28.5276 3.42614C28.5333 1.65341 27.0219 0.204545 24.6981 0.204545C22.4367 0.204545 20.6867 1.55114 20.6413 3.5H22.6697C22.7038 2.52273 23.6128 1.91477 24.6867 1.91477C25.7719 1.91477 26.4935 2.57386 26.4878 3.55114C26.4935 4.56818 25.6526 5.24432 24.4481 5.24432H23.4197V6.86932H24.4481C25.9197 6.86932 26.7947 7.60795 26.789 8.65909C26.7947 9.6875 25.9026 10.392 24.6583 10.392C23.4878 10.392 22.5844 9.78409 22.5333 8.83523H20.3969C20.4538 10.8011 22.2094 12.1591 24.664 12.1591ZM34.8511 12.1591C37.3624 12.1761 39.0499 10.4489 39.0443 8.14773C39.0499 5.94886 37.4818 4.35795 35.442 4.35795C34.192 4.35795 33.0897 4.96591 32.5329 5.96591H32.4534C32.459 3.51705 33.3568 2.02841 34.9704 2.02841C35.9704 2.02841 36.6465 2.60795 36.8624 3.5H38.9363C38.6863 1.61932 37.1693 0.204545 34.9704 0.204545C32.1749 0.204545 30.4079 2.53409 30.4079 6.51136C30.4022 10.7784 32.6181 12.1477 34.8511 12.1591ZM34.8397 10.4545C33.5954 10.4545 32.6863 9.42614 32.6806 8.21023C32.692 6.98864 33.6352 5.96591 34.8681 5.96591C36.1011 5.96591 37.0045 6.94318 36.9988 8.19318C37.0045 9.46591 36.0727 10.4545 34.8397 10.4545ZM40.6674 12H42.7243V9.06818L43.4743 8.26705L46.1447 12H48.6049L45.0254 7.03977L48.4061 3.27273H46.0027L42.8663 6.77841H42.7243V0.363636H40.6674V12Z" fill="#217BF4"/>
<path d="M54.1784 0.363636V12H55.8489V3.57386H55.9568L59.3886 11.983H60.775L64.2068 3.57955H64.3148V12H65.9852V0.363636H63.8545L60.15 9.40909H60.0136L56.3091 0.363636H54.1784ZM72.1628 12.1761C74.0662 12.1761 75.4128 11.2386 75.7991 9.81818L74.1912 9.52841C73.8844 10.3523 73.1457 10.7727 72.1798 10.7727C70.7253 10.7727 69.748 9.82955 69.7026 8.14773H75.9071V7.54545C75.9071 4.39205 74.0207 3.15909 72.0435 3.15909C69.6116 3.15909 68.0094 5.01136 68.0094 7.69318C68.0094 10.4034 69.5889 12.1761 72.1628 12.1761ZM69.7082 6.875C69.7764 5.63636 70.6741 4.5625 72.0548 4.5625C73.373 4.5625 74.2366 5.53977 74.2423 6.875H69.7082ZM77.792 12H79.4909V6.61932C79.4909 5.44318 80.3148 4.625 81.2807 4.625C82.2239 4.625 82.8773 5.25 82.8773 6.19886V12H84.5705V6.4375C84.5705 5.38636 85.2125 4.625 86.3205 4.625C87.2182 4.625 87.9568 5.125 87.9568 6.30682V12H89.6557V6.14773C89.6557 4.15341 88.542 3.15909 86.9625 3.15909C85.7068 3.15909 84.7636 3.76136 84.3432 4.69318H84.2523C83.8716 3.73864 83.0705 3.15909 81.9057 3.15909C80.7523 3.15909 79.8943 3.73295 79.5307 4.69318H79.4227V3.27273H77.792V12ZM92.069 12H93.7281V10.642H93.8702C94.177 11.1989 94.802 12.1705 96.3929 12.1705C98.5065 12.1705 100.041 10.4773 100.041 7.65341C100.041 4.82386 98.4838 3.15909 96.3759 3.15909C94.7565 3.15909 94.1713 4.14773 93.8702 4.6875H93.7679V0.363636H92.069V12ZM93.7338 7.63636C93.7338 5.8125 94.5293 4.60227 96.0122 4.60227C97.552 4.60227 98.3247 5.90341 98.3247 7.63636C98.3247 9.38636 97.5293 10.7216 96.0122 10.7216C94.552 10.7216 93.7338 9.47159 93.7338 7.63636ZM105.71 12.1761C107.613 12.1761 108.96 11.2386 109.346 9.81818L107.738 9.52841C107.431 10.3523 106.693 10.7727 105.727 10.7727C104.272 10.7727 103.295 9.82955 103.249 8.14773H109.454V7.54545C109.454 4.39205 107.568 3.15909 105.59 3.15909C103.159 3.15909 101.556 5.01136 101.556 7.69318C101.556 10.4034 103.136 12.1761 105.71 12.1761ZM103.255 6.875C103.323 5.63636 104.221 4.5625 105.602 4.5625C106.92 4.5625 107.784 5.53977 107.789 6.875H103.255ZM111.339 12H113.038V6.67045C113.038 5.52841 113.918 4.70455 115.123 4.70455C115.475 4.70455 115.873 4.76705 116.009 4.80682V3.18182C115.839 3.15909 115.504 3.14205 115.288 3.14205C114.265 3.14205 113.39 3.72159 113.072 4.65909H112.981V3.27273H111.339V12ZM124.019 5.40341C123.667 4.04545 122.605 3.15909 120.718 3.15909C118.747 3.15909 117.349 4.19886 117.349 5.74432C117.349 6.98295 118.099 7.80682 119.735 8.17045L121.213 8.49432C122.053 8.68182 122.445 9.05682 122.445 9.60227C122.445 10.2784 121.724 10.8068 120.61 10.8068C119.593 10.8068 118.94 10.3693 118.735 9.51136L117.093 9.76136C117.377 11.3068 118.661 12.1761 120.622 12.1761C122.73 12.1761 124.19 11.0568 124.19 9.47727C124.19 8.24432 123.406 7.48295 121.803 7.11364L120.417 6.79545C119.457 6.56818 119.042 6.24432 119.048 5.65341C119.042 4.98295 119.769 4.50568 120.735 4.50568C121.792 4.50568 122.281 5.09091 122.48 5.67614L124.019 5.40341Z" fill="#5D5B70"/>
</svg>
