<svg width="174" height="14" viewBox="0 0 174 14" fill="none" xmlns="http://www.w3.org/2000/svg">
<path d="M0.409091 13H4.61364C7.36364 13 8.5 11.6591 8.5 9.90909C8.5 8.06818 7.22727 7.06818 6.15909 7V6.88636C7.15909 6.61364 8.04545 5.95455 8.04545 4.45455C8.04545 2.75 6.90909 1.36364 4.47727 1.36364H0.409091V13ZM1.81818 11.75V7.70455H4.68182C6.20455 7.70455 7.15909 8.72727 7.15909 9.90909C7.15909 10.9318 6.45455 11.75 4.61364 11.75H1.81818ZM1.81818 6.47727V2.61364H4.47727C6.02273 2.61364 6.70455 3.43182 6.70455 4.45455C6.70455 5.68182 5.70455 6.47727 4.43182 6.47727H1.81818ZM14.2926 13.1818C16.0653 13.1818 17.3608 12.2955 17.7699 10.9773L16.4744 10.6136C16.1335 11.5227 15.3438 11.9773 14.2926 11.9773C12.7188 11.9773 11.6335 10.9602 11.571 9.09091H17.9062V8.52273C17.9062 5.27273 15.9744 4.15909 14.1562 4.15909C11.7926 4.15909 10.2244 6.02273 10.2244 8.70455C10.2244 11.3864 11.7699 13.1818 14.2926 13.1818ZM11.571 7.93182C11.6619 6.57386 12.6222 5.36364 14.1562 5.36364C15.6108 5.36364 16.5426 6.45455 16.5426 7.93182H11.571ZM26.1278 6.22727C25.7074 4.98864 24.7642 4.15909 23.0369 4.15909C21.196 4.15909 19.8324 5.20455 19.8324 6.68182C19.8324 7.88636 20.5483 8.69318 22.1506 9.06818L23.6051 9.40909C24.4858 9.61364 24.9006 10.0341 24.9006 10.6364C24.9006 11.3864 24.1051 12 22.8551 12C21.7585 12 21.071 11.5284 20.8324 10.5909L19.5597 10.9091C19.8722 12.392 21.0938 13.1818 22.8778 13.1818C24.9062 13.1818 26.2869 12.0739 26.2869 10.5682C26.2869 9.35227 25.5256 8.58523 23.9688 8.20455L22.6733 7.88636C21.6392 7.63068 21.1733 7.28409 21.1733 6.61364C21.1733 5.86364 21.9688 5.31818 23.0369 5.31818C24.2074 5.31818 24.6903 5.96591 24.9233 6.56818L26.1278 6.22727ZM32.1009 4.27273H30.2372V2.18182H28.8963V4.27273H27.5781V5.40909H28.8963V10.8636C28.8963 12.3864 30.1236 13.1136 31.2599 13.1136C31.7599 13.1136 32.0781 13.0227 32.2599 12.9545L31.9872 11.75C31.8736 11.7727 31.6918 11.8182 31.3963 11.8182C30.8054 11.8182 30.2372 11.6364 30.2372 10.5V5.40909H32.1009V4.27273ZM42.1634 13.1818C44.527 13.1818 46.1179 11.3864 46.1179 8.68182C46.1179 5.95455 44.527 4.15909 42.1634 4.15909C39.7997 4.15909 38.2088 5.95455 38.2088 8.68182C38.2088 11.3864 39.7997 13.1818 42.1634 13.1818ZM42.1634 11.9773C40.3679 11.9773 39.5497 10.4318 39.5497 8.68182C39.5497 6.93182 40.3679 5.36364 42.1634 5.36364C43.9588 5.36364 44.777 6.93182 44.777 8.68182C44.777 10.4318 43.9588 11.9773 42.1634 11.9773ZM52.0511 4.27273H50.0966V3.38636C50.0966 2.52273 50.4602 2.06818 51.3466 2.06818C51.733 2.06818 51.9602 2.15909 52.0966 2.20455L52.483 1.04545C52.2784 0.954545 51.8693 0.818181 51.2102 0.818181C49.9602 0.818181 48.7557 1.56818 48.7557 3.06818V4.27273H47.3466V5.40909H48.7557V13H50.0966V5.40909H52.0511V4.27273ZM104.71 13.1818C107.074 13.1818 108.665 11.3864 108.665 8.68182C108.665 5.95455 107.074 4.15909 104.71 4.15909C102.347 4.15909 100.756 5.95455 100.756 8.68182C100.756 11.3864 102.347 13.1818 104.71 13.1818ZM104.71 11.9773C102.915 11.9773 102.097 10.4318 102.097 8.68182C102.097 6.93182 102.915 5.36364 104.71 5.36364C106.506 5.36364 107.324 6.93182 107.324 8.68182C107.324 10.4318 106.506 11.9773 104.71 11.9773ZM112.053 7.75C112.053 6.22727 112.996 5.36364 114.28 5.36364C115.524 5.36364 116.28 6.17614 116.28 7.54545V13H117.621V7.45455C117.621 5.22727 116.433 4.15909 114.666 4.15909C113.348 4.15909 112.53 4.75 112.121 5.63636H112.007V4.27273H110.712V13H112.053V7.75ZM132.707 5H134.162C133.73 2.75 131.844 1.20455 129.389 1.20455C126.406 1.20455 124.298 3.5 124.298 7.18182C124.298 10.8636 126.389 13.1591 129.48 13.1591C132.253 13.1591 134.23 11.3125 134.23 8.43182V7.18182H129.798V8.43182H132.866C132.827 10.5227 131.452 11.8409 129.48 11.8409C127.321 11.8409 125.662 10.2045 125.662 7.18182C125.662 4.15909 127.321 2.52273 129.389 2.52273C131.071 2.52273 132.213 3.47159 132.707 5ZM137.009 13H138.349V4.27273H137.009V13ZM137.69 2.81818C138.213 2.81818 138.645 2.40909 138.645 1.90909C138.645 1.40909 138.213 1 137.69 1C137.168 1 136.736 1.40909 136.736 1.90909C136.736 2.40909 137.168 2.81818 137.69 2.81818ZM144.601 4.27273H142.737V2.18182H141.396V4.27273H140.078V5.40909H141.396V10.8636C141.396 12.3864 142.624 13.1136 143.76 13.1136C144.26 13.1136 144.578 13.0227 144.76 12.9545L144.487 11.75C144.374 11.7727 144.192 11.8182 143.896 11.8182C143.305 11.8182 142.737 11.6364 142.737 10.5V5.40909H144.601V4.27273ZM148.146 7.75C148.146 6.22727 149.118 5.36364 150.442 5.36364C151.703 5.36364 152.464 6.15909 152.464 7.54545V13H153.805V7.45455C153.805 5.21023 152.612 4.15909 150.828 4.15909C149.453 4.15909 148.669 4.73295 148.26 5.63636H148.146V1.36364H146.805V13H148.146V7.75ZM161.759 9.43182C161.759 11.0682 160.509 11.8182 159.509 11.8182C158.395 11.8182 157.599 11 157.599 9.72727V4.27273H156.259V9.81818C156.259 12.0455 157.44 13.1136 159.077 13.1136C160.395 13.1136 161.259 12.4091 161.668 11.5227H161.759V13H163.099V4.27273H161.759V9.43182ZM165.737 13H167.033V11.6591H167.192C167.487 12.1364 168.055 13.1818 169.737 13.1818C171.919 13.1818 173.442 11.4318 173.442 8.65909C173.442 5.90909 171.919 4.15909 169.714 4.15909C168.01 4.15909 167.487 5.20455 167.192 5.65909H167.078V1.36364H165.737V13ZM167.055 8.63636C167.055 6.68182 167.919 5.36364 169.555 5.36364C171.26 5.36364 172.101 6.79545 172.101 8.63636C172.101 10.5 171.237 11.9773 169.555 11.9773C167.942 11.9773 167.055 10.6136 167.055 8.63636Z" fill="#5D5B70"/>
<path d="M58.2372 13H66.2145V11.2386H61.1463V11.1591L63.152 9.11932C65.4134 6.94886 66.0384 5.89205 66.0384 4.57955C66.0384 2.63068 64.4531 1.20455 62.1122 1.20455C59.8054 1.20455 58.169 2.63636 58.169 4.84659H60.1747C60.1747 3.65909 60.9247 2.91477 62.0838 2.91477C63.1918 2.91477 64.0156 3.59091 64.0156 4.6875C64.0156 5.65909 63.4247 6.35227 62.277 7.51705L58.2372 11.4773V13ZM72.4759 13.2216C75.2827 13.2273 76.9588 11.0114 76.9588 7.19318C76.9588 3.39773 75.2713 1.20455 72.4759 1.20455C69.6804 1.20455 67.9986 3.39205 67.9929 7.19318C67.9929 11.0057 69.669 13.2216 72.4759 13.2216ZM72.4759 11.4432C71.027 11.4432 70.1179 9.98864 70.1236 7.19318C70.1293 4.42045 71.0327 2.96023 72.4759 2.96023C73.9247 2.96023 74.8281 4.42045 74.8338 7.19318C74.8338 9.98864 73.9304 11.4432 72.4759 11.4432ZM78.8466 13H86.8239V11.2386H81.7557V11.1591L83.7614 9.11932C86.0227 6.94886 86.6477 5.89205 86.6477 4.57955C86.6477 2.63068 85.0625 1.20455 82.7216 1.20455C80.4148 1.20455 78.7784 2.63636 78.7784 4.84659H80.7841C80.7841 3.65909 81.5341 2.91477 82.6932 2.91477C83.8011 2.91477 84.625 3.59091 84.625 4.6875C84.625 5.65909 84.0341 6.35227 82.8864 7.51705L78.8466 11.4773V13ZM93.517 1.36364H91.5114L88.6193 3.22159V5.15341L91.3409 3.41477H91.4091V13H93.517V1.36364Z" fill="#217BF4"/>
</svg>
