<svg width="522" height="182" viewBox="0 0 522 182" fill="none" xmlns="http://www.w3.org/2000/svg">
<rect width="522" height="182" rx="14" fill="white"/>
<g filter="url(#filter0_d_5_1298)">
<rect x="40" y="40" width="66" height="66" rx="24" fill="url(#paint0_linear_5_1298)"/>
</g>
<path fill-rule="evenodd" clip-rule="evenodd" d="M59.0338 56C57.3609 56 56 57.3611 56 59.034V61.3765H62.0678V59.034C62.0678 57.3611 60.7066 56 59.0338 56ZM85.0846 83.5742V59.9992C85.0846 57.7906 83.2942 56 81.0856 56H62.2348C62.986 56.7922 63.4503 57.8588 63.4503 59.034V87.0335C63.4503 88.6654 64.7017 90.0714 66.3315 90.1518C68.0735 90.2376 69.5181 88.8451 69.5181 87.1215V83.576H85.0848C85.0848 83.5753 85.0846 83.5749 85.0846 83.5742ZM69.1411 78.5048H79.8104V80.3482H69.1411V78.5048ZM69.1411 73.9731H79.8104V75.8165H69.1411V73.9731ZM69.1411 69.4413H79.8104V71.2847H69.1411V69.4413ZM69.1411 64.9098H79.8104V66.7532H69.1411V64.9098ZM69.1411 60.3781H79.8104V62.2215H69.1411V60.3781ZM70.9006 84.9585V87.1215C70.9006 88.2967 70.4363 89.3633 69.6851 90.1555H86.9662C88.6391 90.1555 90 88.7947 90 87.1215V84.9585H70.9006Z" fill="white"/>
<path d="M146.932 105.159C149.256 105.159 150.875 103.801 150.886 101.909C150.875 100.438 149.892 99.1875 148.636 98.9545V98.8864C149.727 98.6023 150.443 97.5341 150.455 96.2955C150.443 94.5227 148.955 93.2045 146.932 93.2045C144.886 93.2045 143.398 94.5227 143.409 96.2955C143.398 97.5341 144.114 98.6023 145.227 98.8864V98.9545C143.949 99.1875 142.966 100.438 142.977 101.909C142.966 103.801 144.585 105.159 146.932 105.159ZM146.932 103.909C145.335 103.909 144.352 103.091 144.364 101.841C144.352 100.528 145.438 99.5909 146.932 99.5909C148.403 99.5909 149.489 100.528 149.5 101.841C149.489 103.091 148.506 103.909 146.932 103.909ZM146.932 98.3864C145.659 98.3864 144.761 97.5909 144.773 96.3864C144.761 95.2045 145.625 94.4318 146.932 94.4318C148.216 94.4318 149.08 95.2045 149.091 96.3864C149.08 97.5909 148.182 98.3864 146.932 98.3864ZM160.882 105.182C162.564 105.182 163.132 104.136 163.428 103.659H163.587V105H164.882V93.3636H163.541V97.6591H163.428C163.132 97.2045 162.609 96.1591 160.905 96.1591C158.7 96.1591 157.178 97.9091 157.178 100.659C157.178 103.432 158.7 105.182 160.882 105.182ZM161.064 103.977C159.382 103.977 158.518 102.5 158.518 100.636C158.518 98.7955 159.359 97.3636 161.064 97.3636C162.7 97.3636 163.564 98.6818 163.564 100.636C163.564 102.614 162.678 103.977 161.064 103.977ZM167.524 105H168.865V96.2727H167.524V105ZM168.206 94.8182C168.729 94.8182 169.161 94.4091 169.161 93.9091C169.161 93.4091 168.729 93 168.206 93C167.683 93 167.251 93.4091 167.251 93.9091C167.251 94.4091 167.683 94.8182 168.206 94.8182ZM175.207 96.2727H173.253V95.3864C173.253 94.5227 173.616 94.0682 174.503 94.0682C174.889 94.0682 175.116 94.1591 175.253 94.2045L175.639 93.0455C175.435 92.9545 175.026 92.8182 174.366 92.8182C173.116 92.8182 171.912 93.5682 171.912 95.0682V96.2727H170.503V97.4091H171.912V105H173.253V97.4091H175.207V96.2727ZM180.973 96.2727H179.018V95.3864C179.018 94.5227 179.382 94.0682 180.268 94.0682C180.655 94.0682 180.882 94.1591 181.018 94.2045L181.405 93.0455C181.2 92.9545 180.791 92.8182 180.132 92.8182C178.882 92.8182 177.678 93.5682 177.678 95.0682V96.2727H176.268V97.4091H177.678V105H179.018V97.4091H180.973V96.2727ZM186.152 105.182C187.925 105.182 189.22 104.295 189.629 102.977L188.334 102.614C187.993 103.523 187.203 103.977 186.152 103.977C184.578 103.977 183.493 102.96 183.43 101.091H189.766V100.523C189.766 97.2727 187.834 96.1591 186.016 96.1591C183.652 96.1591 182.084 98.0227 182.084 100.705C182.084 103.386 183.629 105.182 186.152 105.182ZM183.43 99.9318C183.521 98.5739 184.482 97.3636 186.016 97.3636C187.47 97.3636 188.402 98.4545 188.402 99.9318H183.43ZM191.805 105H193.146V99.4773C193.146 98.2955 194.078 97.4318 195.351 97.4318C195.709 97.4318 196.078 97.5 196.169 97.5227V96.1591C196.016 96.1477 195.663 96.1364 195.464 96.1364C194.419 96.1364 193.51 96.7273 193.192 97.5909H193.101V96.2727H191.805V105ZM201.152 105.182C202.925 105.182 204.22 104.295 204.629 102.977L203.334 102.614C202.993 103.523 202.203 103.977 201.152 103.977C199.578 103.977 198.493 102.96 198.43 101.091H204.766V100.523C204.766 97.2727 202.834 96.1591 201.016 96.1591C198.652 96.1591 197.084 98.0227 197.084 100.705C197.084 103.386 198.629 105.182 201.152 105.182ZM198.43 99.9318C198.521 98.5739 199.482 97.3636 201.016 97.3636C202.47 97.3636 203.402 98.4545 203.402 99.9318H198.43ZM208.146 99.75C208.146 98.2273 209.089 97.3636 210.374 97.3636C211.618 97.3636 212.374 98.1761 212.374 99.5455V105H213.714V99.4545C213.714 97.2273 212.527 96.1591 210.76 96.1591C209.442 96.1591 208.624 96.75 208.214 97.6364H208.101V96.2727H206.805V105H208.146V99.75ZM219.96 96.2727H218.097V94.1818H216.756V96.2727H215.438V97.4091H216.756V102.864C216.756 104.386 217.983 105.114 219.119 105.114C219.619 105.114 219.938 105.023 220.119 104.955L219.847 103.75C219.733 103.773 219.551 103.818 219.256 103.818C218.665 103.818 218.097 103.636 218.097 102.5V97.4091H219.96V96.2727ZM232.659 98.2273C232.239 96.9886 231.295 96.1591 229.568 96.1591C227.727 96.1591 226.364 97.2045 226.364 98.6818C226.364 99.8864 227.08 100.693 228.682 101.068L230.136 101.409C231.017 101.614 231.432 102.034 231.432 102.636C231.432 103.386 230.636 104 229.386 104C228.29 104 227.602 103.528 227.364 102.591L226.091 102.909C226.403 104.392 227.625 105.182 229.409 105.182C231.438 105.182 232.818 104.074 232.818 102.568C232.818 101.352 232.057 100.585 230.5 100.205L229.205 99.8864C228.17 99.6307 227.705 99.2841 227.705 98.6136C227.705 97.8636 228.5 97.3182 229.568 97.3182C230.739 97.3182 231.222 97.9659 231.455 98.5682L232.659 98.2273ZM238.382 105.182C240.314 105.182 241.587 104 241.814 102.455H240.473C240.223 103.409 239.428 103.977 238.382 103.977C236.791 103.977 235.768 102.659 235.768 100.636C235.768 98.6591 236.814 97.3636 238.382 97.3636C239.564 97.3636 240.268 98.0909 240.473 98.8864H241.814C241.587 97.25 240.2 96.1591 238.359 96.1591C235.996 96.1591 234.428 98.0227 234.428 100.682C234.428 103.295 235.928 105.182 238.382 105.182ZM243.774 105H245.115V99.4773C245.115 98.2955 246.047 97.4318 247.32 97.4318C247.678 97.4318 248.047 97.5 248.138 97.5227V96.1591C247.984 96.1477 247.632 96.1364 247.433 96.1364C246.388 96.1364 245.479 96.7273 245.161 97.5909H245.07V96.2727H243.774V105ZM253.007 105.182C255.371 105.182 256.962 103.386 256.962 100.682C256.962 97.9545 255.371 96.1591 253.007 96.1591C250.643 96.1591 249.053 97.9545 249.053 100.682C249.053 103.386 250.643 105.182 253.007 105.182ZM253.007 103.977C251.212 103.977 250.393 102.432 250.393 100.682C250.393 98.9318 251.212 97.3636 253.007 97.3636C254.803 97.3636 255.621 98.9318 255.621 100.682C255.621 102.432 254.803 103.977 253.007 103.977ZM260.349 93.3636H259.009V105H260.349V93.3636ZM264.146 93.3636H262.805V105H264.146V93.3636ZM274.761 105.182C276.534 105.182 277.83 104.295 278.239 102.977L276.943 102.614C276.602 103.523 275.812 103.977 274.761 103.977C273.188 103.977 272.102 102.96 272.04 101.091H278.375V100.523C278.375 97.2727 276.443 96.1591 274.625 96.1591C272.261 96.1591 270.693 98.0227 270.693 100.705C270.693 103.386 272.239 105.182 274.761 105.182ZM272.04 99.9318C272.131 98.5739 273.091 97.3636 274.625 97.3636C276.08 97.3636 277.011 98.4545 277.011 99.9318H272.04ZM284.301 96.2727H282.347V95.3864C282.347 94.5227 282.71 94.0682 283.597 94.0682C283.983 94.0682 284.21 94.1591 284.347 94.2045L284.733 93.0455C284.528 92.9545 284.119 92.8182 283.46 92.8182C282.21 92.8182 281.006 93.5682 281.006 95.0682V96.2727H279.597V97.4091H281.006V105H282.347V97.4091H284.301V96.2727ZM290.067 96.2727H288.112V95.3864C288.112 94.5227 288.476 94.0682 289.362 94.0682C289.749 94.0682 289.976 94.1591 290.112 94.2045L290.499 93.0455C290.294 92.9545 289.885 92.8182 289.226 92.8182C287.976 92.8182 286.771 93.5682 286.771 95.0682V96.2727H285.362V97.4091H286.771V105H288.112V97.4091H290.067V96.2727ZM295.246 105.182C297.018 105.182 298.314 104.295 298.723 102.977L297.428 102.614C297.087 103.523 296.297 103.977 295.246 103.977C293.672 103.977 292.587 102.96 292.524 101.091H298.859V100.523C298.859 97.2727 296.928 96.1591 295.109 96.1591C292.746 96.1591 291.178 98.0227 291.178 100.705C291.178 103.386 292.723 105.182 295.246 105.182ZM292.524 99.9318C292.615 98.5739 293.575 97.3636 295.109 97.3636C296.564 97.3636 297.496 98.4545 297.496 99.9318H292.524ZM304.445 105.182C306.376 105.182 307.649 104 307.876 102.455H306.536C306.286 103.409 305.49 103.977 304.445 103.977C302.854 103.977 301.831 102.659 301.831 100.636C301.831 98.6591 302.876 97.3636 304.445 97.3636C305.626 97.3636 306.331 98.0909 306.536 98.8864H307.876C307.649 97.25 306.263 96.1591 304.422 96.1591C302.058 96.1591 300.49 98.0227 300.49 100.682C300.49 103.295 301.99 105.182 304.445 105.182ZM313.632 96.2727H311.768V94.1818H310.428V96.2727H309.109V97.4091H310.428V102.864C310.428 104.386 311.655 105.114 312.791 105.114C313.291 105.114 313.609 105.023 313.791 104.955L313.518 103.75C313.405 103.773 313.223 103.818 312.928 103.818C312.337 103.818 311.768 103.636 311.768 102.5V97.4091H313.632V96.2727ZM321.675 98.2273C321.254 96.9886 320.311 96.1591 318.584 96.1591C316.743 96.1591 315.379 97.2045 315.379 98.6818C315.379 99.8864 316.095 100.693 317.697 101.068L319.152 101.409C320.033 101.614 320.447 102.034 320.447 102.636C320.447 103.386 319.652 104 318.402 104C317.305 104 316.618 103.528 316.379 102.591L315.107 102.909C315.419 104.392 316.641 105.182 318.425 105.182C320.453 105.182 321.834 104.074 321.834 102.568C321.834 101.352 321.072 100.585 319.516 100.205L318.22 99.8864C317.186 99.6307 316.72 99.2841 316.72 98.6136C316.72 97.8636 317.516 97.3182 318.584 97.3182C319.754 97.3182 320.237 97.9659 320.47 98.5682L321.675 98.2273ZM330.92 105.205C332.443 105.205 333.239 104.386 333.511 103.818H333.58V105H334.92V99.25C334.92 96.4773 332.807 96.1591 331.693 96.1591C330.375 96.1591 328.875 96.6136 328.193 98.2045L329.466 98.6591C329.761 98.0227 330.46 97.3409 331.739 97.3409C332.972 97.3409 333.58 97.9943 333.58 99.1136V99.1591C333.58 99.8068 332.92 99.75 331.33 99.9545C329.71 100.165 327.943 100.523 327.943 102.523C327.943 104.227 329.261 105.205 330.92 105.205ZM331.125 104C330.057 104 329.284 103.523 329.284 102.591C329.284 101.568 330.216 101.25 331.261 101.114C331.83 101.045 333.352 100.886 333.58 100.614V101.841C333.58 102.932 332.716 104 331.125 104ZM337.368 105H338.709V99.4773C338.709 98.2955 339.641 97.4318 340.913 97.4318C341.271 97.4318 341.641 97.5 341.732 97.5227V96.1591C341.578 96.1477 341.226 96.1364 341.027 96.1364C339.982 96.1364 339.072 96.7273 338.754 97.5909H338.663V96.2727H337.368V105ZM346.714 105.182C348.487 105.182 349.783 104.295 350.192 102.977L348.896 102.614C348.555 103.523 347.766 103.977 346.714 103.977C345.141 103.977 344.055 102.96 343.993 101.091H350.328V100.523C350.328 97.2727 348.396 96.1591 346.578 96.1591C344.214 96.1591 342.646 98.0227 342.646 100.705C342.646 103.386 344.192 105.182 346.714 105.182ZM343.993 99.9318C344.084 98.5739 345.044 97.3636 346.578 97.3636C348.033 97.3636 348.964 98.4545 348.964 99.9318H343.993ZM356.868 105H358.209V99.4773C358.209 98.2955 359.141 97.4318 360.413 97.4318C360.771 97.4318 361.141 97.5 361.232 97.5227V96.1591C361.078 96.1477 360.726 96.1364 360.527 96.1364C359.482 96.1364 358.572 96.7273 358.254 97.5909H358.163V96.2727H356.868V105ZM366.214 105.182C367.987 105.182 369.283 104.295 369.692 102.977L368.396 102.614C368.055 103.523 367.266 103.977 366.214 103.977C364.641 103.977 363.555 102.96 363.493 101.091H369.828V100.523C369.828 97.2727 367.896 96.1591 366.078 96.1591C363.714 96.1591 362.146 98.0227 362.146 100.705C362.146 103.386 363.692 105.182 366.214 105.182ZM363.493 99.9318C363.584 98.5739 364.544 97.3636 366.078 97.3636C367.533 97.3636 368.464 98.4545 368.464 99.9318H363.493ZM374.436 105.205C375.959 105.205 376.754 104.386 377.027 103.818H377.095V105H378.436V99.25C378.436 96.4773 376.322 96.1591 375.209 96.1591C373.891 96.1591 372.391 96.6136 371.709 98.2045L372.982 98.6591C373.277 98.0227 373.976 97.3409 375.254 97.3409C376.487 97.3409 377.095 97.9943 377.095 99.1136V99.1591C377.095 99.8068 376.436 99.75 374.845 99.9545C373.226 100.165 371.459 100.523 371.459 102.523C371.459 104.227 372.777 105.205 374.436 105.205ZM374.641 104C373.572 104 372.8 103.523 372.8 102.591C372.8 101.568 373.732 101.25 374.777 101.114C375.345 101.045 376.868 100.886 377.095 100.614V101.841C377.095 102.932 376.232 104 374.641 104ZM384.179 105.182C385.861 105.182 386.429 104.136 386.724 103.659H386.884V105H388.179V93.3636H386.838V97.6591H386.724C386.429 97.2045 385.906 96.1591 384.202 96.1591C381.997 96.1591 380.474 97.9091 380.474 100.659C380.474 103.432 381.997 105.182 384.179 105.182ZM384.361 103.977C382.679 103.977 381.815 102.5 381.815 100.636C381.815 98.7955 382.656 97.3636 384.361 97.3636C385.997 97.3636 386.861 98.6818 386.861 100.636C386.861 102.614 385.974 103.977 384.361 103.977ZM391.685 108.273C392.895 108.273 393.747 107.631 394.253 106.273L397.969 96.2955L396.503 96.2727L394.094 103.227H394.003L391.594 96.2727H390.139L393.366 105.045L393.116 105.727C392.628 107.057 392.026 107.182 391.048 106.932L390.707 108.114C390.844 108.182 391.23 108.273 391.685 108.273ZM400.173 105.091C400.736 105.091 401.196 104.631 401.196 104.068C401.196 103.506 400.736 103.045 400.173 103.045C399.611 103.045 399.151 103.506 399.151 104.068C399.151 104.631 399.611 105.091 400.173 105.091ZM142.409 119.364L146.614 126.205V131H148.023V126.205L152.227 119.364H150.614L147.386 124.795H147.25L144.023 119.364H142.409ZM156.179 131.182C158.543 131.182 160.134 129.386 160.134 126.682C160.134 123.955 158.543 122.159 156.179 122.159C153.815 122.159 152.224 123.955 152.224 126.682C152.224 129.386 153.815 131.182 156.179 131.182ZM156.179 129.977C154.384 129.977 153.565 128.432 153.565 126.682C153.565 124.932 154.384 123.364 156.179 123.364C157.974 123.364 158.793 124.932 158.793 126.682C158.793 128.432 157.974 129.977 156.179 129.977ZM167.68 127.432C167.68 129.068 166.43 129.818 165.43 129.818C164.317 129.818 163.521 129 163.521 127.727V122.273H162.18V127.818C162.18 130.045 163.362 131.114 164.999 131.114C166.317 131.114 167.18 130.409 167.589 129.523H167.68V131H169.021V122.273H167.68V127.432ZM179.523 131.182C181.455 131.182 182.727 130 182.955 128.455H181.614C181.364 129.409 180.568 129.977 179.523 129.977C177.932 129.977 176.909 128.659 176.909 126.636C176.909 124.659 177.955 123.364 179.523 123.364C180.705 123.364 181.409 124.091 181.614 124.886H182.955C182.727 123.25 181.341 122.159 179.5 122.159C177.136 122.159 175.568 124.023 175.568 126.682C175.568 129.295 177.068 131.182 179.523 131.182ZM187.483 131.205C189.006 131.205 189.801 130.386 190.074 129.818H190.142V131H191.483V125.25C191.483 122.477 189.369 122.159 188.256 122.159C186.938 122.159 185.438 122.614 184.756 124.205L186.028 124.659C186.324 124.023 187.023 123.341 188.301 123.341C189.534 123.341 190.142 123.994 190.142 125.114V125.159C190.142 125.807 189.483 125.75 187.892 125.955C186.273 126.165 184.506 126.523 184.506 128.523C184.506 130.227 185.824 131.205 187.483 131.205ZM187.688 130C186.619 130 185.847 129.523 185.847 128.591C185.847 127.568 186.778 127.25 187.824 127.114C188.392 127.045 189.915 126.886 190.142 126.614V127.841C190.142 128.932 189.278 130 187.688 130ZM195.271 125.75C195.271 124.227 196.214 123.364 197.499 123.364C198.743 123.364 199.499 124.176 199.499 125.545V131H200.839V125.455C200.839 123.227 199.652 122.159 197.885 122.159C196.567 122.159 195.749 122.75 195.339 123.636H195.226V122.273H193.93V131H195.271V125.75ZM210.358 131.205C211.881 131.205 212.676 130.386 212.949 129.818H213.017V131H214.358V125.25C214.358 122.477 212.244 122.159 211.131 122.159C209.812 122.159 208.312 122.614 207.631 124.205L208.903 124.659C209.199 124.023 209.898 123.341 211.176 123.341C212.409 123.341 213.017 123.994 213.017 125.114V125.159C213.017 125.807 212.358 125.75 210.767 125.955C209.148 126.165 207.381 126.523 207.381 128.523C207.381 130.227 208.699 131.205 210.358 131.205ZM210.562 130C209.494 130 208.722 129.523 208.722 128.591C208.722 127.568 209.653 127.25 210.699 127.114C211.267 127.045 212.79 126.886 213.017 126.614V127.841C213.017 128.932 212.153 130 210.562 130ZM218.146 119.364H216.805V131H218.146V119.364ZM222.58 131H223.898L225.807 124.295H225.943L227.852 131H229.17L231.83 122.273H230.42L228.534 128.932H228.443L226.602 122.273H225.17L223.307 128.955H223.216L221.33 122.273H219.92L222.58 131ZM236.17 131.205C237.693 131.205 238.489 130.386 238.761 129.818H238.83V131H240.17V125.25C240.17 122.477 238.057 122.159 236.943 122.159C235.625 122.159 234.125 122.614 233.443 124.205L234.716 124.659C235.011 124.023 235.71 123.341 236.989 123.341C238.222 123.341 238.83 123.994 238.83 125.114V125.159C238.83 125.807 238.17 125.75 236.58 125.955C234.96 126.165 233.193 126.523 233.193 128.523C233.193 130.227 234.511 131.205 236.17 131.205ZM236.375 130C235.307 130 234.534 129.523 234.534 128.591C234.534 127.568 235.466 127.25 236.511 127.114C237.08 127.045 238.602 126.886 238.83 126.614V127.841C238.83 128.932 237.966 130 236.375 130ZM243.169 134.273C244.379 134.273 245.232 133.631 245.737 132.273L249.453 122.295L247.987 122.273L245.578 129.227H245.487L243.078 122.273H241.624L244.851 131.045L244.601 131.727C244.112 133.057 243.51 133.182 242.533 132.932L242.192 134.114C242.328 134.182 242.714 134.273 243.169 134.273ZM257.409 124.227C256.989 122.989 256.045 122.159 254.318 122.159C252.477 122.159 251.114 123.205 251.114 124.682C251.114 125.886 251.83 126.693 253.432 127.068L254.886 127.409C255.767 127.614 256.182 128.034 256.182 128.636C256.182 129.386 255.386 130 254.136 130C253.04 130 252.352 129.528 252.114 128.591L250.841 128.909C251.153 130.392 252.375 131.182 254.159 131.182C256.188 131.182 257.568 130.074 257.568 128.568C257.568 127.352 256.807 126.585 255.25 126.205L253.955 125.886C252.92 125.631 252.455 125.284 252.455 124.614C252.455 123.864 253.25 123.318 254.318 123.318C255.489 123.318 255.972 123.966 256.205 124.568L257.409 124.227ZM267.632 131.182C269.564 131.182 270.837 130 271.064 128.455H269.723C269.473 129.409 268.678 129.977 267.632 129.977C266.041 129.977 265.018 128.659 265.018 126.636C265.018 124.659 266.064 123.364 267.632 123.364C268.814 123.364 269.518 124.091 269.723 124.886H271.064C270.837 123.25 269.45 122.159 267.609 122.159C265.246 122.159 263.678 124.023 263.678 126.682C263.678 129.295 265.178 131.182 267.632 131.182ZM274.365 125.75C274.365 124.227 275.337 123.364 276.661 123.364C277.922 123.364 278.683 124.159 278.683 125.545V131H280.024V125.455C280.024 123.21 278.831 122.159 277.047 122.159C275.672 122.159 274.888 122.733 274.479 123.636H274.365V119.364H273.024V131H274.365V125.75ZM285.045 131.205C286.568 131.205 287.364 130.386 287.636 129.818H287.705V131H289.045V125.25C289.045 122.477 286.932 122.159 285.818 122.159C284.5 122.159 283 122.614 282.318 124.205L283.591 124.659C283.886 124.023 284.585 123.341 285.864 123.341C287.097 123.341 287.705 123.994 287.705 125.114V125.159C287.705 125.807 287.045 125.75 285.455 125.955C283.835 126.165 282.068 126.523 282.068 128.523C282.068 130.227 283.386 131.205 285.045 131.205ZM285.25 130C284.182 130 283.409 129.523 283.409 128.591C283.409 127.568 284.341 127.25 285.386 127.114C285.955 127.045 287.477 126.886 287.705 126.614V127.841C287.705 128.932 286.841 130 285.25 130ZM292.834 125.75C292.834 124.227 293.777 123.364 295.061 123.364C296.305 123.364 297.061 124.176 297.061 125.545V131H298.402V125.455C298.402 123.227 297.214 122.159 295.447 122.159C294.129 122.159 293.311 122.75 292.902 123.636H292.788V122.273H291.493V131H292.834V125.75ZM304.375 134.455C306.466 134.455 308.148 133.5 308.148 131.25V122.273H306.852V123.659H306.716C306.42 123.205 305.875 122.159 304.17 122.159C301.966 122.159 300.443 123.909 300.443 126.591C300.443 129.318 302.034 130.864 304.148 130.864C305.852 130.864 306.398 129.864 306.693 129.386H306.807V131.159C306.807 132.614 305.784 133.273 304.375 133.273C302.79 133.273 302.233 132.438 301.875 131.955L300.807 132.705C301.352 133.619 302.426 134.455 304.375 134.455ZM304.33 129.659C302.648 129.659 301.784 128.386 301.784 126.568C301.784 124.795 302.625 123.364 304.33 123.364C305.966 123.364 306.83 124.682 306.83 126.568C306.83 128.5 305.943 129.659 304.33 129.659ZM314.261 131.182C316.034 131.182 317.33 130.295 317.739 128.977L316.443 128.614C316.102 129.523 315.312 129.977 314.261 129.977C312.688 129.977 311.602 128.96 311.54 127.091H317.875V126.523C317.875 123.273 315.943 122.159 314.125 122.159C311.761 122.159 310.193 124.023 310.193 126.705C310.193 129.386 311.739 131.182 314.261 131.182ZM311.54 125.932C311.631 124.574 312.591 123.364 314.125 123.364C315.58 123.364 316.511 124.455 316.511 125.932H311.54ZM324.597 131H325.892V129.659H326.051C326.347 130.136 326.915 131.182 328.597 131.182C330.778 131.182 332.301 129.432 332.301 126.659C332.301 123.909 330.778 122.159 328.574 122.159C326.869 122.159 326.347 123.205 326.051 123.659H325.938V119.364H324.597V131ZM325.915 126.636C325.915 124.682 326.778 123.364 328.415 123.364C330.119 123.364 330.96 124.795 330.96 126.636C330.96 128.5 330.097 129.977 328.415 129.977C326.801 129.977 325.915 128.614 325.915 126.636ZM334.903 134.273C336.114 134.273 336.966 133.631 337.472 132.273L341.188 122.295L339.722 122.273L337.312 129.227H337.222L334.812 122.273H333.358L336.585 131.045L336.335 131.727C335.847 133.057 335.244 133.182 334.267 132.932L333.926 134.114C334.062 134.182 334.449 134.273 334.903 134.273ZM348.325 134.273C349.536 134.273 350.388 133.631 350.893 132.273L354.609 122.295L353.143 122.273L350.734 129.227H350.643L348.234 122.273H346.78L350.007 131.045L349.757 131.727C349.268 133.057 348.666 133.182 347.689 132.932L347.348 134.114C347.484 134.182 347.871 134.273 348.325 134.273ZM359.616 131.182C361.98 131.182 363.571 129.386 363.571 126.682C363.571 123.955 361.98 122.159 359.616 122.159C357.253 122.159 355.662 123.955 355.662 126.682C355.662 129.386 357.253 131.182 359.616 131.182ZM359.616 129.977C357.821 129.977 357.003 128.432 357.003 126.682C357.003 124.932 357.821 123.364 359.616 123.364C361.412 123.364 362.23 124.932 362.23 126.682C362.23 128.432 361.412 129.977 359.616 129.977ZM371.118 127.432C371.118 129.068 369.868 129.818 368.868 129.818C367.754 129.818 366.959 129 366.959 127.727V122.273H365.618V127.818C365.618 130.045 366.8 131.114 368.436 131.114C369.754 131.114 370.618 130.409 371.027 129.523H371.118V131H372.459V122.273H371.118V127.432ZM374.915 131H376.256V125.477C376.256 124.295 377.188 123.432 378.46 123.432C378.818 123.432 379.188 123.5 379.278 123.523V122.159C379.125 122.148 378.773 122.136 378.574 122.136C377.528 122.136 376.619 122.727 376.301 123.591H376.21V122.273H374.915V131ZM389.163 122.273H387.3V120.182H385.959V122.273H384.641V123.409H385.959V128.864C385.959 130.386 387.186 131.114 388.322 131.114C388.822 131.114 389.141 131.023 389.322 130.955L389.05 129.75C388.936 129.773 388.754 129.818 388.459 129.818C387.868 129.818 387.3 129.636 387.3 128.5V123.409H389.163V122.273ZM393.749 131.205C395.271 131.205 396.067 130.386 396.339 129.818H396.408V131H397.749V125.25C397.749 122.477 395.635 122.159 394.521 122.159C393.203 122.159 391.703 122.614 391.021 124.205L392.294 124.659C392.589 124.023 393.288 123.341 394.567 123.341C395.8 123.341 396.408 123.994 396.408 125.114V125.159C396.408 125.807 395.749 125.75 394.158 125.955C392.538 126.165 390.771 126.523 390.771 128.523C390.771 130.227 392.089 131.205 393.749 131.205ZM393.953 130C392.885 130 392.112 129.523 392.112 128.591C392.112 127.568 393.044 127.25 394.089 127.114C394.658 127.045 396.18 126.886 396.408 126.614V127.841C396.408 128.932 395.544 130 393.953 130ZM406.378 124.227C405.957 122.989 405.014 122.159 403.287 122.159C401.446 122.159 400.082 123.205 400.082 124.682C400.082 125.886 400.798 126.693 402.401 127.068L403.855 127.409C404.736 127.614 405.151 128.034 405.151 128.636C405.151 129.386 404.355 130 403.105 130C402.009 130 401.321 129.528 401.082 128.591L399.81 128.909C400.122 130.392 401.344 131.182 403.128 131.182C405.156 131.182 406.537 130.074 406.537 128.568C406.537 127.352 405.776 126.585 404.219 126.205L402.923 125.886C401.889 125.631 401.423 125.284 401.423 124.614C401.423 123.864 402.219 123.318 403.287 123.318C404.457 123.318 404.94 123.966 405.173 124.568L406.378 124.227ZM412.351 122.273H410.487V120.182H409.146V122.273H407.828V123.409H409.146V128.864C409.146 130.386 410.374 131.114 411.51 131.114C412.01 131.114 412.328 131.023 412.51 130.955L412.237 129.75C412.124 129.773 411.942 129.818 411.646 129.818C411.055 129.818 410.487 129.636 410.487 128.5V123.409H412.351V122.273ZM417.933 131.182C419.706 131.182 421.001 130.295 421.411 128.977L420.115 128.614C419.774 129.523 418.984 129.977 417.933 129.977C416.359 129.977 415.274 128.96 415.212 127.091H421.547V126.523C421.547 123.273 419.615 122.159 417.797 122.159C415.433 122.159 413.865 124.023 413.865 126.705C413.865 129.386 415.411 131.182 417.933 131.182ZM415.212 125.932C415.303 124.574 416.263 123.364 417.797 123.364C419.251 123.364 420.183 124.455 420.183 125.932H415.212ZM429.768 124.227C429.348 122.989 428.405 122.159 426.678 122.159C424.837 122.159 423.473 123.205 423.473 124.682C423.473 125.886 424.189 126.693 425.791 127.068L427.246 127.409C428.126 127.614 428.541 128.034 428.541 128.636C428.541 129.386 427.746 130 426.496 130C425.399 130 424.712 129.528 424.473 128.591L423.2 128.909C423.513 130.392 424.734 131.182 426.518 131.182C428.547 131.182 429.928 130.074 429.928 128.568C429.928 127.352 429.166 126.585 427.609 126.205L426.314 125.886C425.28 125.631 424.814 125.284 424.814 124.614C424.814 123.864 425.609 123.318 426.678 123.318C427.848 123.318 428.331 123.966 428.564 124.568L429.768 124.227ZM432.923 131.091C433.486 131.091 433.946 130.631 433.946 130.068C433.946 129.506 433.486 129.045 432.923 129.045C432.361 129.045 431.901 129.506 431.901 130.068C431.901 130.631 432.361 131.091 432.923 131.091Z" fill="#656464"/>
<path d="M143.722 68H154.571V65.3494H146.884V50.5455H143.722V68ZM157.179 68H160.264V54.9091H157.179V68ZM158.73 53.0511C159.71 53.0511 160.511 52.3011 160.511 51.3807C160.511 50.4517 159.71 49.7017 158.73 49.7017C157.741 49.7017 156.94 50.4517 156.94 51.3807C156.94 52.3011 157.741 53.0511 158.73 53.0511ZM173.783 58.3693C173.357 56.1534 171.585 54.7386 168.516 54.7386C165.363 54.7386 163.215 56.2898 163.224 58.7102C163.215 60.6193 164.391 61.8807 166.906 62.4006L169.138 62.8693C170.34 63.1335 170.903 63.6193 170.903 64.3608C170.903 65.2557 169.931 65.929 168.465 65.929C167.05 65.929 166.13 65.3153 165.866 64.1392L162.857 64.429C163.241 66.8324 165.261 68.2557 168.474 68.2557C171.746 68.2557 174.056 66.5597 174.065 64.0795C174.056 62.2131 172.854 61.071 170.383 60.5341L168.15 60.0568C166.82 59.7585 166.292 59.2983 166.3 58.5398C166.292 57.6534 167.272 57.0398 168.559 57.0398C169.982 57.0398 170.732 57.8153 170.971 58.6761L173.783 58.3693ZM183.146 54.9091H180.563V51.7727H177.478V54.9091H175.62V57.2955H177.478V64.5739C177.461 67.0369 179.251 68.2472 181.569 68.179C182.447 68.1534 183.052 67.983 183.384 67.8722L182.864 65.4602C182.694 65.5028 182.344 65.5795 181.961 65.5795C181.185 65.5795 180.563 65.3068 180.563 64.0625V57.2955H183.146V54.9091ZM201.301 55.3438H204.344C204.284 52.3949 201.77 50.3068 198.054 50.3068C194.389 50.3068 191.636 52.3693 191.645 55.4545C191.645 57.9602 193.426 59.4006 196.298 60.142L198.284 60.6534C200.168 61.1307 201.412 61.7188 201.42 63.0739C201.412 64.5653 199.997 65.5625 197.935 65.5625C195.957 65.5625 194.423 64.6761 194.295 62.8438H191.185C191.312 66.3125 193.895 68.2642 197.96 68.2642C202.145 68.2642 204.574 66.1761 204.582 63.0994C204.574 60.0739 202.077 58.6932 199.452 58.071L197.815 57.6619C196.384 57.321 194.832 56.7159 194.849 55.2585C194.858 53.946 196.034 52.983 198.011 52.983C199.895 52.983 201.139 53.8608 201.301 55.3438ZM212.975 68.2557C216.265 68.2557 218.362 66.304 218.583 63.5256H215.634C215.37 64.9318 214.356 65.7415 213.001 65.7415C211.075 65.7415 209.83 64.1307 209.83 61.4545C209.83 58.8125 211.1 57.2273 213.001 57.2273C214.484 57.2273 215.396 58.1818 215.634 59.4432H218.583C218.37 56.6051 216.154 54.7386 212.958 54.7386C209.123 54.7386 206.702 57.5085 206.702 61.5057C206.702 65.4688 209.063 68.2557 212.975 68.2557ZM221.116 68H224.202V60.304C224.202 58.642 225.455 57.4659 227.151 57.4659C227.67 57.4659 228.318 57.5597 228.582 57.6449V54.8068C228.301 54.7557 227.815 54.7216 227.474 54.7216C225.974 54.7216 224.722 55.5739 224.244 57.0909H224.108V54.9091H221.116V68ZM235.803 68.2557C239.638 68.2557 242.076 65.554 242.076 61.5057C242.076 57.4489 239.638 54.7386 235.803 54.7386C231.968 54.7386 229.531 57.4489 229.531 61.5057C229.531 65.554 231.968 68.2557 235.803 68.2557ZM235.82 65.7841C233.698 65.7841 232.658 63.892 232.658 61.4972C232.658 59.1023 233.698 57.1847 235.82 57.1847C237.908 57.1847 238.948 59.1023 238.948 61.4972C238.948 63.892 237.908 65.7841 235.82 65.7841ZM247.78 50.5455H244.695V68H247.78V50.5455ZM254.038 50.5455H250.952V68H254.038V50.5455ZM263.3 68H274.72V65.3494H266.462V60.5852H274.064V57.9347H266.462V53.196H274.652V50.5455H263.3V68ZM284.372 54.9091H281.653V53.8778C281.653 52.8551 282.08 52.2841 283.23 52.2841C283.716 52.2841 284.125 52.3949 284.381 52.4716L285.003 50.0852C284.602 49.9489 283.724 49.7273 282.659 49.7273C280.384 49.7273 278.568 51.0312 278.568 53.6733V54.9091H276.634V57.2955H278.568V68H281.653V57.2955H284.372V54.9091ZM293.419 54.9091H290.7V53.8778C290.7 52.8551 291.126 52.2841 292.277 52.2841C292.763 52.2841 293.172 52.3949 293.428 52.4716L294.05 50.0852C293.649 49.9489 292.771 49.7273 291.706 49.7273C289.43 49.7273 287.615 51.0312 287.615 53.6733V54.9091H285.68V57.2955H287.615V68H290.7V57.2955H293.419V54.9091ZM301.138 68.2557C304.19 68.2557 306.286 66.7642 306.832 64.4886L303.951 64.1648C303.533 65.2727 302.511 65.8523 301.181 65.8523C299.187 65.8523 297.866 64.5398 297.84 62.2983H306.96V61.3523C306.96 56.7585 304.198 54.7386 300.977 54.7386C297.227 54.7386 294.781 57.4915 294.781 61.5312C294.781 65.6392 297.192 68.2557 301.138 68.2557ZM297.849 60.2188C297.942 58.5483 299.178 57.142 301.019 57.142C302.792 57.142 303.985 58.4375 304.002 60.2188H297.849ZM315.28 68.2557C318.57 68.2557 320.666 66.304 320.888 63.5256H317.939C317.675 64.9318 316.661 65.7415 315.305 65.7415C313.379 65.7415 312.135 64.1307 312.135 61.4545C312.135 58.8125 313.405 57.2273 315.305 57.2273C316.788 57.2273 317.7 58.1818 317.939 59.4432H320.888C320.675 56.6051 318.459 54.7386 315.263 54.7386C311.428 54.7386 309.007 57.5085 309.007 61.5057C309.007 65.4688 311.368 68.2557 315.28 68.2557ZM329.958 54.9091H327.376V51.7727H324.29V54.9091H322.433V57.2955H324.29V64.5739C324.273 67.0369 326.063 68.2472 328.381 68.179C329.259 68.1534 329.864 67.983 330.197 67.8722L329.677 65.4602C329.506 65.5028 329.157 65.5795 328.773 65.5795C327.998 65.5795 327.376 65.3068 327.376 64.0625V57.2955H329.958V54.9091ZM342.697 58.3693C342.271 56.1534 340.499 54.7386 337.43 54.7386C334.277 54.7386 332.129 56.2898 332.138 58.7102C332.129 60.6193 333.305 61.8807 335.82 62.4006L338.053 62.8693C339.254 63.1335 339.817 63.6193 339.817 64.3608C339.817 65.2557 338.845 65.929 337.379 65.929C335.964 65.929 335.044 65.3153 334.78 64.1392L331.771 64.429C332.155 66.8324 334.175 68.2557 337.388 68.2557C340.661 68.2557 342.97 66.5597 342.979 64.0795C342.97 62.2131 341.768 61.071 339.297 60.5341L337.064 60.0568C335.734 59.7585 335.206 59.2983 335.214 58.5398C335.206 57.6534 336.186 57.0398 337.473 57.0398C338.896 57.0398 339.646 57.8153 339.885 58.6761L342.697 58.3693Z" fill="#2F2C4A"/>
<defs>
<filter id="filter0_d_5_1298" x="20" y="30" width="106" height="106" filterUnits="userSpaceOnUse" color-interpolation-filters="sRGB">
<feFlood flood-opacity="0" result="BackgroundImageFix"/>
<feColorMatrix in="SourceAlpha" type="matrix" values="0 0 0 0 0 0 0 0 0 0 0 0 0 0 0 0 0 0 127 0" result="hardAlpha"/>
<feMorphology radius="2" operator="erode" in="SourceAlpha" result="effect1_dropShadow_5_1298"/>
<feOffset dy="10"/>
<feGaussianBlur stdDeviation="11"/>
<feColorMatrix type="matrix" values="0 0 0 0 0.97947 0 0 0 0 0.730307 0 0 0 0 0.328531 0 0 0 0.3 0"/>
<feBlend mode="normal" in2="BackgroundImageFix" result="effect1_dropShadow_5_1298"/>
<feBlend mode="normal" in="SourceGraphic" in2="effect1_dropShadow_5_1298" result="shape"/>
</filter>
<linearGradient id="paint0_linear_5_1298" x1="53.5" y1="40" x2="85" y2="106" gradientUnits="userSpaceOnUse">
<stop stop-color="#FFD085"/>
<stop offset="1" stop-color="#FFAF2E"/>
</linearGradient>
</defs>
</svg>
