<svg width="522" height="182" viewBox="0 0 522 182" fill="none" xmlns="http://www.w3.org/2000/svg">
<rect width="522" height="182" rx="14" fill="white"/>
<g filter="url(#filter0_d_5_1273)">
<rect x="40" y="40" width="66" height="66" rx="24" fill="url(#paint0_linear_5_1273)"/>
</g>
<path fill-rule="evenodd" clip-rule="evenodd" d="M73.1934 73.7498C75.837 73.7498 77.98 71.6068 77.98 68.9632C77.98 66.3197 75.837 64.1766 73.1934 64.1766C70.5499 64.1766 68.4069 66.3197 68.4069 68.9632C68.4069 71.6068 70.5499 73.7498 73.1934 73.7498Z" fill="white"/>
<path fill-rule="evenodd" clip-rule="evenodd" d="M77.3476 73.2141C76.2714 74.2402 74.8064 74.8716 73.1924 74.8716C71.5784 74.8716 70.1134 74.2402 69.0372 73.2141C68.8519 73.1682 68.6665 73.1228 68.4865 73.0998C68.3066 73.0768 68.1324 73.0768 67.9701 73.1019C67.8083 73.1265 67.6587 73.1767 67.4841 73.2392C67.3094 73.3012 67.1102 73.376 66.8608 73.5255C66.6119 73.6751 66.3123 73.8994 66.026 74.2739C65.7392 74.6472 65.4652 75.1713 65.2158 75.7946C64.9664 76.4174 64.742 77.1407 64.6176 77.8388C64.4932 78.5364 64.4681 79.21 64.4558 79.7207C64.443 80.2319 64.443 80.5812 64.4932 80.9177C64.5428 81.2542 64.6422 81.5779 64.867 81.9022C65.0913 82.2264 65.4401 82.5506 65.8513 82.7996C66.2626 83.049 66.7363 83.2237 67.3847 83.3107C68.0326 83.3978 68.8551 83.3978 69.8522 83.3978H72.7438H73.1924H73.641H76.5326C77.5298 83.3978 78.3523 83.3978 79.0001 83.3107C79.6485 83.2237 80.1222 83.049 80.5335 82.7996C80.9447 82.5506 81.2935 82.2264 81.5178 81.9022C81.7427 81.5779 81.842 81.2542 81.8917 80.9177C81.9419 80.5812 81.9419 80.2319 81.9291 79.7207C81.9168 79.21 81.8917 78.5364 81.7672 77.8388C81.6428 77.1407 81.4185 76.4174 81.169 75.7946C80.9196 75.1713 80.6456 74.6472 80.3588 74.2739C80.0726 73.8994 79.7729 73.6751 79.524 73.5255C79.2746 73.376 79.0754 73.3012 78.9008 73.2392C78.7261 73.1767 78.5766 73.1265 78.4147 73.1019C78.2524 73.0768 78.0783 73.0768 77.8983 73.0998C77.7183 73.1228 77.533 73.1682 77.3476 73.2141Z" fill="white"/>
<path fill-rule="evenodd" clip-rule="evenodd" d="M78.2929 71.3221C79.1436 72.0988 80.2763 72.5731 81.519 72.5731C84.1618 72.5731 86.3043 70.4301 86.3043 67.7866C86.3043 65.143 84.1618 63 81.519 63C79.8218 63 78.3303 63.884 77.4812 65.2167C78.4392 66.0917 79.0406 67.3523 79.0406 68.7523C79.0406 69.6978 78.7661 70.5802 78.2929 71.3221Z" fill="white"/>
<path fill-rule="evenodd" clip-rule="evenodd" d="M67.707 71.3221C66.8563 72.0988 65.7236 72.5731 64.4809 72.5731C61.838 72.5731 59.6955 70.4301 59.6955 67.7866C59.6955 65.143 61.838 63 64.4809 63C66.1781 63 67.6696 63.884 68.5187 65.2167C67.5606 66.0917 66.9593 67.3523 66.9593 68.7523C66.9593 69.6978 67.2338 70.5802 67.707 71.3221Z" fill="white"/>
<path fill-rule="evenodd" clip-rule="evenodd" d="M85.4096 72.2142C84.3651 73.2093 82.9551 73.8338 81.3976 73.8701L81.5696 74.0763C81.8565 74.4496 82.1306 74.9737 82.3802 75.597C82.6297 76.2198 82.8541 76.9431 82.9786 77.6412C83.1031 78.3388 83.1282 79.0124 83.1405 79.5231C83.1533 80.0343 83.1533 80.3836 83.1031 80.7201C83.0534 81.0566 82.954 81.3803 82.729 81.7046C82.5618 81.946 82.3257 82.188 82.0462 82.3979H84.5943C85.5918 82.3979 86.4146 82.3979 87.0627 82.3108C87.7113 82.2238 88.1853 82.0491 88.5967 81.7996C89.0081 81.5507 89.357 81.2265 89.5814 80.9023C89.8063 80.578 89.9057 80.2543 89.9554 79.9178C90.0056 79.5813 90.0056 79.232 89.9928 78.7208C89.9805 78.2101 89.9554 77.5365 89.8309 76.8389C89.7064 76.1408 89.482 75.4175 89.2325 74.7947C88.983 74.1713 88.7089 73.6473 88.422 73.274C88.1356 72.8995 87.8358 72.6752 87.5869 72.5256C87.3373 72.376 87.138 72.3013 86.9633 72.2393C86.7886 72.1768 86.639 72.1266 86.4771 72.102C86.3147 72.0769 86.1405 72.0769 85.9605 72.0999C85.7804 72.1229 85.595 72.1683 85.4096 72.2142Z" fill="white"/>
<path fill-rule="evenodd" clip-rule="evenodd" d="M60.5903 72.2142C61.6348 73.2093 63.0448 73.8338 64.6023 73.8701L64.4303 74.0763C64.1433 74.4496 63.8692 74.9737 63.6197 75.597C63.3702 76.2198 63.1458 76.9431 63.0213 77.6412C62.8968 78.3388 62.8717 79.0124 62.8594 79.5231C62.8466 80.0343 62.8466 80.3836 62.8968 80.7201C62.9465 81.0566 63.0459 81.3803 63.2708 81.7046C63.4381 81.946 63.6742 82.188 63.9537 82.3979H61.4056C60.4081 82.3979 59.5853 82.3979 58.9372 82.3108C58.2885 82.2238 57.8146 82.0491 57.4032 81.7996C56.9918 81.5507 56.6429 81.2265 56.4185 80.9023C56.1936 80.578 56.0942 80.2543 56.0445 79.9178C55.9943 79.5813 55.9943 79.232 56.0071 78.7208C56.0194 78.2101 56.0445 77.5365 56.169 76.8389C56.2935 76.1408 56.5179 75.4175 56.7674 74.7947C57.0169 74.1713 57.291 73.6473 57.5779 73.274C57.8643 72.8995 58.164 72.6752 58.413 72.5256C58.6625 72.376 58.8618 72.3013 59.0365 72.2393C59.2113 72.1768 59.3609 72.1266 59.5228 72.102C59.6852 72.0769 59.8594 72.0769 60.0394 72.0999C60.2195 72.1229 60.4049 72.1683 60.5903 72.2142Z" fill="white"/>
<path d="M142.409 93.3636L146.614 100.205V105H148.023V100.205L152.227 93.3636H150.614L147.386 98.7955H147.25L144.023 93.3636H142.409ZM156.179 105.182C158.543 105.182 160.134 103.386 160.134 100.682C160.134 97.9545 158.543 96.1591 156.179 96.1591C153.815 96.1591 152.224 97.9545 152.224 100.682C152.224 103.386 153.815 105.182 156.179 105.182ZM156.179 103.977C154.384 103.977 153.565 102.432 153.565 100.682C153.565 98.9318 154.384 97.3636 156.179 97.3636C157.974 97.3636 158.793 98.9318 158.793 100.682C158.793 102.432 157.974 103.977 156.179 103.977ZM167.68 101.432C167.68 103.068 166.43 103.818 165.43 103.818C164.317 103.818 163.521 103 163.521 101.727V96.2727H162.18V101.818C162.18 104.045 163.362 105.114 164.999 105.114C166.317 105.114 167.18 104.409 167.589 103.523H167.68V105H169.021V96.2727H167.68V101.432ZM171.477 105H172.818V99.4773C172.818 98.2955 173.75 97.4318 175.023 97.4318C175.381 97.4318 175.75 97.5 175.841 97.5227V96.1591C175.688 96.1477 175.335 96.1364 175.136 96.1364C174.091 96.1364 173.182 96.7273 172.864 97.5909H172.773V96.2727H171.477V105ZM187.43 101.432C187.43 103.068 186.18 103.818 185.18 103.818C184.067 103.818 183.271 103 183.271 101.727V96.2727H181.93V101.818C181.93 104.045 183.112 105.114 184.749 105.114C186.067 105.114 186.93 104.409 187.339 103.523H187.43V105H188.771V96.2727H187.43V101.432ZM197.409 98.2273C196.989 96.9886 196.045 96.1591 194.318 96.1591C192.477 96.1591 191.114 97.2045 191.114 98.6818C191.114 99.8864 191.83 100.693 193.432 101.068L194.886 101.409C195.767 101.614 196.182 102.034 196.182 102.636C196.182 103.386 195.386 104 194.136 104C193.04 104 192.352 103.528 192.114 102.591L190.841 102.909C191.153 104.392 192.375 105.182 194.159 105.182C196.188 105.182 197.568 104.074 197.568 102.568C197.568 101.352 196.807 100.585 195.25 100.205L193.955 99.8864C192.92 99.6307 192.455 99.2841 192.455 98.6136C192.455 97.8636 193.25 97.3182 194.318 97.3182C195.489 97.3182 195.972 97.9659 196.205 98.5682L197.409 98.2273ZM203.246 105.182C205.018 105.182 206.314 104.295 206.723 102.977L205.428 102.614C205.087 103.523 204.297 103.977 203.246 103.977C201.672 103.977 200.587 102.96 200.524 101.091H206.859V100.523C206.859 97.2727 204.928 96.1591 203.109 96.1591C200.746 96.1591 199.178 98.0227 199.178 100.705C199.178 103.386 200.723 105.182 203.246 105.182ZM200.524 99.9318C200.615 98.5739 201.575 97.3636 203.109 97.3636C204.564 97.3636 205.496 98.4545 205.496 99.9318H200.524ZM208.899 105H210.24V99.4773C210.24 98.2955 211.172 97.4318 212.445 97.4318C212.803 97.4318 213.172 97.5 213.263 97.5227V96.1591C213.109 96.1477 212.757 96.1364 212.558 96.1364C211.513 96.1364 210.604 96.7273 210.286 97.5909H210.195V96.2727H208.899V105ZM221.034 98.2273C220.614 96.9886 219.67 96.1591 217.943 96.1591C216.102 96.1591 214.739 97.2045 214.739 98.6818C214.739 99.8864 215.455 100.693 217.057 101.068L218.511 101.409C219.392 101.614 219.807 102.034 219.807 102.636C219.807 103.386 219.011 104 217.761 104C216.665 104 215.977 103.528 215.739 102.591L214.466 102.909C214.778 104.392 216 105.182 217.784 105.182C219.812 105.182 221.193 104.074 221.193 102.568C221.193 101.352 220.432 100.585 218.875 100.205L217.58 99.8864C216.545 99.6307 216.08 99.2841 216.08 98.6136C216.08 97.8636 216.875 97.3182 217.943 97.3182C219.114 97.3182 219.597 97.9659 219.83 98.5682L221.034 98.2273ZM231.257 105.182C233.189 105.182 234.462 104 234.689 102.455H233.348C233.098 103.409 232.303 103.977 231.257 103.977C229.666 103.977 228.643 102.659 228.643 100.636C228.643 98.6591 229.689 97.3636 231.257 97.3636C232.439 97.3636 233.143 98.0909 233.348 98.8864H234.689C234.462 97.25 233.075 96.1591 231.234 96.1591C228.871 96.1591 227.303 98.0227 227.303 100.682C227.303 103.295 228.803 105.182 231.257 105.182ZM239.217 105.205C240.74 105.205 241.536 104.386 241.808 103.818H241.876V105H243.217V99.25C243.217 96.4773 241.104 96.1591 239.99 96.1591C238.672 96.1591 237.172 96.6136 236.49 98.2045L237.763 98.6591C238.058 98.0227 238.757 97.3409 240.036 97.3409C241.268 97.3409 241.876 97.9943 241.876 99.1136V99.1591C241.876 99.8068 241.217 99.75 239.626 99.9545C238.007 100.165 236.24 100.523 236.24 102.523C236.24 104.227 237.558 105.205 239.217 105.205ZM239.422 104C238.354 104 237.581 103.523 237.581 102.591C237.581 101.568 238.513 101.25 239.558 101.114C240.126 101.045 241.649 100.886 241.876 100.614V101.841C241.876 102.932 241.013 104 239.422 104ZM247.006 99.75C247.006 98.2273 247.949 97.3636 249.233 97.3636C250.477 97.3636 251.233 98.1761 251.233 99.5455V105H252.574V99.4545C252.574 97.2273 251.386 96.1591 249.619 96.1591C248.301 96.1591 247.483 96.75 247.074 97.6364H246.96V96.2727H245.665V105H247.006V99.75ZM263.07 105.182C265.001 105.182 266.274 104 266.501 102.455H265.161C264.911 103.409 264.115 103.977 263.07 103.977C261.479 103.977 260.456 102.659 260.456 100.636C260.456 98.6591 261.501 97.3636 263.07 97.3636C264.251 97.3636 264.956 98.0909 265.161 98.8864H266.501C266.274 97.25 264.888 96.1591 263.047 96.1591C260.683 96.1591 259.115 98.0227 259.115 100.682C259.115 103.295 260.615 105.182 263.07 105.182ZM268.462 105H269.803V99.4773C269.803 98.2955 270.734 97.4318 272.007 97.4318C272.365 97.4318 272.734 97.5 272.825 97.5227V96.1591C272.672 96.1477 272.32 96.1364 272.121 96.1364C271.075 96.1364 270.166 96.7273 269.848 97.5909H269.757V96.2727H268.462V105ZM277.808 105.182C279.581 105.182 280.876 104.295 281.286 102.977L279.99 102.614C279.649 103.523 278.859 103.977 277.808 103.977C276.234 103.977 275.149 102.96 275.087 101.091H281.422V100.523C281.422 97.2727 279.49 96.1591 277.672 96.1591C275.308 96.1591 273.74 98.0227 273.74 100.705C273.74 103.386 275.286 105.182 277.808 105.182ZM275.087 99.9318C275.178 98.5739 276.138 97.3636 277.672 97.3636C279.126 97.3636 280.058 98.4545 280.058 99.9318H275.087ZM286.03 105.205C287.553 105.205 288.348 104.386 288.621 103.818H288.689V105H290.03V99.25C290.03 96.4773 287.916 96.1591 286.803 96.1591C285.484 96.1591 283.984 96.6136 283.303 98.2045L284.575 98.6591C284.871 98.0227 285.57 97.3409 286.848 97.3409C288.081 97.3409 288.689 97.9943 288.689 99.1136V99.1591C288.689 99.8068 288.03 99.75 286.439 99.9545C284.82 100.165 283.053 100.523 283.053 102.523C283.053 104.227 284.371 105.205 286.03 105.205ZM286.234 104C285.166 104 284.393 103.523 284.393 102.591C284.393 101.568 285.325 101.25 286.371 101.114C286.939 101.045 288.462 100.886 288.689 100.614V101.841C288.689 102.932 287.825 104 286.234 104ZM296.273 96.2727H294.409V94.1818H293.068V96.2727H291.75V97.4091H293.068V102.864C293.068 104.386 294.295 105.114 295.432 105.114C295.932 105.114 296.25 105.023 296.432 104.955L296.159 103.75C296.045 103.773 295.864 103.818 295.568 103.818C294.977 103.818 294.409 103.636 294.409 102.5V97.4091H296.273V96.2727ZM301.855 105.182C303.628 105.182 304.923 104.295 305.332 102.977L304.037 102.614C303.696 103.523 302.906 103.977 301.855 103.977C300.281 103.977 299.196 102.96 299.134 101.091H305.469V100.523C305.469 97.2727 303.537 96.1591 301.719 96.1591C299.355 96.1591 297.787 98.0227 297.787 100.705C297.787 103.386 299.332 105.182 301.855 105.182ZM299.134 99.9318C299.224 98.5739 300.185 97.3636 301.719 97.3636C303.173 97.3636 304.105 98.4545 304.105 99.9318H299.134ZM315.531 108.455C317.622 108.455 319.304 107.5 319.304 105.25V96.2727H318.009V97.6591H317.872C317.577 97.2045 317.031 96.1591 315.327 96.1591C313.122 96.1591 311.599 97.9091 311.599 100.591C311.599 103.318 313.19 104.864 315.304 104.864C317.009 104.864 317.554 103.864 317.849 103.386H317.963V105.159C317.963 106.614 316.94 107.273 315.531 107.273C313.946 107.273 313.389 106.438 313.031 105.955L311.963 106.705C312.509 107.619 313.582 108.455 315.531 108.455ZM315.486 103.659C313.804 103.659 312.94 102.386 312.94 100.568C312.94 98.7955 313.781 97.3636 315.486 97.3636C317.122 97.3636 317.986 98.6818 317.986 100.568C317.986 102.5 317.099 103.659 315.486 103.659ZM321.759 105H323.099V99.4773C323.099 98.2955 324.031 97.4318 325.304 97.4318C325.662 97.4318 326.031 97.5 326.122 97.5227V96.1591C325.969 96.1477 325.616 96.1364 325.418 96.1364C324.372 96.1364 323.463 96.7273 323.145 97.5909H323.054V96.2727H321.759V105ZM330.991 105.182C333.355 105.182 334.946 103.386 334.946 100.682C334.946 97.9545 333.355 96.1591 330.991 96.1591C328.628 96.1591 327.037 97.9545 327.037 100.682C327.037 103.386 328.628 105.182 330.991 105.182ZM330.991 103.977C329.196 103.977 328.378 102.432 328.378 100.682C328.378 98.9318 329.196 97.3636 330.991 97.3636C332.787 97.3636 333.605 98.9318 333.605 100.682C333.605 102.432 332.787 103.977 330.991 103.977ZM342.493 101.432C342.493 103.068 341.243 103.818 340.243 103.818C339.129 103.818 338.334 103 338.334 101.727V96.2727H336.993V101.818C336.993 104.045 338.175 105.114 339.811 105.114C341.129 105.114 341.993 104.409 342.402 103.523H342.493V105H343.834V96.2727H342.493V101.432ZM346.29 108.273H347.631V103.659H347.744C348.04 104.136 348.608 105.182 350.29 105.182C352.472 105.182 353.994 103.432 353.994 100.659C353.994 97.9091 352.472 96.1591 350.267 96.1591C348.562 96.1591 348.04 97.2045 347.744 97.6591H347.585V96.2727H346.29V108.273ZM347.608 100.636C347.608 98.6818 348.472 97.3636 350.108 97.3636C351.812 97.3636 352.653 98.7955 352.653 100.636C352.653 102.5 351.79 103.977 350.108 103.977C348.494 103.977 347.608 102.614 347.608 100.636ZM362.222 98.2273C361.801 96.9886 360.858 96.1591 359.131 96.1591C357.29 96.1591 355.926 97.2045 355.926 98.6818C355.926 99.8864 356.642 100.693 358.244 101.068L359.699 101.409C360.58 101.614 360.994 102.034 360.994 102.636C360.994 103.386 360.199 104 358.949 104C357.852 104 357.165 103.528 356.926 102.591L355.653 102.909C355.966 104.392 357.188 105.182 358.972 105.182C361 105.182 362.381 104.074 362.381 102.568C362.381 101.352 361.619 100.585 360.062 100.205L358.767 99.8864C357.733 99.6307 357.267 99.2841 357.267 98.6136C357.267 97.8636 358.062 97.3182 359.131 97.3182C360.301 97.3182 360.784 97.9659 361.017 98.5682L362.222 98.2273ZM372.695 96.2727H370.831V94.1818H369.49V96.2727H368.172V97.4091H369.49V102.864C369.49 104.386 370.717 105.114 371.854 105.114C372.354 105.114 372.672 105.023 372.854 104.955L372.581 103.75C372.467 103.773 372.286 103.818 371.99 103.818C371.399 103.818 370.831 103.636 370.831 102.5V97.4091H372.695V96.2727ZM378.163 105.182C380.527 105.182 382.118 103.386 382.118 100.682C382.118 97.9545 380.527 96.1591 378.163 96.1591C375.8 96.1591 374.209 97.9545 374.209 100.682C374.209 103.386 375.8 105.182 378.163 105.182ZM378.163 103.977C376.368 103.977 375.55 102.432 375.55 100.682C375.55 98.9318 376.368 97.3636 378.163 97.3636C379.959 97.3636 380.777 98.9318 380.777 100.682C380.777 102.432 379.959 103.977 378.163 103.977ZM390.006 93.3636H388.665V105H390.006V93.3636ZM396.121 105.182C397.893 105.182 399.189 104.295 399.598 102.977L398.303 102.614C397.962 103.523 397.172 103.977 396.121 103.977C394.547 103.977 393.462 102.96 393.399 101.091H399.734V100.523C399.734 97.2727 397.803 96.1591 395.984 96.1591C393.621 96.1591 392.053 98.0227 392.053 100.705C392.053 103.386 393.598 105.182 396.121 105.182ZM393.399 99.9318C393.49 98.5739 394.45 97.3636 395.984 97.3636C397.439 97.3636 398.371 98.4545 398.371 99.9318H393.399ZM405.57 96.2727H403.706V94.1818H402.365V96.2727H401.047V97.4091H402.365V102.864C402.365 104.386 403.592 105.114 404.729 105.114C405.229 105.114 405.547 105.023 405.729 104.955L405.456 103.75C405.342 103.773 405.161 103.818 404.865 103.818C404.274 103.818 403.706 103.636 403.706 102.5V97.4091H405.57V96.2727ZM415.632 105.182C417.996 105.182 419.587 103.386 419.587 100.682C419.587 97.9545 417.996 96.1591 415.632 96.1591C413.268 96.1591 411.678 97.9545 411.678 100.682C411.678 103.386 413.268 105.182 415.632 105.182ZM415.632 103.977C413.837 103.977 413.018 102.432 413.018 100.682C413.018 98.9318 413.837 97.3636 415.632 97.3636C417.428 97.3636 418.246 98.9318 418.246 100.682C418.246 102.432 417.428 103.977 415.632 103.977ZM425.429 96.2727H423.565V94.1818H422.224V96.2727H420.906V97.4091H422.224V102.864C422.224 104.386 423.452 105.114 424.588 105.114C425.088 105.114 425.406 105.023 425.588 104.955L425.315 103.75C425.202 103.773 425.02 103.818 424.724 103.818C424.134 103.818 423.565 103.636 423.565 102.5V97.4091H425.429V96.2727ZM428.974 99.75C428.974 98.2273 429.946 97.3636 431.27 97.3636C432.531 97.3636 433.293 98.1591 433.293 99.5455V105H434.634V99.4545C434.634 97.2102 433.44 96.1591 431.656 96.1591C430.281 96.1591 429.497 96.733 429.088 97.6364H428.974V93.3636H427.634V105H428.974V99.75ZM440.746 105.182C442.518 105.182 443.814 104.295 444.223 102.977L442.928 102.614C442.587 103.523 441.797 103.977 440.746 103.977C439.172 103.977 438.087 102.96 438.024 101.091H444.359V100.523C444.359 97.2727 442.428 96.1591 440.609 96.1591C438.246 96.1591 436.678 98.0227 436.678 100.705C436.678 103.386 438.223 105.182 440.746 105.182ZM438.024 99.9318C438.115 98.5739 439.075 97.3636 440.609 97.3636C442.064 97.3636 442.996 98.4545 442.996 99.9318H438.024ZM446.399 105H447.74V99.4773C447.74 98.2955 448.672 97.4318 449.945 97.4318C450.303 97.4318 450.672 97.5 450.763 97.5227V96.1591C450.609 96.1477 450.257 96.1364 450.058 96.1364C449.013 96.1364 448.104 96.7273 447.786 97.5909H447.695V96.2727H446.399V105ZM148.727 127.432C148.727 129.068 147.477 129.818 146.477 129.818C145.364 129.818 144.568 129 144.568 127.727V122.273H143.227V127.818C143.227 130.045 144.409 131.114 146.045 131.114C147.364 131.114 148.227 130.409 148.636 129.523H148.727V131H150.068V122.273H148.727V127.432ZM158.706 124.227C158.286 122.989 157.342 122.159 155.615 122.159C153.774 122.159 152.411 123.205 152.411 124.682C152.411 125.886 153.126 126.693 154.729 127.068L156.183 127.409C157.064 127.614 157.479 128.034 157.479 128.636C157.479 129.386 156.683 130 155.433 130C154.337 130 153.649 129.528 153.411 128.591L152.138 128.909C152.45 130.392 153.672 131.182 155.456 131.182C157.484 131.182 158.865 130.074 158.865 128.568C158.865 127.352 158.104 126.585 156.547 126.205L155.251 125.886C154.217 125.631 153.751 125.284 153.751 124.614C153.751 123.864 154.547 123.318 155.615 123.318C156.786 123.318 157.268 123.966 157.501 124.568L158.706 124.227ZM164.543 131.182C166.315 131.182 167.611 130.295 168.02 128.977L166.724 128.614C166.384 129.523 165.594 129.977 164.543 129.977C162.969 129.977 161.884 128.96 161.821 127.091H168.156V126.523C168.156 123.273 166.224 122.159 164.406 122.159C162.043 122.159 160.474 124.023 160.474 126.705C160.474 129.386 162.02 131.182 164.543 131.182ZM161.821 125.932C161.912 124.574 162.872 123.364 164.406 123.364C165.861 123.364 166.793 124.455 166.793 125.932H161.821ZM170.196 131H171.537V125.477C171.537 124.295 172.469 123.432 173.741 123.432C174.099 123.432 174.469 123.5 174.56 123.523V122.159C174.406 122.148 174.054 122.136 173.855 122.136C172.81 122.136 171.901 122.727 171.582 123.591H171.491V122.273H170.196V131ZM182.331 124.227C181.911 122.989 180.967 122.159 179.24 122.159C177.399 122.159 176.036 123.205 176.036 124.682C176.036 125.886 176.751 126.693 178.354 127.068L179.808 127.409C180.689 127.614 181.104 128.034 181.104 128.636C181.104 129.386 180.308 130 179.058 130C177.962 130 177.274 129.528 177.036 128.591L175.763 128.909C176.075 130.392 177.297 131.182 179.081 131.182C181.109 131.182 182.49 130.074 182.49 128.568C182.49 127.352 181.729 126.585 180.172 126.205L178.876 125.886C177.842 125.631 177.376 125.284 177.376 124.614C177.376 123.864 178.172 123.318 179.24 123.318C180.411 123.318 180.893 123.966 181.126 124.568L182.331 124.227ZM192.804 122.273H190.94V120.182H189.599V122.273H188.281V123.409H189.599V128.864C189.599 130.386 190.827 131.114 191.963 131.114C192.463 131.114 192.781 131.023 192.963 130.955L192.69 129.75C192.577 129.773 192.395 129.818 192.099 129.818C191.509 129.818 190.94 129.636 190.94 128.5V123.409H192.804V122.273ZM198.273 131.182C200.636 131.182 202.227 129.386 202.227 126.682C202.227 123.955 200.636 122.159 198.273 122.159C195.909 122.159 194.318 123.955 194.318 126.682C194.318 129.386 195.909 131.182 198.273 131.182ZM198.273 129.977C196.477 129.977 195.659 128.432 195.659 126.682C195.659 124.932 196.477 123.364 198.273 123.364C200.068 123.364 200.886 124.932 200.886 126.682C200.886 128.432 200.068 129.977 198.273 129.977ZM208.774 122.273V131.636C208.774 132.523 208.411 133.023 207.592 133.023H207.342V134.273H207.615C209.297 134.273 210.115 133.25 210.115 131.636V122.273H208.774ZM209.433 120.818C209.956 120.818 210.388 120.409 210.388 119.909C210.388 119.409 209.956 119 209.433 119C208.911 119 208.479 119.409 208.479 119.909C208.479 120.409 208.911 120.818 209.433 120.818ZM216.116 131.182C218.48 131.182 220.071 129.386 220.071 126.682C220.071 123.955 218.48 122.159 216.116 122.159C213.753 122.159 212.162 123.955 212.162 126.682C212.162 129.386 213.753 131.182 216.116 131.182ZM216.116 129.977C214.321 129.977 213.503 128.432 213.503 126.682C213.503 124.932 214.321 123.364 216.116 123.364C217.912 123.364 218.73 124.932 218.73 126.682C218.73 128.432 217.912 129.977 216.116 129.977ZM222.118 131H223.459V122.273H222.118V131ZM222.8 120.818C223.322 120.818 223.754 120.409 223.754 119.909C223.754 119.409 223.322 119 222.8 119C222.277 119 221.845 119.409 221.845 119.909C221.845 120.409 222.277 120.818 222.8 120.818ZM227.256 125.75C227.256 124.227 228.199 123.364 229.483 123.364C230.727 123.364 231.483 124.176 231.483 125.545V131H232.824V125.455C232.824 123.227 231.636 122.159 229.869 122.159C228.551 122.159 227.733 122.75 227.324 123.636H227.21V122.273H225.915V131H227.256V125.75ZM242.342 131.205C243.865 131.205 244.661 130.386 244.933 129.818H245.001V131H246.342V125.25C246.342 122.477 244.229 122.159 243.115 122.159C241.797 122.159 240.297 122.614 239.615 124.205L240.888 124.659C241.183 124.023 241.882 123.341 243.161 123.341C244.393 123.341 245.001 123.994 245.001 125.114V125.159C245.001 125.807 244.342 125.75 242.751 125.955C241.132 126.165 239.365 126.523 239.365 128.523C239.365 130.227 240.683 131.205 242.342 131.205ZM242.547 130C241.479 130 240.706 129.523 240.706 128.591C240.706 127.568 241.638 127.25 242.683 127.114C243.251 127.045 244.774 126.886 245.001 126.614V127.841C245.001 128.932 244.138 130 242.547 130ZM250.131 125.75C250.131 124.227 251.074 123.364 252.358 123.364C253.602 123.364 254.358 124.176 254.358 125.545V131H255.699V125.455C255.699 123.227 254.511 122.159 252.744 122.159C251.426 122.159 250.608 122.75 250.199 123.636H250.085V122.273H248.79V131H250.131V125.75ZM261.445 131.182C263.126 131.182 263.695 130.136 263.99 129.659H264.149V131H265.445V119.364H264.104V123.659H263.99C263.695 123.205 263.172 122.159 261.467 122.159C259.263 122.159 257.74 123.909 257.74 126.659C257.74 129.432 259.263 131.182 261.445 131.182ZM261.626 129.977C259.945 129.977 259.081 128.5 259.081 126.636C259.081 124.795 259.922 123.364 261.626 123.364C263.263 123.364 264.126 124.682 264.126 126.636C264.126 128.614 263.24 129.977 261.626 129.977ZM276.382 122.273H274.518V120.182H273.178V122.273H271.859V123.409H273.178V128.864C273.178 130.386 274.405 131.114 275.541 131.114C276.041 131.114 276.359 131.023 276.541 130.955L276.268 129.75C276.155 129.773 275.973 129.818 275.678 129.818C275.087 129.818 274.518 129.636 274.518 128.5V123.409H276.382V122.273ZM280.967 131.205C282.49 131.205 283.286 130.386 283.558 129.818H283.626V131H284.967V125.25C284.967 122.477 282.854 122.159 281.74 122.159C280.422 122.159 278.922 122.614 278.24 124.205L279.513 124.659C279.808 124.023 280.507 123.341 281.786 123.341C283.018 123.341 283.626 123.994 283.626 125.114V125.159C283.626 125.807 282.967 125.75 281.376 125.955C279.757 126.165 277.99 126.523 277.99 128.523C277.99 130.227 279.308 131.205 280.967 131.205ZM281.172 130C280.104 130 279.331 129.523 279.331 128.591C279.331 127.568 280.263 127.25 281.308 127.114C281.876 127.045 283.399 126.886 283.626 126.614V127.841C283.626 128.932 282.763 130 281.172 130ZM288.756 119.364H287.415V131H288.756V119.364ZM291.212 131H292.553V127.733L293.49 126.864L296.757 131H298.462L294.501 126L298.189 122.273H296.53L292.712 126.159H292.553V119.364H291.212V131Z" fill="#656464"/>
<path d="M155.415 56.1193H158.636C158.099 52.6932 155.134 50.3068 151.273 50.3068C146.705 50.3068 143.278 53.6648 143.278 59.2898C143.278 64.8125 146.551 68.2386 151.366 68.2386C155.688 68.2386 158.781 65.4602 158.781 60.9602V58.8636H151.699V61.3352H155.722C155.67 63.8239 154.009 65.4006 151.384 65.4006C148.46 65.4006 146.457 63.2102 146.457 59.2557C146.457 55.3267 148.494 53.1449 151.315 53.1449C153.42 53.1449 154.852 54.2699 155.415 56.1193ZM161.702 68H164.788V60.304C164.788 58.642 166.04 57.4659 167.737 57.4659C168.256 57.4659 168.904 57.5597 169.168 57.6449V54.8068C168.887 54.7557 168.401 54.7216 168.06 54.7216C166.56 54.7216 165.308 55.5739 164.83 57.0909H164.694V54.9091H161.702V68ZM176.389 68.2557C180.224 68.2557 182.662 65.554 182.662 61.5057C182.662 57.4489 180.224 54.7386 176.389 54.7386C172.554 54.7386 170.116 57.4489 170.116 61.5057C170.116 65.554 172.554 68.2557 176.389 68.2557ZM176.406 65.7841C174.284 65.7841 173.244 63.892 173.244 61.4972C173.244 59.1023 174.284 57.1847 176.406 57.1847C178.494 57.1847 179.534 59.1023 179.534 61.4972C179.534 63.892 178.494 65.7841 176.406 65.7841ZM193.624 62.4943C193.624 64.4886 192.201 65.4773 190.837 65.4773C189.354 65.4773 188.366 64.429 188.366 62.767V54.9091H185.281V63.2443C185.281 66.3892 187.07 68.1705 189.644 68.1705C191.604 68.1705 192.985 67.1392 193.582 65.6733H193.718V68H196.71V54.9091H193.624V62.4943ZM199.882 72.9091H202.967V65.9375H203.095C203.581 66.892 204.595 68.2301 206.845 68.2301C209.93 68.2301 212.24 65.7841 212.24 61.4716C212.24 57.108 209.862 54.7386 206.837 54.7386C204.527 54.7386 203.564 56.1278 203.095 57.0739H202.916V54.9091H199.882V72.9091ZM202.908 61.4545C202.908 58.9148 203.999 57.2699 205.984 57.2699C208.038 57.2699 209.095 59.017 209.095 61.4545C209.095 63.9091 208.021 65.6989 205.984 65.6989C204.016 65.6989 202.908 63.9943 202.908 61.4545ZM225.229 58.3693C224.803 56.1534 223.03 54.7386 219.962 54.7386C216.808 54.7386 214.661 56.2898 214.669 58.7102C214.661 60.6193 215.837 61.8807 218.351 62.4006L220.584 62.8693C221.786 63.1335 222.348 63.6193 222.348 64.3608C222.348 65.2557 221.376 65.929 219.911 65.929C218.496 65.929 217.575 65.3153 217.311 64.1392L214.303 64.429C214.686 66.8324 216.706 68.2557 219.919 68.2557C223.192 68.2557 225.501 66.5597 225.51 64.0795C225.501 62.2131 224.3 61.071 221.828 60.5341L219.595 60.0568C218.266 59.7585 217.737 59.2983 217.746 58.5398C217.737 57.6534 218.717 57.0398 220.004 57.0398C221.428 57.0398 222.178 57.8153 222.416 58.6761L225.229 58.3693Z" fill="#2F2C4A"/>
<defs>
<filter id="filter0_d_5_1273" x="20" y="28" width="106" height="106" filterUnits="userSpaceOnUse" color-interpolation-filters="sRGB">
<feFlood flood-opacity="0" result="BackgroundImageFix"/>
<feColorMatrix in="SourceAlpha" type="matrix" values="0 0 0 0 0 0 0 0 0 0 0 0 0 0 0 0 0 0 127 0" result="hardAlpha"/>
<feMorphology radius="2" operator="erode" in="SourceAlpha" result="effect1_dropShadow_5_1273"/>
<feOffset dy="8"/>
<feGaussianBlur stdDeviation="11"/>
<feColorMatrix type="matrix" values="0 0 0 0 0.971137 0 0 0 0 0.341921 0 0 0 0 0.36709 0 0 0 0.3 0"/>
<feBlend mode="normal" in2="BackgroundImageFix" result="effect1_dropShadow_5_1273"/>
<feBlend mode="normal" in="SourceGraphic" in2="effect1_dropShadow_5_1273" result="shape"/>
</filter>
<linearGradient id="paint0_linear_5_1273" x1="53.5" y1="40" x2="85" y2="106" gradientUnits="userSpaceOnUse">
<stop stop-color="#FF858A"/>
<stop offset="1" stop-color="#F04148"/>
</linearGradient>
</defs>
</svg>
