<svg width="522" height="182" viewBox="0 0 522 182" fill="none" xmlns="http://www.w3.org/2000/svg">
<rect width="522" height="182" rx="14" fill="white"/>
<g filter="url(#filter0_d_5_1265)">
<rect x="40" y="40" width="66" height="66" rx="24" fill="url(#paint0_linear_5_1265)"/>
</g>
<path fill-rule="evenodd" clip-rule="evenodd" d="M63.9787 56C61.7813 56 60 57.7813 60 59.9787V86.0213C60 88.2187 61.7813 90 63.9787 90H82.7872C84.9846 90 86.766 88.2187 86.766 86.0213V59.9787C86.766 57.7813 84.9846 56 82.7872 56H63.9787ZM66.8723 60.3404C65.474 60.3404 64.3404 61.474 64.3404 62.8723C64.3404 64.2707 65.474 65.4043 66.8723 65.4043C68.2707 65.4043 69.4043 64.2707 69.4043 62.8723C69.4043 61.474 68.2707 60.3404 66.8723 60.3404ZM64.3404 73C64.3404 71.6017 65.474 70.4681 66.8723 70.4681C68.2707 70.4681 69.4043 71.6017 69.4043 73C69.4043 74.3983 68.2707 75.5319 66.8723 75.5319C65.474 75.5319 64.3404 74.3983 64.3404 73ZM66.8723 80.5957C65.474 80.5957 64.3404 81.7293 64.3404 83.1277C64.3404 84.526 65.474 85.6596 66.8723 85.6596C68.2707 85.6596 69.4043 84.526 69.4043 83.1277C69.4043 81.7293 68.2707 80.5957 66.8723 80.5957ZM74.1064 61.7872C73.5071 61.7872 73.0213 62.2731 73.0213 62.8723C73.0213 63.4716 73.5071 63.9574 74.1064 63.9574H82.7872C83.3865 63.9574 83.8723 63.4716 83.8723 62.8723C83.8723 62.2731 83.3865 61.7872 82.7872 61.7872H74.1064ZM73.0213 73C73.0213 72.4007 73.5071 71.9149 74.1064 71.9149H82.7872C83.3865 71.9149 83.8723 72.4007 83.8723 73C83.8723 73.5993 83.3865 74.0851 82.7872 74.0851H74.1064C73.5071 74.0851 73.0213 73.5993 73.0213 73ZM74.1064 82.0426C73.5071 82.0426 73.0213 82.5284 73.0213 83.1277C73.0213 83.7269 73.5071 84.2128 74.1064 84.2128H82.7872C83.3865 84.2128 83.8723 83.7269 83.8723 83.1277C83.8723 82.5284 83.3865 82.0426 82.7872 82.0426H74.1064Z" fill="white"/>
<path d="M143.409 93.3636V105H144.727V96.1591H144.841L148.477 105H149.75L153.386 96.1591H153.5V105H154.818V93.3636H153.136L149.182 103.023H149.045L145.091 93.3636H143.409ZM161.121 105.182C162.893 105.182 164.189 104.295 164.598 102.977L163.303 102.614C162.962 103.523 162.172 103.977 161.121 103.977C159.547 103.977 158.462 102.96 158.399 101.091H164.734V100.523C164.734 97.2727 162.803 96.1591 160.984 96.1591C158.621 96.1591 157.053 98.0227 157.053 100.705C157.053 103.386 158.598 105.182 161.121 105.182ZM158.399 99.9318C158.49 98.5739 159.45 97.3636 160.984 97.3636C162.439 97.3636 163.371 98.4545 163.371 99.9318H158.399ZM166.774 105H168.115V99.5455C168.115 98.267 169.047 97.3636 170.092 97.3636C171.109 97.3636 171.82 98.0284 171.82 99.0227V105H173.183V99.3182C173.183 98.1932 173.888 97.3636 175.115 97.3636C176.07 97.3636 176.888 97.8693 176.888 99.1591V105H178.229V99.1591C178.229 97.108 177.126 96.1591 175.57 96.1591C174.32 96.1591 173.405 96.733 172.956 97.6364H172.865C172.433 96.7045 171.672 96.1591 170.524 96.1591C169.388 96.1591 168.547 96.7045 168.183 97.6364H168.07V96.2727H166.774V105ZM180.862 105H182.158V103.659H182.317C182.612 104.136 183.18 105.182 184.862 105.182C187.044 105.182 188.567 103.432 188.567 100.659C188.567 97.9091 187.044 96.1591 184.839 96.1591C183.135 96.1591 182.612 97.2045 182.317 97.6591H182.203V93.3636H180.862V105ZM182.18 100.636C182.18 98.6818 183.044 97.3636 184.68 97.3636C186.385 97.3636 187.226 98.7955 187.226 100.636C187.226 102.5 186.362 103.977 184.68 103.977C183.067 103.977 182.18 102.614 182.18 100.636ZM194.277 105.182C196.05 105.182 197.345 104.295 197.754 102.977L196.459 102.614C196.118 103.523 195.328 103.977 194.277 103.977C192.703 103.977 191.618 102.96 191.555 101.091H197.891V100.523C197.891 97.2727 195.959 96.1591 194.141 96.1591C191.777 96.1591 190.209 98.0227 190.209 100.705C190.209 103.386 191.754 105.182 194.277 105.182ZM191.555 99.9318C191.646 98.5739 192.607 97.3636 194.141 97.3636C195.595 97.3636 196.527 98.4545 196.527 99.9318H191.555ZM199.93 105H201.271V99.4773C201.271 98.2955 202.203 97.4318 203.476 97.4318C203.834 97.4318 204.203 97.5 204.294 97.5227V96.1591C204.141 96.1477 203.788 96.1364 203.589 96.1364C202.544 96.1364 201.635 96.7273 201.317 97.5909H201.226V96.2727H199.93V105ZM212.065 98.2273C211.645 96.9886 210.702 96.1591 208.974 96.1591C207.134 96.1591 205.77 97.2045 205.77 98.6818C205.77 99.8864 206.486 100.693 208.088 101.068L209.543 101.409C210.423 101.614 210.838 102.034 210.838 102.636C210.838 103.386 210.043 104 208.793 104C207.696 104 207.009 103.528 206.77 102.591L205.497 102.909C205.81 104.392 207.031 105.182 208.815 105.182C210.844 105.182 212.224 104.074 212.224 102.568C212.224 101.352 211.463 100.585 209.906 100.205L208.611 99.8864C207.577 99.6307 207.111 99.2841 207.111 98.6136C207.111 97.8636 207.906 97.3182 208.974 97.3182C210.145 97.3182 210.628 97.9659 210.861 98.5682L212.065 98.2273ZM216.243 103.409H214.788L214.72 104.045C214.555 105.585 214.232 107.119 214.084 107.841H215.107C215.379 107.068 215.959 105.318 216.152 104.023L216.243 103.409ZM231.364 97H232.818C232.386 94.75 230.5 93.2045 228.045 93.2045C225.062 93.2045 222.955 95.5 222.955 99.1818C222.955 102.864 225.045 105.159 228.136 105.159C230.909 105.159 232.886 103.312 232.886 100.432V99.1818H228.455V100.432H231.523C231.483 102.523 230.108 103.841 228.136 103.841C225.977 103.841 224.318 102.205 224.318 99.1818C224.318 96.1591 225.977 94.5227 228.045 94.5227C229.727 94.5227 230.869 95.4716 231.364 97ZM235.118 105H236.459V99.4773C236.459 98.2955 237.391 97.4318 238.663 97.4318C239.021 97.4318 239.391 97.5 239.482 97.5227V96.1591C239.328 96.1477 238.976 96.1364 238.777 96.1364C237.732 96.1364 236.822 96.7273 236.504 97.5909H236.413V96.2727H235.118V105ZM244.351 105.182C246.714 105.182 248.305 103.386 248.305 100.682C248.305 97.9545 246.714 96.1591 244.351 96.1591C241.987 96.1591 240.396 97.9545 240.396 100.682C240.396 103.386 241.987 105.182 244.351 105.182ZM244.351 103.977C242.555 103.977 241.737 102.432 241.737 100.682C241.737 98.9318 242.555 97.3636 244.351 97.3636C246.146 97.3636 246.964 98.9318 246.964 100.682C246.964 102.432 246.146 103.977 244.351 103.977ZM255.852 101.432C255.852 103.068 254.602 103.818 253.602 103.818C252.489 103.818 251.693 103 251.693 101.727V96.2727H250.352V101.818C250.352 104.045 251.534 105.114 253.17 105.114C254.489 105.114 255.352 104.409 255.761 103.523H255.852V105H257.193V96.2727H255.852V101.432ZM259.649 108.273H260.99V103.659H261.104C261.399 104.136 261.967 105.182 263.649 105.182C265.831 105.182 267.354 103.432 267.354 100.659C267.354 97.9091 265.831 96.1591 263.626 96.1591C261.922 96.1591 261.399 97.2045 261.104 97.6591H260.945V96.2727H259.649V108.273ZM260.967 100.636C260.967 98.6818 261.831 97.3636 263.467 97.3636C265.172 97.3636 266.013 98.7955 266.013 100.636C266.013 102.5 265.149 103.977 263.467 103.977C261.854 103.977 260.967 102.614 260.967 100.636ZM275.581 98.2273C275.161 96.9886 274.217 96.1591 272.49 96.1591C270.649 96.1591 269.286 97.2045 269.286 98.6818C269.286 99.8864 270.001 100.693 271.604 101.068L273.058 101.409C273.939 101.614 274.354 102.034 274.354 102.636C274.354 103.386 273.558 104 272.308 104C271.212 104 270.524 103.528 270.286 102.591L269.013 102.909C269.325 104.392 270.547 105.182 272.331 105.182C274.359 105.182 275.74 104.074 275.74 102.568C275.74 101.352 274.979 100.585 273.422 100.205L272.126 99.8864C271.092 99.6307 270.626 99.2841 270.626 98.6136C270.626 97.8636 271.422 97.3182 272.49 97.3182C273.661 97.3182 274.143 97.9659 274.376 98.5682L275.581 98.2273ZM283.599 93.3636H282.259V105H283.599V93.3636ZM286.055 105H287.396V96.2727H286.055V105ZM286.737 94.8182C287.26 94.8182 287.692 94.4091 287.692 93.9091C287.692 93.4091 287.26 93 286.737 93C286.214 93 285.783 93.4091 285.783 93.9091C285.783 94.4091 286.214 94.8182 286.737 94.8182ZM296.034 98.2273C295.614 96.9886 294.67 96.1591 292.943 96.1591C291.102 96.1591 289.739 97.2045 289.739 98.6818C289.739 99.8864 290.455 100.693 292.057 101.068L293.511 101.409C294.392 101.614 294.807 102.034 294.807 102.636C294.807 103.386 294.011 104 292.761 104C291.665 104 290.977 103.528 290.739 102.591L289.466 102.909C289.778 104.392 291 105.182 292.784 105.182C294.812 105.182 296.193 104.074 296.193 102.568C296.193 101.352 295.432 100.585 293.875 100.205L292.58 99.8864C291.545 99.6307 291.08 99.2841 291.08 98.6136C291.08 97.8636 291.875 97.3182 292.943 97.3182C294.114 97.3182 294.597 97.9659 294.83 98.5682L296.034 98.2273ZM302.007 96.2727H300.143V94.1818H298.803V96.2727H297.484V97.4091H298.803V102.864C298.803 104.386 300.03 105.114 301.166 105.114C301.666 105.114 301.984 105.023 302.166 104.955L301.893 103.75C301.78 103.773 301.598 103.818 301.303 103.818C300.712 103.818 300.143 103.636 300.143 102.5V97.4091H302.007V96.2727ZM312.07 105.182C314.001 105.182 315.274 104 315.501 102.455H314.161C313.911 103.409 313.115 103.977 312.07 103.977C310.479 103.977 309.456 102.659 309.456 100.636C309.456 98.6591 310.501 97.3636 312.07 97.3636C313.251 97.3636 313.956 98.0909 314.161 98.8864H315.501C315.274 97.25 313.888 96.1591 312.047 96.1591C309.683 96.1591 308.115 98.0227 308.115 100.682C308.115 103.295 309.615 105.182 312.07 105.182ZM320.03 105.205C321.553 105.205 322.348 104.386 322.621 103.818H322.689V105H324.03V99.25C324.03 96.4773 321.916 96.1591 320.803 96.1591C319.484 96.1591 317.984 96.6136 317.303 98.2045L318.575 98.6591C318.871 98.0227 319.57 97.3409 320.848 97.3409C322.081 97.3409 322.689 97.9943 322.689 99.1136V99.1591C322.689 99.8068 322.03 99.75 320.439 99.9545C318.82 100.165 317.053 100.523 317.053 102.523C317.053 104.227 318.371 105.205 320.03 105.205ZM320.234 104C319.166 104 318.393 103.523 318.393 102.591C318.393 101.568 319.325 101.25 320.371 101.114C320.939 101.045 322.462 100.886 322.689 100.614V101.841C322.689 102.932 321.825 104 320.234 104ZM327.818 99.75C327.818 98.2273 328.761 97.3636 330.045 97.3636C331.29 97.3636 332.045 98.1761 332.045 99.5455V105H333.386V99.4545C333.386 97.2273 332.199 96.1591 330.432 96.1591C329.114 96.1591 328.295 96.75 327.886 97.6364H327.773V96.2727H326.477V105H327.818V99.75ZM340.518 105H341.814V103.659H341.973C342.268 104.136 342.837 105.182 344.518 105.182C346.7 105.182 348.223 103.432 348.223 100.659C348.223 97.9091 346.7 96.1591 344.496 96.1591C342.791 96.1591 342.268 97.2045 341.973 97.6591H341.859V93.3636H340.518V105ZM341.837 100.636C341.837 98.6818 342.7 97.3636 344.337 97.3636C346.041 97.3636 346.882 98.7955 346.882 100.636C346.882 102.5 346.018 103.977 344.337 103.977C342.723 103.977 341.837 102.614 341.837 100.636ZM353.933 105.182C355.706 105.182 357.001 104.295 357.411 102.977L356.115 102.614C355.774 103.523 354.984 103.977 353.933 103.977C352.359 103.977 351.274 102.96 351.212 101.091H357.547V100.523C357.547 97.2727 355.615 96.1591 353.797 96.1591C351.433 96.1591 349.865 98.0227 349.865 100.705C349.865 103.386 351.411 105.182 353.933 105.182ZM351.212 99.9318C351.303 98.5739 352.263 97.3636 353.797 97.3636C355.251 97.3636 356.183 98.4545 356.183 99.9318H351.212ZM364.087 105H365.428V99.5455C365.428 98.267 366.359 97.3636 367.405 97.3636C368.422 97.3636 369.132 98.0284 369.132 99.0227V105H370.496V99.3182C370.496 98.1932 371.2 97.3636 372.428 97.3636C373.382 97.3636 374.2 97.8693 374.2 99.1591V105H375.541V99.1591C375.541 97.108 374.439 96.1591 372.882 96.1591C371.632 96.1591 370.717 96.733 370.268 97.6364H370.178C369.746 96.7045 368.984 96.1591 367.837 96.1591C366.7 96.1591 365.859 96.7045 365.496 97.6364H365.382V96.2727H364.087V105ZM381.538 105.182C383.902 105.182 385.493 103.386 385.493 100.682C385.493 97.9545 383.902 96.1591 381.538 96.1591C379.175 96.1591 377.584 97.9545 377.584 100.682C377.584 103.386 379.175 105.182 381.538 105.182ZM381.538 103.977C379.743 103.977 378.925 102.432 378.925 100.682C378.925 98.9318 379.743 97.3636 381.538 97.3636C383.334 97.3636 384.152 98.9318 384.152 100.682C384.152 102.432 383.334 103.977 381.538 103.977ZM390.835 105.182C392.517 105.182 393.085 104.136 393.381 103.659H393.54V105H394.835V93.3636H393.494V97.6591H393.381C393.085 97.2045 392.562 96.1591 390.858 96.1591C388.653 96.1591 387.131 97.9091 387.131 100.659C387.131 103.432 388.653 105.182 390.835 105.182ZM391.017 103.977C389.335 103.977 388.472 102.5 388.472 100.636C388.472 98.7955 389.312 97.3636 391.017 97.3636C392.653 97.3636 393.517 98.6818 393.517 100.636C393.517 102.614 392.631 103.977 391.017 103.977ZM397.477 105H398.818V96.2727H397.477V105ZM398.159 94.8182C398.682 94.8182 399.114 94.4091 399.114 93.9091C399.114 93.4091 398.682 93 398.159 93C397.636 93 397.205 93.4091 397.205 93.9091C397.205 94.4091 397.636 94.8182 398.159 94.8182ZM405.161 96.2727H403.206V95.3864C403.206 94.5227 403.57 94.0682 404.456 94.0682C404.842 94.0682 405.07 94.1591 405.206 94.2045L405.592 93.0455C405.388 92.9545 404.979 92.8182 404.32 92.8182C403.07 92.8182 401.865 93.5682 401.865 95.0682V96.2727H400.456V97.4091H401.865V105H403.206V97.4091H405.161V96.2727ZM407.04 105H408.381V96.2727H407.04V105ZM407.722 94.8182C408.244 94.8182 408.676 94.4091 408.676 93.9091C408.676 93.4091 408.244 93 407.722 93C407.199 93 406.767 93.4091 406.767 93.9091C406.767 94.4091 407.199 94.8182 407.722 94.8182ZM414.496 105.182C416.268 105.182 417.564 104.295 417.973 102.977L416.678 102.614C416.337 103.523 415.547 103.977 414.496 103.977C412.922 103.977 411.837 102.96 411.774 101.091H418.109V100.523C418.109 97.2727 416.178 96.1591 414.359 96.1591C411.996 96.1591 410.428 98.0227 410.428 100.705C410.428 103.386 411.973 105.182 414.496 105.182ZM411.774 99.9318C411.865 98.5739 412.825 97.3636 414.359 97.3636C415.814 97.3636 416.746 98.4545 416.746 99.9318H411.774ZM423.445 105.182C425.126 105.182 425.695 104.136 425.99 103.659H426.149V105H427.445V93.3636H426.104V97.6591H425.99C425.695 97.2045 425.172 96.1591 423.467 96.1591C421.263 96.1591 419.74 97.9091 419.74 100.659C419.74 103.432 421.263 105.182 423.445 105.182ZM423.626 103.977C421.945 103.977 421.081 102.5 421.081 100.636C421.081 98.7955 421.922 97.3636 423.626 97.3636C425.263 97.3636 426.126 98.6818 426.126 100.636C426.126 102.614 425.24 103.977 423.626 103.977ZM434.768 105H436.064V103.659H436.223C436.518 104.136 437.087 105.182 438.768 105.182C440.95 105.182 442.473 103.432 442.473 100.659C442.473 97.9091 440.95 96.1591 438.746 96.1591C437.041 96.1591 436.518 97.2045 436.223 97.6591H436.109V93.3636H434.768V105ZM436.087 100.636C436.087 98.6818 436.95 97.3636 438.587 97.3636C440.291 97.3636 441.132 98.7955 441.132 100.636C441.132 102.5 440.268 103.977 438.587 103.977C436.973 103.977 436.087 102.614 436.087 100.636ZM445.075 108.273C446.286 108.273 447.138 107.631 447.643 106.273L451.359 96.2955L449.893 96.2727L447.484 103.227H447.393L444.984 96.2727H443.53L446.757 105.045L446.507 105.727C446.018 107.057 445.416 107.182 444.439 106.932L444.098 108.114C444.234 108.182 444.621 108.273 445.075 108.273ZM146.523 131.182C148.205 131.182 148.773 130.136 149.068 129.659H149.227V131H150.523V119.364H149.182V123.659H149.068C148.773 123.205 148.25 122.159 146.545 122.159C144.341 122.159 142.818 123.909 142.818 126.659C142.818 129.432 144.341 131.182 146.523 131.182ZM146.705 129.977C145.023 129.977 144.159 128.5 144.159 126.636C144.159 124.795 145 123.364 146.705 123.364C148.341 123.364 149.205 124.682 149.205 126.636C149.205 128.614 148.318 129.977 146.705 129.977ZM153.165 131H154.506V125.477C154.506 124.295 155.438 123.432 156.71 123.432C157.068 123.432 157.438 123.5 157.528 123.523V122.159C157.375 122.148 157.023 122.136 156.824 122.136C155.778 122.136 154.869 122.727 154.551 123.591H154.46V122.273H153.165V131ZM161.686 131.205C163.209 131.205 164.004 130.386 164.277 129.818H164.345V131H165.686V125.25C165.686 122.477 163.572 122.159 162.459 122.159C161.141 122.159 159.641 122.614 158.959 124.205L160.232 124.659C160.527 124.023 161.226 123.341 162.504 123.341C163.737 123.341 164.345 123.994 164.345 125.114V125.159C164.345 125.807 163.686 125.75 162.095 125.955C160.476 126.165 158.709 126.523 158.709 128.523C158.709 130.227 160.027 131.205 161.686 131.205ZM161.891 130C160.822 130 160.05 129.523 160.05 128.591C160.05 127.568 160.982 127.25 162.027 127.114C162.595 127.045 164.118 126.886 164.345 126.614V127.841C164.345 128.932 163.482 130 161.891 130ZM171.656 134.455C173.747 134.455 175.429 133.5 175.429 131.25V122.273H174.134V123.659H173.997C173.702 123.205 173.156 122.159 171.452 122.159C169.247 122.159 167.724 123.909 167.724 126.591C167.724 129.318 169.315 130.864 171.429 130.864C173.134 130.864 173.679 129.864 173.974 129.386H174.088V131.159C174.088 132.614 173.065 133.273 171.656 133.273C170.071 133.273 169.514 132.438 169.156 131.955L168.088 132.705C168.634 133.619 169.707 134.455 171.656 134.455ZM171.611 129.659C169.929 129.659 169.065 128.386 169.065 126.568C169.065 124.795 169.906 123.364 171.611 123.364C173.247 123.364 174.111 124.682 174.111 126.568C174.111 128.5 173.224 129.659 171.611 129.659ZM185.679 131.159C186.747 131.159 187.94 130.784 188.696 130.011L189.52 131H191.134L189.526 129.04C189.963 128.477 190.452 127.534 190.452 125.909H189.156C189.156 126.705 188.974 127.409 188.673 127.994L186.145 124.909L186.997 124.273C187.952 123.568 188.543 122.795 188.543 121.682C188.543 120.386 187.474 119.25 185.724 119.25C184.02 119.25 182.906 120.318 182.906 121.886C182.906 122.92 183.469 123.716 184.27 124.682C182.912 125.625 181.974 126.5 181.974 127.909C181.974 129.795 183.384 131.159 185.679 131.159ZM187.895 129.04C187.253 129.642 186.44 129.977 185.634 129.977C184.247 129.977 183.338 129 183.338 127.909C183.338 127.591 183.634 126.773 184.679 126L185.111 125.682L187.895 129.04ZM185.321 123.909C184.753 123.216 184.27 122.557 184.27 121.909C184.27 121.182 184.884 120.409 185.77 120.409C186.611 120.409 187.179 121.091 187.179 121.682C187.179 122.477 186.747 122.909 186.088 123.341L185.321 123.909ZM200.413 131.182C202.095 131.182 202.663 130.136 202.959 129.659H203.118V131H204.413V119.364H203.072V123.659H202.959C202.663 123.205 202.141 122.159 200.436 122.159C198.232 122.159 196.709 123.909 196.709 126.659C196.709 129.432 198.232 131.182 200.413 131.182ZM200.595 129.977C198.913 129.977 198.05 128.5 198.05 126.636C198.05 124.795 198.891 123.364 200.595 123.364C202.232 123.364 203.095 124.682 203.095 126.636C203.095 128.614 202.209 129.977 200.595 129.977ZM207.055 131H208.396V125.477C208.396 124.295 209.328 123.432 210.601 123.432C210.959 123.432 211.328 123.5 211.419 123.523V122.159C211.266 122.148 210.913 122.136 210.714 122.136C209.669 122.136 208.76 122.727 208.442 123.591H208.351V122.273H207.055V131ZM216.288 131.182C218.652 131.182 220.243 129.386 220.243 126.682C220.243 123.955 218.652 122.159 216.288 122.159C213.925 122.159 212.334 123.955 212.334 126.682C212.334 129.386 213.925 131.182 216.288 131.182ZM216.288 129.977C214.493 129.977 213.675 128.432 213.675 126.682C213.675 124.932 214.493 123.364 216.288 123.364C218.084 123.364 218.902 124.932 218.902 126.682C218.902 128.432 218.084 129.977 216.288 129.977ZM222.29 134.273H223.631V129.659H223.744C224.04 130.136 224.608 131.182 226.29 131.182C228.472 131.182 229.994 129.432 229.994 126.659C229.994 123.909 228.472 122.159 226.267 122.159C224.562 122.159 224.04 123.205 223.744 123.659H223.585V122.273H222.29V134.273ZM223.608 126.636C223.608 124.682 224.472 123.364 226.108 123.364C227.812 123.364 228.653 124.795 228.653 126.636C228.653 128.5 227.79 129.977 226.108 129.977C224.494 129.977 223.608 128.614 223.608 126.636ZM237.881 119.364H236.54V131H237.881V119.364ZM240.337 131H241.678V122.273H240.337V131ZM241.018 120.818C241.541 120.818 241.973 120.409 241.973 119.909C241.973 119.409 241.541 119 241.018 119C240.496 119 240.064 119.409 240.064 119.909C240.064 120.409 240.496 120.818 241.018 120.818ZM251.27 122.273H249.815L247.406 129.227H247.315L244.906 122.273H243.452L246.679 131H248.043L251.27 122.273ZM256.386 131.182C258.159 131.182 259.455 130.295 259.864 128.977L258.568 128.614C258.227 129.523 257.438 129.977 256.386 129.977C254.812 129.977 253.727 128.96 253.665 127.091H260V126.523C260 123.273 258.068 122.159 256.25 122.159C253.886 122.159 252.318 124.023 252.318 126.705C252.318 129.386 253.864 131.182 256.386 131.182ZM253.665 125.932C253.756 124.574 254.716 123.364 256.25 123.364C257.705 123.364 258.636 124.455 258.636 125.932H253.665ZM266.722 131H268.017V129.659H268.176C268.472 130.136 269.04 131.182 270.722 131.182C272.903 131.182 274.426 129.432 274.426 126.659C274.426 123.909 272.903 122.159 270.699 122.159C268.994 122.159 268.472 123.205 268.176 123.659H268.062V119.364H266.722V131ZM268.04 126.636C268.04 124.682 268.903 123.364 270.54 123.364C272.244 123.364 273.085 124.795 273.085 126.636C273.085 128.5 272.222 129.977 270.54 129.977C268.926 129.977 268.04 128.614 268.04 126.636ZM281.977 127.432C281.977 129.068 280.727 129.818 279.727 129.818C278.614 129.818 277.818 129 277.818 127.727V122.273H276.477V127.818C276.477 130.045 277.659 131.114 279.295 131.114C280.614 131.114 281.477 130.409 281.886 129.523H281.977V131H283.318V122.273H281.977V127.432ZM285.774 131H287.115V122.273H285.774V131ZM286.456 120.818C286.979 120.818 287.411 120.409 287.411 119.909C287.411 119.409 286.979 119 286.456 119C285.933 119 285.501 119.409 285.501 119.909C285.501 120.409 285.933 120.818 286.456 120.818ZM290.912 119.364H289.571V131H290.912V119.364ZM296.663 131.182C298.345 131.182 298.913 130.136 299.209 129.659H299.368V131H300.663V119.364H299.322V123.659H299.209C298.913 123.205 298.391 122.159 296.686 122.159C294.482 122.159 292.959 123.909 292.959 126.659C292.959 129.432 294.482 131.182 296.663 131.182ZM296.845 129.977C295.163 129.977 294.3 128.5 294.3 126.636C294.3 124.795 295.141 123.364 296.845 123.364C298.482 123.364 299.345 124.682 299.345 126.636C299.345 128.614 298.459 129.977 296.845 129.977ZM306.964 131.182C308.737 131.182 310.033 130.295 310.442 128.977L309.146 128.614C308.805 129.523 308.016 129.977 306.964 129.977C305.391 129.977 304.305 128.96 304.243 127.091H310.578V126.523C310.578 123.273 308.646 122.159 306.828 122.159C304.464 122.159 302.896 124.023 302.896 126.705C302.896 129.386 304.442 131.182 306.964 131.182ZM304.243 125.932C304.334 124.574 305.294 123.364 306.828 123.364C308.283 123.364 309.214 124.455 309.214 125.932H304.243ZM312.618 131H313.959V125.477C313.959 124.295 314.891 123.432 316.163 123.432C316.521 123.432 316.891 123.5 316.982 123.523V122.159C316.828 122.148 316.476 122.136 316.277 122.136C315.232 122.136 314.322 122.727 314.004 123.591H313.913V122.273H312.618V131ZM318.548 131.091C319.111 131.091 319.571 130.631 319.571 130.068C319.571 129.506 319.111 129.045 318.548 129.045C317.986 129.045 317.526 129.506 317.526 130.068C317.526 130.631 317.986 131.091 318.548 131.091Z" fill="#656464"/>
<path d="M143.722 68H154.571V65.3494H146.884V50.5455H143.722V68ZM157.179 68H160.264V54.9091H157.179V68ZM158.73 53.0511C159.71 53.0511 160.511 52.3011 160.511 51.3807C160.511 50.4517 159.71 49.7017 158.73 49.7017C157.741 49.7017 156.94 50.4517 156.94 51.3807C156.94 52.3011 157.741 53.0511 158.73 53.0511ZM173.783 58.3693C173.357 56.1534 171.585 54.7386 168.516 54.7386C165.363 54.7386 163.215 56.2898 163.224 58.7102C163.215 60.6193 164.391 61.8807 166.906 62.4006L169.138 62.8693C170.34 63.1335 170.903 63.6193 170.903 64.3608C170.903 65.2557 169.931 65.929 168.465 65.929C167.05 65.929 166.13 65.3153 165.866 64.1392L162.857 64.429C163.241 66.8324 165.261 68.2557 168.474 68.2557C171.746 68.2557 174.056 66.5597 174.065 64.0795C174.056 62.2131 172.854 61.071 170.383 60.5341L168.15 60.0568C166.82 59.7585 166.292 59.2983 166.3 58.5398C166.292 57.6534 167.272 57.0398 168.559 57.0398C169.982 57.0398 170.732 57.8153 170.971 58.6761L173.783 58.3693ZM183.146 54.9091H180.563V51.7727H177.478V54.9091H175.62V57.2955H177.478V64.5739C177.461 67.0369 179.251 68.2472 181.569 68.179C182.447 68.1534 183.052 67.983 183.384 67.8722L182.864 65.4602C182.694 65.5028 182.344 65.5795 181.961 65.5795C181.185 65.5795 180.563 65.3068 180.563 64.0625V57.2955H183.146V54.9091ZM191.815 68H198.881C202.878 68 204.838 65.9631 204.838 63.2443C204.838 60.6023 202.963 59.0511 201.105 58.9574V58.7869C202.81 58.3864 204.156 57.1932 204.156 55.071C204.156 52.4716 202.281 50.5455 198.497 50.5455H191.815V68ZM194.977 65.358V60.2443H198.463C200.415 60.2443 201.625 61.4375 201.625 62.9972C201.625 64.3864 200.67 65.358 198.378 65.358H194.977ZM194.977 57.9688V53.1534H198.173C200.031 53.1534 200.994 54.1335 200.994 55.4801C200.994 57.0142 199.75 57.9688 198.105 57.9688H194.977ZM215.796 62.4943C215.796 64.4886 214.373 65.4773 213.009 65.4773C211.526 65.4773 210.538 64.429 210.538 62.767V54.9091H207.452V63.2443C207.452 66.3892 209.242 68.1705 211.816 68.1705C213.776 68.1705 215.157 67.1392 215.754 65.6733H215.89V68H218.881V54.9091H215.796V62.4943ZM222.054 68H225.139V54.9091H222.054V68ZM223.605 53.0511C224.585 53.0511 225.386 52.3011 225.386 51.3807C225.386 50.4517 224.585 49.7017 223.605 49.7017C222.616 49.7017 221.815 50.4517 221.815 51.3807C221.815 52.3011 222.616 53.0511 223.605 53.0511ZM231.397 50.5455H228.312V68H231.397V50.5455ZM239.428 68.2301C241.678 68.2301 242.692 66.892 243.178 65.9375H243.365V68H246.399V50.5455H243.305V57.0739H243.178C242.709 56.1278 241.746 54.7386 239.436 54.7386C236.411 54.7386 234.033 57.108 234.033 61.4716C234.033 65.7841 236.342 68.2301 239.428 68.2301ZM240.288 65.6989C238.251 65.6989 237.178 63.9091 237.178 61.4545C237.178 59.017 238.234 57.2699 240.288 57.2699C242.274 57.2699 243.365 58.9148 243.365 61.4545C243.365 63.9943 242.257 65.6989 240.288 65.6989ZM255.482 68.2557C258.533 68.2557 260.63 66.7642 261.175 64.4886L258.295 64.1648C257.877 65.2727 256.854 65.8523 255.525 65.8523C253.531 65.8523 252.21 64.5398 252.184 62.2983H261.303V61.3523C261.303 56.7585 258.542 54.7386 255.32 54.7386C251.57 54.7386 249.124 57.4915 249.124 61.5312C249.124 65.6392 251.536 68.2557 255.482 68.2557ZM252.192 60.2188C252.286 58.5483 253.522 57.142 255.363 57.142C257.136 57.142 258.329 58.4375 258.346 60.2188H252.192ZM263.913 68H266.999V60.304C266.999 58.642 268.251 57.4659 269.947 57.4659C270.467 57.4659 271.115 57.5597 271.379 57.6449V54.8068C271.098 54.7557 270.612 54.7216 270.271 54.7216C268.771 54.7216 267.518 55.5739 267.041 57.0909H266.905V54.9091H263.913V68Z" fill="#2F2C4A"/>
<defs>
<filter id="filter0_d_5_1265" x="20" y="28" width="106" height="106" filterUnits="userSpaceOnUse" color-interpolation-filters="sRGB">
<feFlood flood-opacity="0" result="BackgroundImageFix"/>
<feColorMatrix in="SourceAlpha" type="matrix" values="0 0 0 0 0 0 0 0 0 0 0 0 0 0 0 0 0 0 127 0" result="hardAlpha"/>
<feMorphology radius="2" operator="erode" in="SourceAlpha" result="effect1_dropShadow_5_1265"/>
<feOffset dy="8"/>
<feGaussianBlur stdDeviation="11"/>
<feColorMatrix type="matrix" values="0 0 0 0 0.971137 0 0 0 0 0.341921 0 0 0 0 0.36709 0 0 0 0.3 0"/>
<feBlend mode="normal" in2="BackgroundImageFix" result="effect1_dropShadow_5_1265"/>
<feBlend mode="normal" in="SourceGraphic" in2="effect1_dropShadow_5_1265" result="shape"/>
</filter>
<linearGradient id="paint0_linear_5_1265" x1="53.5" y1="40" x2="85" y2="106" gradientUnits="userSpaceOnUse">
<stop stop-color="#FF858A"/>
<stop offset="1" stop-color="#F04148"/>
</linearGradient>
</defs>
</svg>
