<svg width="522" height="182" viewBox="0 0 522 182" fill="none" xmlns="http://www.w3.org/2000/svg">
<rect width="522" height="182" rx="14" fill="white"/>
<g filter="url(#filter0_d_5_1287)">
<rect x="40" y="40" width="66" height="66" rx="24" fill="url(#paint0_linear_5_1287)"/>
</g>
<path d="M64.2891 63.8617L66.4393 66.0119C66.5736 65.2503 66.9768 64.5336 67.5592 63.996C68.9926 62.6522 71.322 62.6074 72.7555 63.9513C72.8451 64.0408 72.9347 64.1304 73.0242 64.22C73.6066 64.892 73.965 65.7431 73.965 66.639C73.965 66.8182 73.965 66.9974 73.9202 67.1318C73.8306 67.9829 73.4722 68.7444 72.8451 69.3715C72.3075 69.9091 71.6356 70.2675 70.874 70.4018L73.0242 72.552L75.6224 69.9539C75.6672 69.9091 75.6672 69.9091 75.712 69.9091C75.712 69.9091 75.712 69.9091 75.7568 69.9091C75.8016 69.9091 75.8016 69.9091 75.8464 69.9091C75.8912 69.9091 75.936 69.9091 75.936 69.9091C76.0256 69.9539 76.1152 70.0435 76.1152 70.1779C76.1152 71.029 76.4735 71.7905 77.0559 72.3729C77.683 73 78.4893 73.3136 79.3404 73.3136C79.3404 73.3136 79.3404 73.3136 79.3852 73.3136C79.654 73.3136 79.878 73.2688 80.1468 73.224C80.7291 73.0896 81.2667 72.776 81.6698 72.3281C82.3866 71.5217 82.6553 70.4466 82.4314 69.4163C82.297 68.8788 82.0282 68.386 81.6698 67.9829C81.4459 67.7589 81.1771 67.5349 80.9083 67.4005C80.6395 67.2661 80.3708 67.1765 80.102 67.087C79.9676 67.0422 79.8332 67.0422 79.6988 66.9974C79.6092 66.9974 79.4748 66.9974 79.3852 66.9974C79.2509 66.9974 79.1613 66.9078 79.1165 66.8182C79.0717 66.7286 79.1165 66.5942 79.1613 66.5046L81.7594 63.9065L74.5025 56.6047C73.6962 55.7984 72.3523 55.7984 71.546 56.6047L64.2891 63.8617Z" fill="white"/>
<path d="M89.4177 71.5217L82.1608 64.2648L80.0106 66.415C80.7721 66.5494 81.4888 66.9526 82.0264 67.4901C83.3703 68.9236 83.415 71.253 82.0712 72.6864C81.3544 73.4479 80.4137 73.8959 79.3834 73.8959C78.3531 73.9407 77.3676 73.5375 76.6509 72.776C76.1133 72.2385 75.755 71.5665 75.6206 70.805L73.4256 73L76.0237 75.5981C76.1133 75.6877 76.1133 75.8221 76.0685 75.9117C76.0237 76.0013 75.9342 76.0909 75.7998 76.0909C74.9486 76.0909 74.1871 76.4493 73.6048 77.0316C72.9776 77.6587 72.6641 78.4651 72.6641 79.361C72.6641 80.2121 73.0224 81.0184 73.6944 81.6456C73.8735 81.8248 74.0975 82.0039 74.3663 82.0935C75.531 82.7207 77.054 82.5415 78.0844 81.6008C78.7115 81.0184 79.0699 80.2121 79.0699 79.361C79.0699 79.2266 79.1595 79.137 79.249 79.0922C79.3386 79.0474 79.473 79.0922 79.5626 79.137L82.1608 81.7352L89.4177 74.4782C89.8208 74.0751 90.0448 73.5375 90.0448 73C90.0448 72.4176 89.8208 71.9249 89.4177 71.5217Z" fill="white"/>
<path d="M79.6074 79.9882C79.473 80.7497 79.0699 81.4664 78.4875 82.004C77.0541 83.3479 74.7247 83.3926 73.2912 82.0488C72.5297 81.332 72.0817 80.3913 72.0817 79.361C72.0817 78.5995 72.3057 77.838 72.7089 77.2108C72.8432 76.9869 73.0224 76.8077 73.2016 76.6285C73.7392 76.0909 74.4111 75.7326 75.1726 75.5982L73.0224 73.4032L70.4243 76.0013C70.3347 76.1357 70.2003 76.1357 70.1107 76.0909C70.0211 76.0461 69.9315 75.9565 69.9315 75.8222C69.9315 74.971 69.5732 74.2095 68.9908 73.6272C68.3637 73 67.5573 72.6865 66.6614 72.6865C66.5718 72.6865 66.4375 72.6865 66.3479 72.6865C65.5863 72.776 64.9144 73.1344 64.3768 73.672C63.5257 74.5679 63.3465 75.9118 63.7497 77.0316C63.7497 77.0764 63.7945 77.1212 63.7945 77.166C63.7945 77.2108 63.8393 77.2556 63.8393 77.3004C63.9737 77.5692 64.1529 77.838 64.3768 78.0619C64.9592 78.6891 65.7655 79.0475 66.6166 79.0475C66.751 79.0475 66.8406 79.137 66.8854 79.2266C66.9302 79.3162 66.8854 79.4506 66.8406 79.5402L64.2425 82.1384L71.4994 89.3953C72.3057 90.2016 73.6496 90.2016 74.4559 89.3953L81.7128 82.1384L79.6074 79.9882Z" fill="white"/>
<path d="M56.6271 74.4782L63.8841 81.7352L66.0343 79.585C65.2727 79.4506 64.556 79.0474 64.0184 78.4651C62.6746 77.0316 62.6298 74.7022 63.9736 73.2688C64.6904 72.5072 65.6311 72.0593 66.6614 72.0593C67.6917 72.0593 68.6772 72.4176 69.3939 73.1792C69.9315 73.7167 70.2899 74.3886 70.4242 75.1502L72.5744 73L69.9763 70.4018C69.8867 70.3122 69.8867 70.1778 69.9315 70.0882C69.9763 69.9987 70.0659 69.9091 70.2003 69.9091C71.0514 69.9091 71.8129 69.5507 72.3953 68.9684C72.4848 68.8788 72.5296 68.7892 72.6192 68.7444C73.112 68.162 73.336 67.4453 73.336 66.6838C73.336 65.8327 72.9776 65.0263 72.3057 64.3992C71.0962 63.2793 69.1252 63.2793 67.9605 64.444C67.3333 65.0263 66.975 65.8327 66.975 66.6838C66.975 66.8182 66.8854 66.9077 66.7958 66.9525C66.7062 66.9973 66.5718 66.9525 66.4822 66.9077L63.8841 64.3096L56.6271 71.5217C56.224 71.9249 56 72.4176 56 73C56 73.5823 56.224 74.0751 56.6271 74.4782Z" fill="white"/>
<path d="M142.409 93.3636L146.614 100.205V105H148.023V100.205L152.227 93.3636H150.614L147.386 98.7955H147.25L144.023 93.3636H142.409ZM156.179 105.182C158.543 105.182 160.134 103.386 160.134 100.682C160.134 97.9545 158.543 96.1591 156.179 96.1591C153.815 96.1591 152.224 97.9545 152.224 100.682C152.224 103.386 153.815 105.182 156.179 105.182ZM156.179 103.977C154.384 103.977 153.565 102.432 153.565 100.682C153.565 98.9318 154.384 97.3636 156.179 97.3636C157.974 97.3636 158.793 98.9318 158.793 100.682C158.793 102.432 157.974 103.977 156.179 103.977ZM167.68 101.432C167.68 103.068 166.43 103.818 165.43 103.818C164.317 103.818 163.521 103 163.521 101.727V96.2727H162.18V101.818C162.18 104.045 163.362 105.114 164.999 105.114C166.317 105.114 167.18 104.409 167.589 103.523H167.68V105H169.021V96.2727H167.68V101.432ZM179.523 105.182C181.455 105.182 182.727 104 182.955 102.455H181.614C181.364 103.409 180.568 103.977 179.523 103.977C177.932 103.977 176.909 102.659 176.909 100.636C176.909 98.6591 177.955 97.3636 179.523 97.3636C180.705 97.3636 181.409 98.0909 181.614 98.8864H182.955C182.727 97.25 181.341 96.1591 179.5 96.1591C177.136 96.1591 175.568 98.0227 175.568 100.682C175.568 103.295 177.068 105.182 179.523 105.182ZM187.483 105.205C189.006 105.205 189.801 104.386 190.074 103.818H190.142V105H191.483V99.25C191.483 96.4773 189.369 96.1591 188.256 96.1591C186.938 96.1591 185.438 96.6136 184.756 98.2045L186.028 98.6591C186.324 98.0227 187.023 97.3409 188.301 97.3409C189.534 97.3409 190.142 97.9943 190.142 99.1136V99.1591C190.142 99.8068 189.483 99.75 187.892 99.9545C186.273 100.165 184.506 100.523 184.506 102.523C184.506 104.227 185.824 105.205 187.483 105.205ZM187.688 104C186.619 104 185.847 103.523 185.847 102.591C185.847 101.568 186.778 101.25 187.824 101.114C188.392 101.045 189.915 100.886 190.142 100.614V101.841C190.142 102.932 189.278 104 187.688 104ZM195.271 99.75C195.271 98.2273 196.214 97.3636 197.499 97.3636C198.743 97.3636 199.499 98.1761 199.499 99.5455V105H200.839V99.4545C200.839 97.2273 199.652 96.1591 197.885 96.1591C196.567 96.1591 195.749 96.75 195.339 97.6364H195.226V96.2727H193.93V105H195.271V99.75ZM211.335 105.182C213.267 105.182 214.54 104 214.767 102.455H213.426C213.176 103.409 212.381 103.977 211.335 103.977C209.744 103.977 208.722 102.659 208.722 100.636C208.722 98.6591 209.767 97.3636 211.335 97.3636C212.517 97.3636 213.222 98.0909 213.426 98.8864H214.767C214.54 97.25 213.153 96.1591 211.312 96.1591C208.949 96.1591 207.381 98.0227 207.381 100.682C207.381 103.295 208.881 105.182 211.335 105.182ZM216.727 105H218.068V99.4773C218.068 98.2955 219 97.4318 220.273 97.4318C220.631 97.4318 221 97.5 221.091 97.5227V96.1591C220.938 96.1477 220.585 96.1364 220.386 96.1364C219.341 96.1364 218.432 96.7273 218.114 97.5909H218.023V96.2727H216.727V105ZM226.074 105.182C227.847 105.182 229.142 104.295 229.551 102.977L228.256 102.614C227.915 103.523 227.125 103.977 226.074 103.977C224.5 103.977 223.415 102.96 223.352 101.091H229.688V100.523C229.688 97.2727 227.756 96.1591 225.938 96.1591C223.574 96.1591 222.006 98.0227 222.006 100.705C222.006 103.386 223.551 105.182 226.074 105.182ZM223.352 99.9318C223.443 98.5739 224.403 97.3636 225.938 97.3636C227.392 97.3636 228.324 98.4545 228.324 99.9318H223.352ZM234.295 105.205C235.818 105.205 236.614 104.386 236.886 103.818H236.955V105H238.295V99.25C238.295 96.4773 236.182 96.1591 235.068 96.1591C233.75 96.1591 232.25 96.6136 231.568 98.2045L232.841 98.6591C233.136 98.0227 233.835 97.3409 235.114 97.3409C236.347 97.3409 236.955 97.9943 236.955 99.1136V99.1591C236.955 99.8068 236.295 99.75 234.705 99.9545C233.085 100.165 231.318 100.523 231.318 102.523C231.318 104.227 232.636 105.205 234.295 105.205ZM234.5 104C233.432 104 232.659 103.523 232.659 102.591C232.659 101.568 233.591 101.25 234.636 101.114C235.205 101.045 236.727 100.886 236.955 100.614V101.841C236.955 102.932 236.091 104 234.5 104ZM244.538 96.2727H242.675V94.1818H241.334V96.2727H240.016V97.4091H241.334V102.864C241.334 104.386 242.561 105.114 243.697 105.114C244.197 105.114 244.516 105.023 244.697 104.955L244.425 103.75C244.311 103.773 244.129 103.818 243.834 103.818C243.243 103.818 242.675 103.636 242.675 102.5V97.4091H244.538V96.2727ZM250.121 105.182C251.893 105.182 253.189 104.295 253.598 102.977L252.303 102.614C251.962 103.523 251.172 103.977 250.121 103.977C248.547 103.977 247.462 102.96 247.399 101.091H253.734V100.523C253.734 97.2727 251.803 96.1591 249.984 96.1591C247.621 96.1591 246.053 98.0227 246.053 100.705C246.053 103.386 247.598 105.182 250.121 105.182ZM247.399 99.9318C247.49 98.5739 248.45 97.3636 249.984 97.3636C251.439 97.3636 252.371 98.4545 252.371 99.9318H247.399ZM260.456 93.3636V105H261.774V96.1591H261.888L265.524 105H266.797L270.433 96.1591H270.547V105H271.865V93.3636H270.183L266.229 103.023H266.092L262.138 93.3636H260.456ZM278.168 105.182C279.94 105.182 281.236 104.295 281.645 102.977L280.349 102.614C280.009 103.523 279.219 103.977 278.168 103.977C276.594 103.977 275.509 102.96 275.446 101.091H281.781V100.523C281.781 97.2727 279.849 96.1591 278.031 96.1591C275.668 96.1591 274.099 98.0227 274.099 100.705C274.099 103.386 275.645 105.182 278.168 105.182ZM275.446 99.9318C275.537 98.5739 276.497 97.3636 278.031 97.3636C279.486 97.3636 280.418 98.4545 280.418 99.9318H275.446ZM283.821 105H285.162V99.5455C285.162 98.267 286.094 97.3636 287.139 97.3636C288.156 97.3636 288.866 98.0284 288.866 99.0227V105H290.23V99.3182C290.23 98.1932 290.935 97.3636 292.162 97.3636C293.116 97.3636 293.935 97.8693 293.935 99.1591V105H295.276V99.1591C295.276 97.108 294.173 96.1591 292.616 96.1591C291.366 96.1591 290.452 96.733 290.003 97.6364H289.912C289.48 96.7045 288.719 96.1591 287.571 96.1591C286.435 96.1591 285.594 96.7045 285.23 97.6364H285.116V96.2727H283.821V105ZM297.909 105H299.205V103.659H299.364C299.659 104.136 300.227 105.182 301.909 105.182C304.091 105.182 305.614 103.432 305.614 100.659C305.614 97.9091 304.091 96.1591 301.886 96.1591C300.182 96.1591 299.659 97.2045 299.364 97.6591H299.25V93.3636H297.909V105ZM299.227 100.636C299.227 98.6818 300.091 97.3636 301.727 97.3636C303.432 97.3636 304.273 98.7955 304.273 100.636C304.273 102.5 303.409 103.977 301.727 103.977C300.114 103.977 299.227 102.614 299.227 100.636ZM311.324 105.182C313.097 105.182 314.392 104.295 314.801 102.977L313.506 102.614C313.165 103.523 312.375 103.977 311.324 103.977C309.75 103.977 308.665 102.96 308.602 101.091H314.938V100.523C314.938 97.2727 313.006 96.1591 311.188 96.1591C308.824 96.1591 307.256 98.0227 307.256 100.705C307.256 103.386 308.801 105.182 311.324 105.182ZM308.602 99.9318C308.693 98.5739 309.653 97.3636 311.188 97.3636C312.642 97.3636 313.574 98.4545 313.574 99.9318H308.602ZM316.977 105H318.318V99.4773C318.318 98.2955 319.25 97.4318 320.523 97.4318C320.881 97.4318 321.25 97.5 321.341 97.5227V96.1591C321.188 96.1477 320.835 96.1364 320.636 96.1364C319.591 96.1364 318.682 96.7273 318.364 97.5909H318.273V96.2727H316.977V105ZM329.112 98.2273C328.692 96.9886 327.749 96.1591 326.021 96.1591C324.18 96.1591 322.817 97.2045 322.817 98.6818C322.817 99.8864 323.533 100.693 325.135 101.068L326.589 101.409C327.47 101.614 327.885 102.034 327.885 102.636C327.885 103.386 327.089 104 325.839 104C324.743 104 324.055 103.528 323.817 102.591L322.544 102.909C322.857 104.392 324.078 105.182 325.862 105.182C327.891 105.182 329.271 104.074 329.271 102.568C329.271 101.352 328.51 100.585 326.953 100.205L325.658 99.8864C324.624 99.6307 324.158 99.2841 324.158 98.6136C324.158 97.8636 324.953 97.3182 326.021 97.3182C327.192 97.3182 327.675 97.9659 327.908 98.5682L329.112 98.2273ZM333.29 103.409H331.835L331.767 104.045C331.602 105.585 331.278 107.119 331.131 107.841H332.153C332.426 107.068 333.006 105.318 333.199 104.023L333.29 103.409ZM348.411 97H349.865C349.433 94.75 347.547 93.2045 345.092 93.2045C342.109 93.2045 340.001 95.5 340.001 99.1818C340.001 102.864 342.092 105.159 345.183 105.159C347.956 105.159 349.933 103.312 349.933 100.432V99.1818H345.501V100.432H348.57C348.53 102.523 347.155 103.841 345.183 103.841C343.024 103.841 341.365 102.205 341.365 99.1818C341.365 96.1591 343.024 94.5227 345.092 94.5227C346.774 94.5227 347.916 95.4716 348.411 97ZM352.165 105H353.506V99.4773C353.506 98.2955 354.438 97.4318 355.71 97.4318C356.068 97.4318 356.438 97.5 356.528 97.5227V96.1591C356.375 96.1477 356.023 96.1364 355.824 96.1364C354.778 96.1364 353.869 96.7273 353.551 97.5909H353.46V96.2727H352.165V105ZM361.398 105.182C363.761 105.182 365.352 103.386 365.352 100.682C365.352 97.9545 363.761 96.1591 361.398 96.1591C359.034 96.1591 357.443 97.9545 357.443 100.682C357.443 103.386 359.034 105.182 361.398 105.182ZM361.398 103.977C359.602 103.977 358.784 102.432 358.784 100.682C358.784 98.9318 359.602 97.3636 361.398 97.3636C363.193 97.3636 364.011 98.9318 364.011 100.682C364.011 102.432 363.193 103.977 361.398 103.977ZM372.899 101.432C372.899 103.068 371.649 103.818 370.649 103.818C369.536 103.818 368.74 103 368.74 101.727V96.2727H367.399V101.818C367.399 104.045 368.581 105.114 370.217 105.114C371.536 105.114 372.399 104.409 372.808 103.523H372.899V105H374.24V96.2727H372.899V101.432ZM376.696 108.273H378.037V103.659H378.151C378.446 104.136 379.014 105.182 380.696 105.182C382.878 105.182 384.401 103.432 384.401 100.659C384.401 97.9091 382.878 96.1591 380.673 96.1591C378.969 96.1591 378.446 97.2045 378.151 97.6591H377.991V96.2727H376.696V108.273ZM378.014 100.636C378.014 98.6818 378.878 97.3636 380.514 97.3636C382.219 97.3636 383.06 98.7955 383.06 100.636C383.06 102.5 382.196 103.977 380.514 103.977C378.901 103.977 378.014 102.614 378.014 100.636ZM392.628 98.2273C392.207 96.9886 391.264 96.1591 389.537 96.1591C387.696 96.1591 386.332 97.2045 386.332 98.6818C386.332 99.8864 387.048 100.693 388.651 101.068L390.105 101.409C390.986 101.614 391.401 102.034 391.401 102.636C391.401 103.386 390.605 104 389.355 104C388.259 104 387.571 103.528 387.332 102.591L386.06 102.909C386.372 104.392 387.594 105.182 389.378 105.182C391.406 105.182 392.787 104.074 392.787 102.568C392.787 101.352 392.026 100.585 390.469 100.205L389.173 99.8864C388.139 99.6307 387.673 99.2841 387.673 98.6136C387.673 97.8636 388.469 97.3182 389.537 97.3182C390.707 97.3182 391.19 97.9659 391.423 98.5682L392.628 98.2273ZM143.409 119.364V131H144.727V122.159H144.841L148.477 131H149.75L153.386 122.159H153.5V131H154.818V119.364H153.136L149.182 129.023H149.045L145.091 119.364H143.409ZM161.007 131.182C163.371 131.182 164.962 129.386 164.962 126.682C164.962 123.955 163.371 122.159 161.007 122.159C158.643 122.159 157.053 123.955 157.053 126.682C157.053 129.386 158.643 131.182 161.007 131.182ZM161.007 129.977C159.212 129.977 158.393 128.432 158.393 126.682C158.393 124.932 159.212 123.364 161.007 123.364C162.803 123.364 163.621 124.932 163.621 126.682C163.621 128.432 162.803 129.977 161.007 129.977ZM170.304 131.182C171.986 131.182 172.554 130.136 172.849 129.659H173.009V131H174.304V119.364H172.963V123.659H172.849C172.554 123.205 172.031 122.159 170.327 122.159C168.122 122.159 166.599 123.909 166.599 126.659C166.599 129.432 168.122 131.182 170.304 131.182ZM170.486 129.977C168.804 129.977 167.94 128.5 167.94 126.636C167.94 124.795 168.781 123.364 170.486 123.364C172.122 123.364 172.986 124.682 172.986 126.636C172.986 128.614 172.099 129.977 170.486 129.977ZM182.446 127.432C182.446 129.068 181.196 129.818 180.196 129.818C179.082 129.818 178.287 129 178.287 127.727V122.273H176.946V127.818C176.946 130.045 178.128 131.114 179.764 131.114C181.082 131.114 181.946 130.409 182.355 129.523H182.446V131H183.787V122.273H182.446V127.432ZM187.584 119.364H186.243V131H187.584V119.364ZM193.699 131.182C195.472 131.182 196.767 130.295 197.176 128.977L195.881 128.614C195.54 129.523 194.75 129.977 193.699 129.977C192.125 129.977 191.04 128.96 190.977 127.091H197.312V126.523C197.312 123.273 195.381 122.159 193.562 122.159C191.199 122.159 189.631 124.023 189.631 126.705C189.631 129.386 191.176 131.182 193.699 131.182ZM190.977 125.932C191.068 124.574 192.028 123.364 193.562 123.364C195.017 123.364 195.949 124.455 195.949 125.932H190.977ZM200.33 131.091C200.892 131.091 201.352 130.631 201.352 130.068C201.352 129.506 200.892 129.045 200.33 129.045C199.767 129.045 199.307 129.506 199.307 130.068C199.307 130.631 199.767 131.091 200.33 131.091ZM210.554 131H212.009L214.577 121.727H214.668L217.236 131H218.69L221.872 119.364H220.44L218.009 128.841H217.895L215.418 119.364H213.827L211.349 128.841H211.236L208.804 119.364H207.372L210.554 131ZM226.293 131.182C228.065 131.182 229.361 130.295 229.77 128.977L228.474 128.614C228.134 129.523 227.344 129.977 226.293 129.977C224.719 129.977 223.634 128.96 223.571 127.091H229.906V126.523C229.906 123.273 227.974 122.159 226.156 122.159C223.793 122.159 222.224 124.023 222.224 126.705C222.224 129.386 223.77 131.182 226.293 131.182ZM223.571 125.932C223.662 124.574 224.622 123.364 226.156 123.364C227.611 123.364 228.543 124.455 228.543 125.932H223.571ZM239.014 131.205C240.537 131.205 241.332 130.386 241.605 129.818H241.673V131H243.014V125.25C243.014 122.477 240.901 122.159 239.787 122.159C238.469 122.159 236.969 122.614 236.287 124.205L237.56 124.659C237.855 124.023 238.554 123.341 239.832 123.341C241.065 123.341 241.673 123.994 241.673 125.114V125.159C241.673 125.807 241.014 125.75 239.423 125.955C237.804 126.165 236.037 126.523 236.037 128.523C236.037 130.227 237.355 131.205 239.014 131.205ZM239.219 130C238.151 130 237.378 129.523 237.378 128.591C237.378 127.568 238.31 127.25 239.355 127.114C239.923 127.045 241.446 126.886 241.673 126.614V127.841C241.673 128.932 240.81 130 239.219 130ZM246.803 119.364H245.462V131H246.803V119.364ZM249.259 131H250.599V125.477C250.599 124.295 251.531 123.432 252.804 123.432C253.162 123.432 253.531 123.5 253.622 123.523V122.159C253.469 122.148 253.116 122.136 252.918 122.136C251.872 122.136 250.963 122.727 250.645 123.591H250.554V122.273H249.259V131ZM258.605 131.182C260.378 131.182 261.673 130.295 262.082 128.977L260.787 128.614C260.446 129.523 259.656 129.977 258.605 129.977C257.031 129.977 255.946 128.96 255.884 127.091H262.219V126.523C262.219 123.273 260.287 122.159 258.469 122.159C256.105 122.159 254.537 124.023 254.537 126.705C254.537 129.386 256.082 131.182 258.605 131.182ZM255.884 125.932C255.974 124.574 256.935 123.364 258.469 123.364C259.923 123.364 260.855 124.455 260.855 125.932H255.884ZM266.827 131.205C268.349 131.205 269.145 130.386 269.418 129.818H269.486V131H270.827V125.25C270.827 122.477 268.713 122.159 267.599 122.159C266.281 122.159 264.781 122.614 264.099 124.205L265.372 124.659C265.668 124.023 266.366 123.341 267.645 123.341C268.878 123.341 269.486 123.994 269.486 125.114V125.159C269.486 125.807 268.827 125.75 267.236 125.955C265.616 126.165 263.849 126.523 263.849 128.523C263.849 130.227 265.168 131.205 266.827 131.205ZM267.031 130C265.963 130 265.19 129.523 265.19 128.591C265.19 127.568 266.122 127.25 267.168 127.114C267.736 127.045 269.259 126.886 269.486 126.614V127.841C269.486 128.932 268.622 130 267.031 130ZM276.57 131.182C278.251 131.182 278.82 130.136 279.115 129.659H279.274V131H280.57V119.364H279.229V123.659H279.115C278.82 123.205 278.297 122.159 276.592 122.159C274.388 122.159 272.865 123.909 272.865 126.659C272.865 129.432 274.388 131.182 276.57 131.182ZM276.751 129.977C275.07 129.977 274.206 128.5 274.206 126.636C274.206 124.795 275.047 123.364 276.751 123.364C278.388 123.364 279.251 124.682 279.251 126.636C279.251 128.614 278.365 129.977 276.751 129.977ZM284.075 134.273C285.286 134.273 286.138 133.631 286.643 132.273L290.359 122.295L288.893 122.273L286.484 129.227H286.393L283.984 122.273H282.53L285.757 131.045L285.507 131.727C285.018 133.057 284.416 133.182 283.439 132.932L283.098 134.114C283.234 134.182 283.621 134.273 284.075 134.273ZM300.179 131.182C302.111 131.182 303.384 130 303.611 128.455H302.27C302.02 129.409 301.224 129.977 300.179 129.977C298.588 129.977 297.565 128.659 297.565 126.636C297.565 124.659 298.611 123.364 300.179 123.364C301.361 123.364 302.065 124.091 302.27 124.886H303.611C303.384 123.25 301.997 122.159 300.156 122.159C297.793 122.159 296.224 124.023 296.224 126.682C296.224 129.295 297.724 131.182 300.179 131.182ZM305.571 131H306.912V125.477C306.912 124.295 307.844 123.432 309.116 123.432C309.474 123.432 309.844 123.5 309.935 123.523V122.159C309.781 122.148 309.429 122.136 309.23 122.136C308.185 122.136 307.276 122.727 306.957 123.591H306.866V122.273H305.571V131ZM314.918 131.182C316.69 131.182 317.986 130.295 318.395 128.977L317.099 128.614C316.759 129.523 315.969 129.977 314.918 129.977C313.344 129.977 312.259 128.96 312.196 127.091H318.531V126.523C318.531 123.273 316.599 122.159 314.781 122.159C312.418 122.159 310.849 124.023 310.849 126.705C310.849 129.386 312.395 131.182 314.918 131.182ZM312.196 125.932C312.287 124.574 313.247 123.364 314.781 123.364C316.236 123.364 317.168 124.455 317.168 125.932H312.196ZM323.139 131.205C324.662 131.205 325.457 130.386 325.73 129.818H325.798V131H327.139V125.25C327.139 122.477 325.026 122.159 323.912 122.159C322.594 122.159 321.094 122.614 320.412 124.205L321.685 124.659C321.98 124.023 322.679 123.341 323.957 123.341C325.19 123.341 325.798 123.994 325.798 125.114V125.159C325.798 125.807 325.139 125.75 323.548 125.955C321.929 126.165 320.162 126.523 320.162 128.523C320.162 130.227 321.48 131.205 323.139 131.205ZM323.344 130C322.276 130 321.503 129.523 321.503 128.591C321.503 127.568 322.435 127.25 323.48 127.114C324.048 127.045 325.571 126.886 325.798 126.614V127.841C325.798 128.932 324.935 130 323.344 130ZM333.382 122.273H331.518V120.182H330.178V122.273H328.859V123.409H330.178V128.864C330.178 130.386 331.405 131.114 332.541 131.114C333.041 131.114 333.359 131.023 333.541 130.955L333.268 129.75C333.155 129.773 332.973 129.818 332.678 129.818C332.087 129.818 331.518 129.636 331.518 128.5V123.409H333.382V122.273ZM338.964 131.182C340.737 131.182 342.033 130.295 342.442 128.977L341.146 128.614C340.805 129.523 340.016 129.977 338.964 129.977C337.391 129.977 336.305 128.96 336.243 127.091H342.578V126.523C342.578 123.273 340.646 122.159 338.828 122.159C336.464 122.159 334.896 124.023 334.896 126.705C334.896 129.386 336.442 131.182 338.964 131.182ZM336.243 125.932C336.334 124.574 337.294 123.364 338.828 123.364C340.283 123.364 341.214 124.455 341.214 125.932H336.243ZM347.913 131.182C349.595 131.182 350.163 130.136 350.459 129.659H350.618V131H351.913V119.364H350.572V123.659H350.459C350.163 123.205 349.641 122.159 347.936 122.159C345.732 122.159 344.209 123.909 344.209 126.659C344.209 129.432 345.732 131.182 347.913 131.182ZM348.095 129.977C346.413 129.977 345.55 128.5 345.55 126.636C345.55 124.795 346.391 123.364 348.095 123.364C349.732 123.364 350.595 124.682 350.595 126.636C350.595 128.614 349.709 129.977 348.095 129.977ZM362.964 131.159C365.22 131.159 366.896 129.744 366.896 127.841C366.896 126.364 366.021 125.29 364.555 125.045V124.955C365.732 124.597 366.464 123.631 366.464 122.318C366.464 120.67 365.163 119.205 363.01 119.205C360.999 119.205 359.328 120.443 359.26 122.273H360.624C360.675 121.114 361.777 120.432 362.987 120.432C364.271 120.432 365.101 121.21 365.101 122.386C365.101 123.614 364.141 124.409 362.76 124.409H361.828V125.659H362.76C364.527 125.659 365.51 126.557 365.51 127.841C365.51 129.074 364.436 129.909 362.942 129.909C361.595 129.909 360.527 129.216 360.442 128.091H359.01C359.095 129.92 360.709 131.159 362.964 131.159ZM373.743 131H375.084V125.545C375.084 124.267 376.016 123.364 377.061 123.364C378.078 123.364 378.788 124.028 378.788 125.023V131H380.152V125.318C380.152 124.193 380.857 123.364 382.084 123.364C383.038 123.364 383.857 123.869 383.857 125.159V131H385.197V125.159C385.197 123.108 384.095 122.159 382.538 122.159C381.288 122.159 380.374 122.733 379.925 123.636H379.834C379.402 122.705 378.641 122.159 377.493 122.159C376.357 122.159 375.516 122.705 375.152 123.636H375.038V122.273H373.743V131ZM391.195 131.182C393.558 131.182 395.149 129.386 395.149 126.682C395.149 123.955 393.558 122.159 391.195 122.159C388.831 122.159 387.24 123.955 387.24 126.682C387.24 129.386 388.831 131.182 391.195 131.182ZM391.195 129.977C389.399 129.977 388.581 128.432 388.581 126.682C388.581 124.932 389.399 123.364 391.195 123.364C392.99 123.364 393.808 124.932 393.808 126.682C393.808 128.432 392.99 129.977 391.195 129.977ZM400.491 131.182C402.173 131.182 402.741 130.136 403.037 129.659H403.196V131H404.491V119.364H403.151V123.659H403.037C402.741 123.205 402.219 122.159 400.514 122.159C398.31 122.159 396.787 123.909 396.787 126.659C396.787 129.432 398.31 131.182 400.491 131.182ZM400.673 129.977C398.991 129.977 398.128 128.5 398.128 126.636C398.128 124.795 398.969 123.364 400.673 123.364C402.31 123.364 403.173 124.682 403.173 126.636C403.173 128.614 402.287 129.977 400.673 129.977ZM412.634 127.432C412.634 129.068 411.384 129.818 410.384 129.818C409.27 129.818 408.474 129 408.474 127.727V122.273H407.134V127.818C407.134 130.045 408.315 131.114 409.952 131.114C411.27 131.114 412.134 130.409 412.543 129.523H412.634V131H413.974V122.273H412.634V127.432ZM417.771 119.364H416.43V131H417.771V119.364ZM423.886 131.182C425.659 131.182 426.955 130.295 427.364 128.977L426.068 128.614C425.727 129.523 424.938 129.977 423.886 129.977C422.312 129.977 421.227 128.96 421.165 127.091H427.5V126.523C427.5 123.273 425.568 122.159 423.75 122.159C421.386 122.159 419.818 124.023 419.818 126.705C419.818 129.386 421.364 131.182 423.886 131.182ZM421.165 125.932C421.256 124.574 422.216 123.364 423.75 123.364C425.205 123.364 426.136 124.455 426.136 125.932H421.165ZM435.722 124.227C435.301 122.989 434.358 122.159 432.631 122.159C430.79 122.159 429.426 123.205 429.426 124.682C429.426 125.886 430.142 126.693 431.744 127.068L433.199 127.409C434.08 127.614 434.494 128.034 434.494 128.636C434.494 129.386 433.699 130 432.449 130C431.352 130 430.665 129.528 430.426 128.591L429.153 128.909C429.466 130.392 430.688 131.182 432.472 131.182C434.5 131.182 435.881 130.074 435.881 128.568C435.881 127.352 435.119 126.585 433.562 126.205L432.267 125.886C431.233 125.631 430.767 125.284 430.767 124.614C430.767 123.864 431.562 123.318 432.631 123.318C433.801 123.318 434.284 123.966 434.517 124.568L435.722 124.227ZM438.876 131.091C439.439 131.091 439.899 130.631 439.899 130.068C439.899 129.506 439.439 129.045 438.876 129.045C438.314 129.045 437.854 129.506 437.854 130.068C437.854 130.631 438.314 131.091 438.876 131.091ZM144.818 145.364H143.409V157H144.818V145.364ZM151.257 148.273H149.393V146.182H148.053V148.273H146.734V149.409H148.053V154.864C148.053 156.386 149.28 157.114 150.416 157.114C150.916 157.114 151.234 157.023 151.416 156.955L151.143 155.75C151.03 155.773 150.848 155.818 150.553 155.818C149.962 155.818 149.393 155.636 149.393 154.5V149.409H151.257V148.273ZM154.433 145.364H153.183V149.364H154.433V145.364ZM163.003 150.227C162.582 148.989 161.639 148.159 159.912 148.159C158.071 148.159 156.707 149.205 156.707 150.682C156.707 151.886 157.423 152.693 159.026 153.068L160.48 153.409C161.361 153.614 161.776 154.034 161.776 154.636C161.776 155.386 160.98 156 159.73 156C158.634 156 157.946 155.528 157.707 154.591L156.435 154.909C156.747 156.392 157.969 157.182 159.753 157.182C161.781 157.182 163.162 156.074 163.162 154.568C163.162 153.352 162.401 152.585 160.844 152.205L159.548 151.886C158.514 151.631 158.048 151.284 158.048 150.614C158.048 149.864 158.844 149.318 159.912 149.318C161.082 149.318 161.565 149.966 161.798 150.568L163.003 150.227ZM169.862 157H171.158V155.659H171.317C171.612 156.136 172.18 157.182 173.862 157.182C176.044 157.182 177.567 155.432 177.567 152.659C177.567 149.909 176.044 148.159 173.839 148.159C172.135 148.159 171.612 149.205 171.317 149.659H171.203V145.364H169.862V157ZM171.18 152.636C171.18 150.682 172.044 149.364 173.68 149.364C175.385 149.364 176.226 150.795 176.226 152.636C176.226 154.5 175.362 155.977 173.68 155.977C172.067 155.977 171.18 154.614 171.18 152.636ZM180.169 160.273C181.379 160.273 182.232 159.631 182.737 158.273L186.453 148.295L184.987 148.273L182.578 155.227H182.487L180.078 148.273H178.624L181.851 157.045L181.601 157.727C181.112 159.057 180.51 159.182 179.533 158.932L179.192 160.114C179.328 160.182 179.714 160.273 180.169 160.273ZM196.023 157.182C197.705 157.182 198.273 156.136 198.568 155.659H198.727V157H200.023V145.364H198.682V149.659H198.568C198.273 149.205 197.75 148.159 196.045 148.159C193.841 148.159 192.318 149.909 192.318 152.659C192.318 155.432 193.841 157.182 196.023 157.182ZM196.205 155.977C194.523 155.977 193.659 154.5 193.659 152.636C193.659 150.795 194.5 149.364 196.205 149.364C197.841 149.364 198.705 150.682 198.705 152.636C198.705 154.614 197.818 155.977 196.205 155.977ZM202.665 157H204.006V151.477C204.006 150.295 204.938 149.432 206.21 149.432C206.568 149.432 206.938 149.5 207.028 149.523V148.159C206.875 148.148 206.523 148.136 206.324 148.136C205.278 148.136 204.369 148.727 204.051 149.591H203.96V148.273H202.665V157ZM211.186 157.205C212.709 157.205 213.504 156.386 213.777 155.818H213.845V157H215.186V151.25C215.186 148.477 213.072 148.159 211.959 148.159C210.641 148.159 209.141 148.614 208.459 150.205L209.732 150.659C210.027 150.023 210.726 149.341 212.004 149.341C213.237 149.341 213.845 149.994 213.845 151.114V151.159C213.845 151.807 213.186 151.75 211.595 151.955C209.976 152.165 208.209 152.523 208.209 154.523C208.209 156.227 209.527 157.205 211.186 157.205ZM211.391 156C210.322 156 209.55 155.523 209.55 154.591C209.55 153.568 210.482 153.25 211.527 153.114C212.095 153.045 213.618 152.886 213.845 152.614V153.841C213.845 154.932 212.982 156 211.391 156ZM221.156 160.455C223.247 160.455 224.929 159.5 224.929 157.25V148.273H223.634V149.659H223.497C223.202 149.205 222.656 148.159 220.952 148.159C218.747 148.159 217.224 149.909 217.224 152.591C217.224 155.318 218.815 156.864 220.929 156.864C222.634 156.864 223.179 155.864 223.474 155.386H223.588V157.159C223.588 158.614 222.565 159.273 221.156 159.273C219.571 159.273 219.014 158.438 218.656 157.955L217.588 158.705C218.134 159.619 219.207 160.455 221.156 160.455ZM221.111 155.659C219.429 155.659 218.565 154.386 218.565 152.568C218.565 150.795 219.406 149.364 221.111 149.364C222.747 149.364 223.611 150.682 223.611 152.568C223.611 154.5 222.724 155.659 221.111 155.659ZM235.179 157.159C236.247 157.159 237.44 156.784 238.196 156.011L239.02 157H240.634L239.026 155.04C239.463 154.477 239.952 153.534 239.952 151.909H238.656C238.656 152.705 238.474 153.409 238.173 153.994L235.645 150.909L236.497 150.273C237.452 149.568 238.043 148.795 238.043 147.682C238.043 146.386 236.974 145.25 235.224 145.25C233.52 145.25 232.406 146.318 232.406 147.886C232.406 148.92 232.969 149.716 233.77 150.682C232.412 151.625 231.474 152.5 231.474 153.909C231.474 155.795 232.884 157.159 235.179 157.159ZM237.395 155.04C236.753 155.642 235.94 155.977 235.134 155.977C233.747 155.977 232.838 155 232.838 153.909C232.838 153.591 233.134 152.773 234.179 152L234.611 151.682L237.395 155.04ZM234.821 149.909C234.253 149.216 233.77 148.557 233.77 147.909C233.77 147.182 234.384 146.409 235.27 146.409C236.111 146.409 236.679 147.091 236.679 147.682C236.679 148.477 236.247 148.909 235.588 149.341L234.821 149.909ZM249.913 157.182C251.595 157.182 252.163 156.136 252.459 155.659H252.618V157H253.913V145.364H252.572V149.659H252.459C252.163 149.205 251.641 148.159 249.936 148.159C247.732 148.159 246.209 149.909 246.209 152.659C246.209 155.432 247.732 157.182 249.913 157.182ZM250.095 155.977C248.413 155.977 247.55 154.5 247.55 152.636C247.55 150.795 248.391 149.364 250.095 149.364C251.732 149.364 252.595 150.682 252.595 152.636C252.595 154.614 251.709 155.977 250.095 155.977ZM256.555 157H257.896V151.477C257.896 150.295 258.828 149.432 260.101 149.432C260.459 149.432 260.828 149.5 260.919 149.523V148.159C260.766 148.148 260.413 148.136 260.214 148.136C259.169 148.136 258.26 148.727 257.942 149.591H257.851V148.273H256.555V157ZM265.788 157.182C268.152 157.182 269.743 155.386 269.743 152.682C269.743 149.955 268.152 148.159 265.788 148.159C263.425 148.159 261.834 149.955 261.834 152.682C261.834 155.386 263.425 157.182 265.788 157.182ZM265.788 155.977C263.993 155.977 263.175 154.432 263.175 152.682C263.175 150.932 263.993 149.364 265.788 149.364C267.584 149.364 268.402 150.932 268.402 152.682C268.402 154.432 267.584 155.977 265.788 155.977ZM271.79 160.273H273.131V155.659H273.244C273.54 156.136 274.108 157.182 275.79 157.182C277.972 157.182 279.494 155.432 279.494 152.659C279.494 149.909 277.972 148.159 275.767 148.159C274.062 148.159 273.54 149.205 273.244 149.659H273.085V148.273H271.79V160.273ZM273.108 152.636C273.108 150.682 273.972 149.364 275.608 149.364C277.312 149.364 278.153 150.795 278.153 152.636C278.153 154.5 277.29 155.977 275.608 155.977C273.994 155.977 273.108 154.614 273.108 152.636ZM287.381 145.364H286.04V157H287.381V145.364ZM289.837 157H291.178V148.273H289.837V157ZM290.518 146.818C291.041 146.818 291.473 146.409 291.473 145.909C291.473 145.409 291.041 145 290.518 145C289.996 145 289.564 145.409 289.564 145.909C289.564 146.409 289.996 146.818 290.518 146.818ZM300.77 148.273H299.315L296.906 155.227H296.815L294.406 148.273H292.952L296.179 157H297.543L300.77 148.273ZM305.886 157.182C307.659 157.182 308.955 156.295 309.364 154.977L308.068 154.614C307.727 155.523 306.938 155.977 305.886 155.977C304.312 155.977 303.227 154.96 303.165 153.091H309.5V152.523C309.5 149.273 307.568 148.159 305.75 148.159C303.386 148.159 301.818 150.023 301.818 152.705C301.818 155.386 303.364 157.182 305.886 157.182ZM303.165 151.932C303.256 150.574 304.216 149.364 305.75 149.364C307.205 149.364 308.136 150.455 308.136 151.932H303.165ZM316.222 157H317.517V155.659H317.676C317.972 156.136 318.54 157.182 320.222 157.182C322.403 157.182 323.926 155.432 323.926 152.659C323.926 149.909 322.403 148.159 320.199 148.159C318.494 148.159 317.972 149.205 317.676 149.659H317.562V145.364H316.222V157ZM317.54 152.636C317.54 150.682 318.403 149.364 320.04 149.364C321.744 149.364 322.585 150.795 322.585 152.636C322.585 154.5 321.722 155.977 320.04 155.977C318.426 155.977 317.54 154.614 317.54 152.636ZM331.477 153.432C331.477 155.068 330.227 155.818 329.227 155.818C328.114 155.818 327.318 155 327.318 153.727V148.273H325.977V153.818C325.977 156.045 327.159 157.114 328.795 157.114C330.114 157.114 330.977 156.409 331.386 155.523H331.477V157H332.818V148.273H331.477V153.432ZM335.274 157H336.615V148.273H335.274V157ZM335.956 146.818C336.479 146.818 336.911 146.409 336.911 145.909C336.911 145.409 336.479 145 335.956 145C335.433 145 335.001 145.409 335.001 145.909C335.001 146.409 335.433 146.818 335.956 146.818ZM340.412 145.364H339.071V157H340.412V145.364ZM346.163 157.182C347.845 157.182 348.413 156.136 348.709 155.659H348.868V157H350.163V145.364H348.822V149.659H348.709C348.413 149.205 347.891 148.159 346.186 148.159C343.982 148.159 342.459 149.909 342.459 152.659C342.459 155.432 343.982 157.182 346.163 157.182ZM346.345 155.977C344.663 155.977 343.8 154.5 343.8 152.636C343.8 150.795 344.641 149.364 346.345 149.364C347.982 149.364 348.845 150.682 348.845 152.636C348.845 154.614 347.959 155.977 346.345 155.977ZM356.464 157.182C358.237 157.182 359.533 156.295 359.942 154.977L358.646 154.614C358.305 155.523 357.516 155.977 356.464 155.977C354.891 155.977 353.805 154.96 353.743 153.091H360.078V152.523C360.078 149.273 358.146 148.159 356.328 148.159C353.964 148.159 352.396 150.023 352.396 152.705C352.396 155.386 353.942 157.182 356.464 157.182ZM353.743 151.932C353.834 150.574 354.794 149.364 356.328 149.364C357.783 149.364 358.714 150.455 358.714 151.932H353.743ZM362.118 157H363.459V151.477C363.459 150.295 364.391 149.432 365.663 149.432C366.021 149.432 366.391 149.5 366.482 149.523V148.159C366.328 148.148 365.976 148.136 365.777 148.136C364.732 148.136 363.822 148.727 363.504 149.591H363.413V148.273H362.118V157ZM368.048 157.091C368.611 157.091 369.071 156.631 369.071 156.068C369.071 155.506 368.611 155.045 368.048 155.045C367.486 155.045 367.026 155.506 367.026 156.068C367.026 156.631 367.486 157.091 368.048 157.091Z" fill="#656464"/>
<path d="M158.662 56.4347C158.125 52.5568 155.142 50.3068 151.273 50.3068C146.713 50.3068 143.278 53.6307 143.278 59.2727C143.278 64.9062 146.67 68.2386 151.273 68.2386C155.423 68.2386 158.176 65.554 158.662 62.2216L155.474 62.2045C155.074 64.25 153.403 65.4006 151.315 65.4006C148.486 65.4006 146.457 63.2784 146.457 59.2727C146.457 55.3352 148.469 53.1449 151.324 53.1449C153.446 53.1449 155.108 54.3466 155.474 56.4347H158.662ZM169.765 62.4943C169.765 64.4886 168.342 65.4773 166.978 65.4773C165.495 65.4773 164.506 64.429 164.506 62.767V54.9091H161.421V63.2443C161.421 66.3892 163.211 68.1705 165.785 68.1705C167.745 68.1705 169.126 67.1392 169.722 65.6733H169.859V68H172.85V54.9091H169.765V62.4943ZM186.369 58.3693C185.943 56.1534 184.17 54.7386 181.102 54.7386C177.949 54.7386 175.801 56.2898 175.81 58.7102C175.801 60.6193 176.977 61.8807 179.491 62.4006L181.724 62.8693C182.926 63.1335 183.489 63.6193 183.489 64.3608C183.489 65.2557 182.517 65.929 181.051 65.929C179.636 65.929 178.716 65.3153 178.452 64.1392L175.443 64.429C175.827 66.8324 177.847 68.2557 181.06 68.2557C184.332 68.2557 186.642 66.5597 186.651 64.0795C186.642 62.2131 185.44 61.071 182.969 60.5341L180.736 60.0568C179.406 59.7585 178.878 59.2983 178.886 58.5398C178.878 57.6534 179.858 57.0398 181.145 57.0398C182.568 57.0398 183.318 57.8153 183.557 58.6761L186.369 58.3693ZM195.732 54.9091H193.149V51.7727H190.064V54.9091H188.206V57.2955H190.064V64.5739C190.047 67.0369 191.837 68.2472 194.155 68.179C195.033 68.1534 195.638 67.983 195.97 67.8722L195.45 65.4602C195.28 65.5028 194.93 65.5795 194.547 65.5795C193.771 65.5795 193.149 65.3068 193.149 64.0625V57.2955H195.732V54.9091ZM203.881 68.2557C207.717 68.2557 210.154 65.554 210.154 61.5057C210.154 57.4489 207.717 54.7386 203.881 54.7386C200.046 54.7386 197.609 57.4489 197.609 61.5057C197.609 65.554 200.046 68.2557 203.881 68.2557ZM203.898 65.7841C201.776 65.7841 200.737 63.892 200.737 61.4972C200.737 59.1023 201.776 57.1847 203.898 57.1847C205.987 57.1847 207.026 59.1023 207.026 61.4972C207.026 63.892 205.987 65.7841 203.898 65.7841ZM212.773 68H215.858V60.0398C215.858 58.429 216.932 57.3381 218.261 57.3381C219.565 57.3381 220.46 58.2159 220.46 59.5625V68H223.486V59.8352C223.486 58.3608 224.364 57.3381 225.855 57.3381C227.099 57.3381 228.088 58.071 228.088 59.6903V68H231.182V59.2131C231.182 56.2898 229.494 54.7386 227.091 54.7386C225.19 54.7386 223.741 55.6761 223.162 57.1335H223.026C222.523 55.6506 221.253 54.7386 219.489 54.7386C217.733 54.7386 216.42 55.642 215.875 57.1335H215.722V54.9091H212.773V68ZM240.401 50.5455V68H243.435V55.983H243.597L248.421 67.9489H250.688L255.512 56.0085H255.674V68H258.708V50.5455H254.839L249.657 63.1932H249.452L244.271 50.5455H240.401ZM267.725 68.2557C271.56 68.2557 273.998 65.554 273.998 61.5057C273.998 57.4489 271.56 54.7386 267.725 54.7386C263.89 54.7386 261.452 57.4489 261.452 61.5057C261.452 65.554 263.89 68.2557 267.725 68.2557ZM267.742 65.7841C265.62 65.7841 264.58 63.892 264.58 61.4972C264.58 59.1023 265.62 57.1847 267.742 57.1847C269.83 57.1847 270.87 59.1023 270.87 61.4972C270.87 63.892 269.83 65.7841 267.742 65.7841ZM281.474 68.2301C283.724 68.2301 284.739 66.892 285.224 65.9375H285.412V68H288.446V50.5455H285.352V57.0739H285.224C284.756 56.1278 283.793 54.7386 281.483 54.7386C278.457 54.7386 276.08 57.108 276.08 61.4716C276.08 65.7841 278.389 68.2301 281.474 68.2301ZM282.335 65.6989C280.298 65.6989 279.224 63.9091 279.224 61.4545C279.224 59.017 280.281 57.2699 282.335 57.2699C284.321 57.2699 285.412 58.9148 285.412 61.4545C285.412 63.9943 284.304 65.6989 282.335 65.6989ZM300.077 62.4943C300.077 64.4886 298.654 65.4773 297.29 65.4773C295.808 65.4773 294.819 64.429 294.819 62.767V54.9091H291.734V63.2443C291.734 66.3892 293.523 68.1705 296.097 68.1705C298.058 68.1705 299.438 67.1392 300.035 65.6733H300.171V68H303.163V54.9091H300.077V62.4943ZM309.42 50.5455H306.335V68H309.42V50.5455ZM318.388 68.2557C321.44 68.2557 323.536 66.7642 324.082 64.4886L321.201 64.1648C320.783 65.2727 319.761 65.8523 318.431 65.8523C316.437 65.8523 315.116 64.5398 315.09 62.2983H324.21V61.3523C324.21 56.7585 321.448 54.7386 318.227 54.7386C314.477 54.7386 312.031 57.4915 312.031 61.5312C312.031 65.6392 314.442 68.2557 318.388 68.2557ZM315.099 60.2188C315.192 58.5483 316.428 57.142 318.269 57.142C320.042 57.142 321.235 58.4375 321.252 60.2188H315.099Z" fill="#2F2C4A"/>
<defs>
<filter id="filter0_d_5_1287" x="20" y="30" width="106" height="106" filterUnits="userSpaceOnUse" color-interpolation-filters="sRGB">
<feFlood flood-opacity="0" result="BackgroundImageFix"/>
<feColorMatrix in="SourceAlpha" type="matrix" values="0 0 0 0 0 0 0 0 0 0 0 0 0 0 0 0 0 0 127 0" result="hardAlpha"/>
<feMorphology radius="2" operator="erode" in="SourceAlpha" result="effect1_dropShadow_5_1287"/>
<feOffset dy="10"/>
<feGaussianBlur stdDeviation="11"/>
<feColorMatrix type="matrix" values="0 0 0 0 0.427083 0 0 0 0 0.671455 0 0 0 0 1 0 0 0 0.36 0"/>
<feBlend mode="normal" in2="BackgroundImageFix" result="effect1_dropShadow_5_1287"/>
<feBlend mode="normal" in="SourceGraphic" in2="effect1_dropShadow_5_1287" result="shape"/>
</filter>
<linearGradient id="paint0_linear_5_1287" x1="53.5" y1="40" x2="85" y2="106" gradientUnits="userSpaceOnUse">
<stop stop-color="#5CA1FE"/>
<stop offset="1" stop-color="#217BF4"/>
</linearGradient>
</defs>
</svg>
