<svg width="522" height="182" viewBox="0 0 522 182" fill="none" xmlns="http://www.w3.org/2000/svg">
<rect width="522" height="182" rx="14" fill="white"/>
<g filter="url(#filter0_d_5_1257)">
<rect x="40" y="40" width="66" height="66" rx="24" fill="url(#paint0_linear_5_1257)"/>
</g>
<path d="M90 69.9332V79.523C89.9992 80.2164 89.7234 80.8812 89.2331 81.3715C88.7428 81.8618 88.078 82.1376 87.3846 82.1383H86.5128V85.6255C86.5127 85.7912 86.4654 85.9535 86.3765 86.0933C86.2875 86.2331 86.1606 86.3447 86.0106 86.415C85.8605 86.4853 85.6936 86.5114 85.5292 86.4902C85.3649 86.4691 85.2099 86.4016 85.0826 86.2956L80.0944 82.1383H71.6923C70.9989 82.1376 70.3341 81.8618 69.8438 81.3715C69.3535 80.8812 69.0777 80.2164 69.0769 79.523V78.6512H77.7949C78.9505 78.6498 80.0585 78.1901 80.8756 77.3729C81.6928 76.5558 82.1525 75.4478 82.1538 74.2922V67.3178H87.3846C88.078 67.3186 88.7428 67.5944 89.2331 68.0847C89.7234 68.575 89.9992 69.2398 90 69.9332ZM77.7949 76.9076H65.9908L61.0205 82.705C60.9046 82.8401 60.7501 82.9364 60.5778 82.9811C60.4055 83.0258 60.2237 83.0166 60.0568 82.9549C59.8898 82.8932 59.7458 82.7819 59.6439 82.6359C59.5421 82.49 59.4874 82.3163 59.4872 82.1383V76.9076H58.6154C57.922 76.9068 57.2572 76.631 56.7669 76.1407C56.2766 75.6504 56.0008 74.9856 56 74.2922V62.0871C56.0008 61.3937 56.2766 60.7289 56.7669 60.2385C57.2572 59.7482 57.922 59.4724 58.6154 59.4717H77.7949C78.4883 59.4724 79.1531 59.7482 79.6434 60.2385C80.1337 60.7289 80.4095 61.3937 80.4103 62.0871V74.2922C80.4095 74.9856 80.1337 75.6504 79.6434 76.1407C79.1531 76.631 78.4883 76.9068 77.7949 76.9076ZM75.1795 69.9332C75.1795 69.702 75.0876 69.4803 74.9241 69.3168C74.7607 69.1533 74.5389 69.0614 74.3077 69.0614H62.1026C61.8713 69.0614 61.6496 69.1533 61.4861 69.3168C61.3226 69.4803 61.2308 69.702 61.2308 69.9332C61.2308 70.1644 61.3226 70.3862 61.4861 70.5497C61.6496 70.7132 61.8713 70.805 62.1026 70.805H74.3077C74.5389 70.805 74.7607 70.7132 74.9241 70.5497C75.0876 70.3862 75.1795 70.1644 75.1795 69.9332ZM75.1795 65.5742C75.1795 65.343 75.0876 65.1213 74.9241 64.9578C74.7607 64.7943 74.5389 64.7024 74.3077 64.7024H62.1026C61.8713 64.7024 61.6496 64.7943 61.4861 64.9578C61.3226 65.1213 61.2308 65.343 61.2308 65.5742C61.2308 65.8055 61.3226 66.0272 61.4861 66.1907C61.6496 66.3542 61.8713 66.446 62.1026 66.446H74.3077C74.5389 66.446 74.7607 66.3542 74.9241 66.1907C75.0876 66.0272 75.1795 65.8055 75.1795 65.5742Z" fill="white"/>
<path d="M143.409 105H144.818V99.7955H149.864V98.5455H144.818V94.6136H150.386V93.3636H143.409V105ZM155.523 105.182C157.886 105.182 159.477 103.386 159.477 100.682C159.477 97.9545 157.886 96.1591 155.523 96.1591C153.159 96.1591 151.568 97.9545 151.568 100.682C151.568 103.386 153.159 105.182 155.523 105.182ZM155.523 103.977C153.727 103.977 152.909 102.432 152.909 100.682C152.909 98.9318 153.727 97.3636 155.523 97.3636C157.318 97.3636 158.136 98.9318 158.136 100.682C158.136 102.432 157.318 103.977 155.523 103.977ZM161.524 105H162.865V99.4773C162.865 98.2955 163.797 97.4318 165.07 97.4318C165.428 97.4318 165.797 97.5 165.888 97.5227V96.1591C165.734 96.1477 165.382 96.1364 165.183 96.1364C164.138 96.1364 163.229 96.7273 162.911 97.5909H162.82V96.2727H161.524V105ZM172.977 101.432C172.977 103.068 171.727 103.818 170.727 103.818C169.614 103.818 168.818 103 168.818 101.727V96.2727H167.477V101.818C167.477 104.045 168.659 105.114 170.295 105.114C171.614 105.114 172.477 104.409 172.886 103.523H172.977V105H174.318V96.2727H172.977V101.432ZM176.774 105H178.115V99.5455C178.115 98.267 179.047 97.3636 180.092 97.3636C181.109 97.3636 181.82 98.0284 181.82 99.0227V105H183.183V99.3182C183.183 98.1932 183.888 97.3636 185.115 97.3636C186.07 97.3636 186.888 97.8693 186.888 99.1591V105H188.229V99.1591C188.229 97.108 187.126 96.1591 185.57 96.1591C184.32 96.1591 183.405 96.733 182.956 97.6364H182.865C182.433 96.7045 181.672 96.1591 180.524 96.1591C179.388 96.1591 178.547 96.7045 178.183 97.6364H178.07V96.2727H176.774V105ZM195.18 105H196.521V96.2727H195.18V105ZM195.862 94.8182C196.385 94.8182 196.817 94.4091 196.817 93.9091C196.817 93.4091 196.385 93 195.862 93C195.339 93 194.908 93.4091 194.908 93.9091C194.908 94.4091 195.339 94.8182 195.862 94.8182ZM205.159 98.2273C204.739 96.9886 203.795 96.1591 202.068 96.1591C200.227 96.1591 198.864 97.2045 198.864 98.6818C198.864 99.8864 199.58 100.693 201.182 101.068L202.636 101.409C203.517 101.614 203.932 102.034 203.932 102.636C203.932 103.386 203.136 104 201.886 104C200.79 104 200.102 103.528 199.864 102.591L198.591 102.909C198.903 104.392 200.125 105.182 201.909 105.182C203.938 105.182 205.318 104.074 205.318 102.568C205.318 101.352 204.557 100.585 203 100.205L201.705 99.8864C200.67 99.6307 200.205 99.2841 200.205 98.6136C200.205 97.8636 201 97.3182 202.068 97.3182C203.239 97.3182 203.722 97.9659 203.955 98.5682L205.159 98.2273ZM211.837 105H213.178V99.4773C213.178 98.2955 214.109 97.4318 215.382 97.4318C215.74 97.4318 216.109 97.5 216.2 97.5227V96.1591C216.047 96.1477 215.695 96.1364 215.496 96.1364C214.45 96.1364 213.541 96.7273 213.223 97.5909H213.132V96.2727H211.837V105ZM221.183 105.182C222.956 105.182 224.251 104.295 224.661 102.977L223.365 102.614C223.024 103.523 222.234 103.977 221.183 103.977C219.609 103.977 218.524 102.96 218.462 101.091H224.797V100.523C224.797 97.2727 222.865 96.1591 221.047 96.1591C218.683 96.1591 217.115 98.0227 217.115 100.705C217.115 103.386 218.661 105.182 221.183 105.182ZM218.462 99.9318C218.553 98.5739 219.513 97.3636 221.047 97.3636C222.501 97.3636 223.433 98.4545 223.433 99.9318H218.462ZM229.405 105.205C230.928 105.205 231.723 104.386 231.996 103.818H232.064V105H233.405V99.25C233.405 96.4773 231.291 96.1591 230.178 96.1591C228.859 96.1591 227.359 96.6136 226.678 98.2045L227.95 98.6591C228.246 98.0227 228.945 97.3409 230.223 97.3409C231.456 97.3409 232.064 97.9943 232.064 99.1136V99.1591C232.064 99.8068 231.405 99.75 229.814 99.9545C228.195 100.165 226.428 100.523 226.428 102.523C226.428 104.227 227.746 105.205 229.405 105.205ZM229.609 104C228.541 104 227.768 103.523 227.768 102.591C227.768 101.568 228.7 101.25 229.746 101.114C230.314 101.045 231.837 100.886 232.064 100.614V101.841C232.064 102.932 231.2 104 229.609 104ZM239.148 105.182C240.83 105.182 241.398 104.136 241.693 103.659H241.852V105H243.148V93.3636H241.807V97.6591H241.693C241.398 97.2045 240.875 96.1591 239.17 96.1591C236.966 96.1591 235.443 97.9091 235.443 100.659C235.443 103.432 236.966 105.182 239.148 105.182ZM239.33 103.977C237.648 103.977 236.784 102.5 236.784 100.636C236.784 98.7955 237.625 97.3636 239.33 97.3636C240.966 97.3636 241.83 98.6818 241.83 100.636C241.83 102.614 240.943 103.977 239.33 103.977ZM246.653 108.273C247.864 108.273 248.716 107.631 249.222 106.273L252.938 96.2955L251.472 96.2727L249.062 103.227H248.972L246.562 96.2727H245.108L248.335 105.045L248.085 105.727C247.597 107.057 246.994 107.182 246.017 106.932L245.676 108.114C245.812 108.182 246.199 108.273 246.653 108.273ZM259.393 105H260.689V103.659H260.848C261.143 104.136 261.712 105.182 263.393 105.182C265.575 105.182 267.098 103.432 267.098 100.659C267.098 97.9091 265.575 96.1591 263.371 96.1591C261.666 96.1591 261.143 97.2045 260.848 97.6591H260.734V93.3636H259.393V105ZM260.712 100.636C260.712 98.6818 261.575 97.3636 263.212 97.3636C264.916 97.3636 265.757 98.7955 265.757 100.636C265.757 102.5 264.893 103.977 263.212 103.977C261.598 103.977 260.712 102.614 260.712 100.636ZM269.7 108.273C270.911 108.273 271.763 107.631 272.268 106.273L275.984 96.2955L274.518 96.2727L272.109 103.227H272.018L269.609 96.2727H268.155L271.382 105.045L271.132 105.727C270.643 107.057 270.041 107.182 269.064 106.932L268.723 108.114C268.859 108.182 269.246 108.273 269.7 108.273ZM282.44 105H286.645C289.395 105 290.531 103.659 290.531 101.909C290.531 100.068 289.259 99.0682 288.19 99V98.8864C289.19 98.6136 290.077 97.9545 290.077 96.4545C290.077 94.75 288.94 93.3636 286.509 93.3636H282.44V105ZM283.849 103.75V99.7045H286.713C288.236 99.7045 289.19 100.727 289.19 101.909C289.19 102.932 288.486 103.75 286.645 103.75H283.849ZM283.849 98.4773V94.6136H286.509C288.054 94.6136 288.736 95.4318 288.736 96.4545C288.736 97.6818 287.736 98.4773 286.463 98.4773H283.849ZM292.847 105H297.051C299.801 105 300.938 103.659 300.938 101.909C300.938 100.068 299.665 99.0682 298.597 99V98.8864C299.597 98.6136 300.483 97.9545 300.483 96.4545C300.483 94.75 299.347 93.3636 296.915 93.3636H292.847V105ZM294.256 103.75V99.7045H297.119C298.642 99.7045 299.597 100.727 299.597 101.909C299.597 102.932 298.892 103.75 297.051 103.75H294.256ZM294.256 98.4773V94.6136H296.915C298.46 94.6136 299.142 95.4318 299.142 96.4545C299.142 97.6818 298.142 98.4773 296.869 98.4773H294.256ZM303.253 105H304.662V100.75H307.207C309.918 100.75 311.139 99.1023 311.139 97.0455C311.139 94.9886 309.918 93.3636 307.185 93.3636H303.253V105ZM304.662 99.5V94.6136H307.139C309.031 94.6136 309.753 95.6477 309.753 97.0455C309.753 98.4432 309.031 99.5 307.162 99.5H304.662ZM313.227 105H314.568V99.4773C314.568 98.2955 315.5 97.4318 316.773 97.4318C317.131 97.4318 317.5 97.5 317.591 97.5227V96.1591C317.438 96.1477 317.085 96.1364 316.886 96.1364C315.841 96.1364 314.932 96.7273 314.614 97.5909H314.523V96.2727H313.227V105ZM322.574 105.182C324.347 105.182 325.642 104.295 326.051 102.977L324.756 102.614C324.415 103.523 323.625 103.977 322.574 103.977C321 103.977 319.915 102.96 319.852 101.091H326.188V100.523C326.188 97.2727 324.256 96.1591 322.438 96.1591C320.074 96.1591 318.506 98.0227 318.506 100.705C318.506 103.386 320.051 105.182 322.574 105.182ZM319.852 99.9318C319.943 98.5739 320.903 97.3636 322.438 97.3636C323.892 97.3636 324.824 98.4545 324.824 99.9318H319.852ZM334.409 98.2273C333.989 96.9886 333.045 96.1591 331.318 96.1591C329.477 96.1591 328.114 97.2045 328.114 98.6818C328.114 99.8864 328.83 100.693 330.432 101.068L331.886 101.409C332.767 101.614 333.182 102.034 333.182 102.636C333.182 103.386 332.386 104 331.136 104C330.04 104 329.352 103.528 329.114 102.591L327.841 102.909C328.153 104.392 329.375 105.182 331.159 105.182C333.188 105.182 334.568 104.074 334.568 102.568C334.568 101.352 333.807 100.585 332.25 100.205L330.955 99.8864C329.92 99.6307 329.455 99.2841 329.455 98.6136C329.455 97.8636 330.25 97.3182 331.318 97.3182C332.489 97.3182 332.972 97.9659 333.205 98.5682L334.409 98.2273ZM342.768 98.2273C342.348 96.9886 341.405 96.1591 339.678 96.1591C337.837 96.1591 336.473 97.2045 336.473 98.6818C336.473 99.8864 337.189 100.693 338.791 101.068L340.246 101.409C341.126 101.614 341.541 102.034 341.541 102.636C341.541 103.386 340.746 104 339.496 104C338.399 104 337.712 103.528 337.473 102.591L336.2 102.909C336.513 104.392 337.734 105.182 339.518 105.182C341.547 105.182 342.928 104.074 342.928 102.568C342.928 101.352 342.166 100.585 340.609 100.205L339.314 99.8864C338.28 99.6307 337.814 99.2841 337.814 98.6136C337.814 97.8636 338.609 97.3182 339.678 97.3182C340.848 97.3182 341.331 97.9659 341.564 98.5682L342.768 98.2273ZM345.923 105.091C346.486 105.091 346.946 104.631 346.946 104.068C346.946 103.506 346.486 103.045 345.923 103.045C345.361 103.045 344.901 103.506 344.901 104.068C344.901 104.631 345.361 105.091 345.923 105.091ZM353.034 93.3636L357.239 100.205V105H358.648V100.205L362.852 93.3636H361.239L358.011 98.7955H357.875L354.648 93.3636H353.034ZM366.804 105.182C369.168 105.182 370.759 103.386 370.759 100.682C370.759 97.9545 369.168 96.1591 366.804 96.1591C364.44 96.1591 362.849 97.9545 362.849 100.682C362.849 103.386 364.44 105.182 366.804 105.182ZM366.804 103.977C365.009 103.977 364.19 102.432 364.19 100.682C364.19 98.9318 365.009 97.3636 366.804 97.3636C368.599 97.3636 369.418 98.9318 369.418 100.682C369.418 102.432 368.599 103.977 366.804 103.977ZM378.305 101.432C378.305 103.068 377.055 103.818 376.055 103.818C374.942 103.818 374.146 103 374.146 101.727V96.2727H372.805V101.818C372.805 104.045 373.987 105.114 375.624 105.114C376.942 105.114 377.805 104.409 378.214 103.523H378.305V105H379.646V96.2727H378.305V101.432ZM382.102 105H383.443V99.4773C383.443 98.2955 384.375 97.4318 385.648 97.4318C386.006 97.4318 386.375 97.5 386.466 97.5227V96.1591C386.312 96.1477 385.96 96.1364 385.761 96.1364C384.716 96.1364 383.807 96.7273 383.489 97.5909H383.398V96.2727H382.102V105ZM398.055 101.432C398.055 103.068 396.805 103.818 395.805 103.818C394.692 103.818 393.896 103 393.896 101.727V96.2727H392.555V101.818C392.555 104.045 393.737 105.114 395.374 105.114C396.692 105.114 397.555 104.409 397.964 103.523H398.055V105H399.396V96.2727H398.055V101.432ZM408.034 98.2273C407.614 96.9886 406.67 96.1591 404.943 96.1591C403.102 96.1591 401.739 97.2045 401.739 98.6818C401.739 99.8864 402.455 100.693 404.057 101.068L405.511 101.409C406.392 101.614 406.807 102.034 406.807 102.636C406.807 103.386 406.011 104 404.761 104C403.665 104 402.977 103.528 402.739 102.591L401.466 102.909C401.778 104.392 403 105.182 404.784 105.182C406.812 105.182 408.193 104.074 408.193 102.568C408.193 101.352 407.432 100.585 405.875 100.205L404.58 99.8864C403.545 99.6307 403.08 99.2841 403.08 98.6136C403.08 97.8636 403.875 97.3182 404.943 97.3182C406.114 97.3182 406.597 97.9659 406.83 98.5682L408.034 98.2273ZM413.871 105.182C415.643 105.182 416.939 104.295 417.348 102.977L416.053 102.614C415.712 103.523 414.922 103.977 413.871 103.977C412.297 103.977 411.212 102.96 411.149 101.091H417.484V100.523C417.484 97.2727 415.553 96.1591 413.734 96.1591C411.371 96.1591 409.803 98.0227 409.803 100.705C409.803 103.386 411.348 105.182 413.871 105.182ZM411.149 99.9318C411.24 98.5739 412.2 97.3636 413.734 97.3636C415.189 97.3636 416.121 98.4545 416.121 99.9318H411.149ZM419.524 105H420.865V99.4773C420.865 98.2955 421.797 97.4318 423.07 97.4318C423.428 97.4318 423.797 97.5 423.888 97.5227V96.1591C423.734 96.1477 423.382 96.1364 423.183 96.1364C422.138 96.1364 421.229 96.7273 420.911 97.5909H420.82V96.2727H419.524V105ZM431.659 98.2273C431.239 96.9886 430.295 96.1591 428.568 96.1591C426.727 96.1591 425.364 97.2045 425.364 98.6818C425.364 99.8864 426.08 100.693 427.682 101.068L429.136 101.409C430.017 101.614 430.432 102.034 430.432 102.636C430.432 103.386 429.636 104 428.386 104C427.29 104 426.602 103.528 426.364 102.591L425.091 102.909C425.403 104.392 426.625 105.182 428.409 105.182C430.438 105.182 431.818 104.074 431.818 102.568C431.818 101.352 431.057 100.585 429.5 100.205L428.205 99.8864C427.17 99.6307 426.705 99.2841 426.705 98.6136C426.705 97.8636 427.5 97.3182 428.568 97.3182C429.739 97.3182 430.222 97.9659 430.455 98.5682L431.659 98.2273ZM146.773 131.182C148.705 131.182 149.977 130 150.205 128.455H148.864C148.614 129.409 147.818 129.977 146.773 129.977C145.182 129.977 144.159 128.659 144.159 126.636C144.159 124.659 145.205 123.364 146.773 123.364C147.955 123.364 148.659 124.091 148.864 124.886H150.205C149.977 123.25 148.591 122.159 146.75 122.159C144.386 122.159 142.818 124.023 142.818 126.682C142.818 129.295 144.318 131.182 146.773 131.182ZM154.733 131.205C156.256 131.205 157.051 130.386 157.324 129.818H157.392V131H158.733V125.25C158.733 122.477 156.619 122.159 155.506 122.159C154.188 122.159 152.688 122.614 152.006 124.205L153.278 124.659C153.574 124.023 154.273 123.341 155.551 123.341C156.784 123.341 157.392 123.994 157.392 125.114V125.159C157.392 125.807 156.733 125.75 155.142 125.955C153.523 126.165 151.756 126.523 151.756 128.523C151.756 130.227 153.074 131.205 154.733 131.205ZM154.938 130C153.869 130 153.097 129.523 153.097 128.591C153.097 127.568 154.028 127.25 155.074 127.114C155.642 127.045 157.165 126.886 157.392 126.614V127.841C157.392 128.932 156.528 130 154.938 130ZM162.521 125.75C162.521 124.227 163.464 123.364 164.749 123.364C165.993 123.364 166.749 124.176 166.749 125.545V131H168.089V125.455C168.089 123.227 166.902 122.159 165.135 122.159C163.817 122.159 162.999 122.75 162.589 123.636H162.476V122.273H161.18V131H162.521V125.75ZM175.04 131H176.381V125.545C176.381 124.267 177.312 123.364 178.358 123.364C179.375 123.364 180.085 124.028 180.085 125.023V131H181.449V125.318C181.449 124.193 182.153 123.364 183.381 123.364C184.335 123.364 185.153 123.869 185.153 125.159V131H186.494V125.159C186.494 123.108 185.392 122.159 183.835 122.159C182.585 122.159 181.67 122.733 181.222 123.636H181.131C180.699 122.705 179.938 122.159 178.79 122.159C177.653 122.159 176.812 122.705 176.449 123.636H176.335V122.273H175.04V131ZM191.514 131.205C193.037 131.205 193.832 130.386 194.105 129.818H194.173V131H195.514V125.25C195.514 122.477 193.401 122.159 192.287 122.159C190.969 122.159 189.469 122.614 188.787 124.205L190.06 124.659C190.355 124.023 191.054 123.341 192.332 123.341C193.565 123.341 194.173 123.994 194.173 125.114V125.159C194.173 125.807 193.514 125.75 191.923 125.955C190.304 126.165 188.537 126.523 188.537 128.523C188.537 130.227 189.855 131.205 191.514 131.205ZM191.719 130C190.651 130 189.878 129.523 189.878 128.591C189.878 127.568 190.81 127.25 191.855 127.114C192.423 127.045 193.946 126.886 194.173 126.614V127.841C194.173 128.932 193.31 130 191.719 130ZM197.962 131H199.303V127.733L200.24 126.864L203.507 131H205.212L201.251 126L204.939 122.273H203.28L199.462 126.159H199.303V119.364H197.962V131ZM209.964 131.182C211.737 131.182 213.033 130.295 213.442 128.977L212.146 128.614C211.805 129.523 211.016 129.977 209.964 129.977C208.391 129.977 207.305 128.96 207.243 127.091H213.578V126.523C213.578 123.273 211.646 122.159 209.828 122.159C207.464 122.159 205.896 124.023 205.896 126.705C205.896 129.386 207.442 131.182 209.964 131.182ZM207.243 125.932C207.334 124.574 208.294 123.364 209.828 123.364C211.283 123.364 212.214 124.455 212.214 125.932H207.243ZM223.913 122.273H222.05V120.182H220.709V122.273H219.391V123.409H220.709V128.864C220.709 130.386 221.936 131.114 223.072 131.114C223.572 131.114 223.891 131.023 224.072 130.955L223.8 129.75C223.686 129.773 223.504 129.818 223.209 129.818C222.618 129.818 222.05 129.636 222.05 128.5V123.409H223.913V122.273ZM229.382 131.182C231.746 131.182 233.337 129.386 233.337 126.682C233.337 123.955 231.746 122.159 229.382 122.159C227.018 122.159 225.428 123.955 225.428 126.682C225.428 129.386 227.018 131.182 229.382 131.182ZM229.382 129.977C227.587 129.977 226.768 128.432 226.768 126.682C226.768 124.932 227.587 123.364 229.382 123.364C231.178 123.364 231.996 124.932 231.996 126.682C231.996 128.432 231.178 129.977 229.382 129.977ZM235.384 134.273H236.724V129.659H236.838C237.134 130.136 237.702 131.182 239.384 131.182C241.565 131.182 243.088 129.432 243.088 126.659C243.088 123.909 241.565 122.159 239.361 122.159C237.656 122.159 237.134 123.205 236.838 123.659H236.679V122.273H235.384V134.273ZM236.702 126.636C236.702 124.682 237.565 123.364 239.202 123.364C240.906 123.364 241.747 124.795 241.747 126.636C241.747 128.5 240.884 129.977 239.202 129.977C237.588 129.977 236.702 128.614 236.702 126.636ZM245.134 131H246.474V122.273H245.134V131ZM245.815 120.818C246.338 120.818 246.77 120.409 246.77 119.909C246.77 119.409 246.338 119 245.815 119C245.293 119 244.861 119.409 244.861 119.909C244.861 120.409 245.293 120.818 245.815 120.818ZM252.476 131.182C254.408 131.182 255.68 130 255.908 128.455H254.567C254.317 129.409 253.521 129.977 252.476 129.977C250.885 129.977 249.862 128.659 249.862 126.636C249.862 124.659 250.908 123.364 252.476 123.364C253.658 123.364 254.362 124.091 254.567 124.886H255.908C255.68 123.25 254.294 122.159 252.453 122.159C250.089 122.159 248.521 124.023 248.521 126.682C248.521 129.295 250.021 131.182 252.476 131.182ZM264.05 124.227C263.629 122.989 262.686 122.159 260.959 122.159C259.118 122.159 257.754 123.205 257.754 124.682C257.754 125.886 258.47 126.693 260.072 127.068L261.527 127.409C262.408 127.614 262.822 128.034 262.822 128.636C262.822 129.386 262.027 130 260.777 130C259.68 130 258.993 129.528 258.754 128.591L257.482 128.909C257.794 130.392 259.016 131.182 260.8 131.182C262.828 131.182 264.209 130.074 264.209 128.568C264.209 127.352 263.447 126.585 261.891 126.205L260.595 125.886C259.561 125.631 259.095 125.284 259.095 124.614C259.095 123.864 259.891 123.318 260.959 123.318C262.129 123.318 262.612 123.966 262.845 124.568L264.05 124.227ZM273.295 131.205C274.818 131.205 275.614 130.386 275.886 129.818H275.955V131H277.295V125.25C277.295 122.477 275.182 122.159 274.068 122.159C272.75 122.159 271.25 122.614 270.568 124.205L271.841 124.659C272.136 124.023 272.835 123.341 274.114 123.341C275.347 123.341 275.955 123.994 275.955 125.114V125.159C275.955 125.807 275.295 125.75 273.705 125.955C272.085 126.165 270.318 126.523 270.318 128.523C270.318 130.227 271.636 131.205 273.295 131.205ZM273.5 130C272.432 130 271.659 129.523 271.659 128.591C271.659 127.568 272.591 127.25 273.636 127.114C274.205 127.045 275.727 126.886 275.955 126.614V127.841C275.955 128.932 275.091 130 273.5 130ZM281.084 125.75C281.084 124.227 282.027 123.364 283.311 123.364C284.555 123.364 285.311 124.176 285.311 125.545V131H286.652V125.455C286.652 123.227 285.464 122.159 283.697 122.159C282.379 122.159 281.561 122.75 281.152 123.636H281.038V122.273H279.743V131H281.084V125.75ZM292.398 131.182C294.08 131.182 294.648 130.136 294.943 129.659H295.102V131H296.398V119.364H295.057V123.659H294.943C294.648 123.205 294.125 122.159 292.42 122.159C290.216 122.159 288.693 123.909 288.693 126.659C288.693 129.432 290.216 131.182 292.398 131.182ZM292.58 129.977C290.898 129.977 290.034 128.5 290.034 126.636C290.034 124.795 290.875 123.364 292.58 123.364C294.216 123.364 295.08 124.682 295.08 126.636C295.08 128.614 294.193 129.977 292.58 129.977ZM307.335 122.273H305.472V120.182H304.131V122.273H302.812V123.409H304.131V128.864C304.131 130.386 305.358 131.114 306.494 131.114C306.994 131.114 307.312 131.023 307.494 130.955L307.222 129.75C307.108 129.773 306.926 129.818 306.631 129.818C306.04 129.818 305.472 129.636 305.472 128.5V123.409H307.335V122.273ZM311.92 131.205C313.443 131.205 314.239 130.386 314.511 129.818H314.58V131H315.92V125.25C315.92 122.477 313.807 122.159 312.693 122.159C311.375 122.159 309.875 122.614 309.193 124.205L310.466 124.659C310.761 124.023 311.46 123.341 312.739 123.341C313.972 123.341 314.58 123.994 314.58 125.114V125.159C314.58 125.807 313.92 125.75 312.33 125.955C310.71 126.165 308.943 126.523 308.943 128.523C308.943 130.227 310.261 131.205 311.92 131.205ZM312.125 130C311.057 130 310.284 129.523 310.284 128.591C310.284 127.568 311.216 127.25 312.261 127.114C312.83 127.045 314.352 126.886 314.58 126.614V127.841C314.58 128.932 313.716 130 312.125 130ZM319.709 119.364H318.368V131H319.709V119.364ZM322.165 131H323.506V127.733L324.443 126.864L327.71 131H329.415L325.455 126L329.142 122.273H327.483L323.665 126.159H323.506V119.364H322.165V131ZM331.845 131.091C332.408 131.091 332.868 130.631 332.868 130.068C332.868 129.506 332.408 129.045 331.845 129.045C331.283 129.045 330.822 129.506 330.822 130.068C330.822 130.631 331.283 131.091 331.845 131.091Z" fill="#656464"/>
<path d="M143.722 68H146.884V60.5852H154.136V57.9347H146.884V53.196H154.903V50.5455H143.722V68ZM162.397 68.2557C166.232 68.2557 168.67 65.554 168.67 61.5057C168.67 57.4489 166.232 54.7386 162.397 54.7386C158.562 54.7386 156.124 57.4489 156.124 61.5057C156.124 65.554 158.562 68.2557 162.397 68.2557ZM162.414 65.7841C160.292 65.7841 159.252 63.892 159.252 61.4972C159.252 59.1023 160.292 57.1847 162.414 57.1847C164.502 57.1847 165.542 59.1023 165.542 61.4972C165.542 63.892 164.502 65.7841 162.414 65.7841ZM171.288 68H174.374V60.304C174.374 58.642 175.626 57.4659 177.322 57.4659C177.842 57.4659 178.49 57.5597 178.754 57.6449V54.8068C178.473 54.7557 177.987 54.7216 177.646 54.7216C176.146 54.7216 174.893 55.5739 174.416 57.0909H174.28V54.9091H171.288V68ZM189.148 62.4943C189.148 64.4886 187.724 65.4773 186.361 65.4773C184.878 65.4773 183.889 64.429 183.889 62.767V54.9091H180.804V63.2443C180.804 66.3892 182.594 68.1705 185.168 68.1705C187.128 68.1705 188.509 67.1392 189.105 65.6733H189.241V68H192.233V54.9091H189.148V62.4943ZM195.406 68H198.491V60.0398C198.491 58.429 199.565 57.3381 200.894 57.3381C202.198 57.3381 203.093 58.2159 203.093 59.5625V68H206.119V59.8352C206.119 58.3608 206.996 57.3381 208.488 57.3381C209.732 57.3381 210.721 58.071 210.721 59.6903V68H213.815V59.2131C213.815 56.2898 212.127 54.7386 209.724 54.7386C207.823 54.7386 206.374 55.6761 205.795 57.1335H205.658C205.156 55.6506 203.886 54.7386 202.121 54.7386C200.366 54.7386 199.053 55.642 198.508 57.1335H198.354V54.9091H195.406V68Z" fill="#2F2C4A"/>
<defs>
<filter id="filter0_d_5_1257" x="20" y="30" width="106" height="106" filterUnits="userSpaceOnUse" color-interpolation-filters="sRGB">
<feFlood flood-opacity="0" result="BackgroundImageFix"/>
<feColorMatrix in="SourceAlpha" type="matrix" values="0 0 0 0 0 0 0 0 0 0 0 0 0 0 0 0 0 0 127 0" result="hardAlpha"/>
<feMorphology radius="2" operator="erode" in="SourceAlpha" result="effect1_dropShadow_5_1257"/>
<feOffset dy="10"/>
<feGaussianBlur stdDeviation="11"/>
<feColorMatrix type="matrix" values="0 0 0 0 0.97947 0 0 0 0 0.730307 0 0 0 0 0.328531 0 0 0 0.3 0"/>
<feBlend mode="normal" in2="BackgroundImageFix" result="effect1_dropShadow_5_1257"/>
<feBlend mode="normal" in="SourceGraphic" in2="effect1_dropShadow_5_1257" result="shape"/>
</filter>
<linearGradient id="paint0_linear_5_1257" x1="53.5" y1="40" x2="85" y2="106" gradientUnits="userSpaceOnUse">
<stop stop-color="#FFD085"/>
<stop offset="1" stop-color="#FFAF2E"/>
</linearGradient>
</defs>
</svg>
