<svg width="602" height="262" viewBox="0 0 602 262" fill="none" xmlns="http://www.w3.org/2000/svg">
<g filter="url(#filter0_d_5_1246)">
<rect x="26" y="18" width="522" height="182" rx="14" fill="white"/>
</g>
<g filter="url(#filter1_d_5_1246)">
<rect x="66" y="58" width="66" height="66" rx="24" fill="url(#paint0_linear_5_1246)"/>
</g>
<path fill-rule="evenodd" clip-rule="evenodd" d="M93.6349 91.3045C97.1525 91.3045 100.004 88.4528 100.004 84.9352C100.004 81.4176 97.1525 78.5659 93.6349 78.5659C90.1173 78.5659 87.2656 81.4176 87.2656 84.9352C87.2656 88.4528 90.1173 91.3045 93.6349 91.3045Z" fill="white"/>
<path fill-rule="evenodd" clip-rule="evenodd" d="M99.1641 90.5915C97.7321 91.9569 95.7827 92.797 93.635 92.797C91.4873 92.797 89.5378 91.9569 88.1058 90.5915C87.8592 90.5304 87.6126 90.47 87.3731 90.4394C87.1336 90.4088 86.9019 90.4088 86.6859 90.4422C86.4705 90.4749 86.2715 90.5417 86.0391 90.6249C85.8067 90.7074 85.5416 90.8069 85.2098 91.0059C84.8786 91.2049 84.4799 91.5034 84.099 92.0017C83.7173 92.4985 83.3527 93.1958 83.0208 94.0253C82.6889 94.854 82.3905 95.8164 82.2249 96.7454C82.0593 97.6737 82.0259 98.57 82.0095 99.2495C81.9925 99.9297 81.9925 100.395 82.0593 100.842C82.1254 101.29 82.2576 101.721 82.5568 102.152C82.8552 102.584 83.3193 103.015 83.8666 103.346C84.4138 103.678 85.0442 103.911 85.9069 104.027C86.769 104.142 87.8635 104.142 89.1903 104.142H93.038H93.635H94.2319H98.0796C99.4064 104.142 100.501 104.142 101.363 104.027C102.226 103.911 102.856 103.678 103.403 103.346C103.951 103.015 104.415 102.584 104.713 102.152C105.012 101.721 105.145 101.29 105.211 100.842C105.277 100.395 105.277 99.9297 105.26 99.2495C105.244 98.57 105.211 97.6737 105.045 96.7454C104.879 95.8164 104.581 94.854 104.249 94.0253C103.917 93.1958 103.553 92.4985 103.171 92.0017C102.79 91.5034 102.391 91.2049 102.06 91.0059C101.728 90.8069 101.463 90.7074 101.231 90.6249C100.998 90.5417 100.799 90.4749 100.584 90.4422C100.368 90.4088 100.136 90.4088 99.8968 90.4394C99.6573 90.47 99.4107 90.5304 99.1641 90.5915Z" fill="white"/>
<path fill-rule="evenodd" clip-rule="evenodd" d="M100.424 88.0739C101.556 89.1074 103.063 89.7385 104.717 89.7385C108.233 89.7385 111.084 86.8869 111.084 83.3693C111.084 79.8516 108.233 77 104.717 77C102.458 77 100.474 78.1763 99.3438 79.9497C100.619 81.114 101.419 82.7914 101.419 84.6544C101.419 85.9124 101.053 87.0866 100.424 88.0739Z" fill="white"/>
<path fill-rule="evenodd" clip-rule="evenodd" d="M109.893 89.2609C108.503 90.585 106.627 91.4159 104.555 91.4643L104.784 91.7386C105.165 92.2355 105.53 92.9327 105.862 93.7622C106.194 94.591 106.493 95.5534 106.658 96.4824C106.824 97.4106 106.857 98.3069 106.874 98.9864C106.891 99.6666 106.891 100.131 106.824 100.579C106.758 101.027 106.626 101.458 106.326 101.889C106.104 102.211 105.79 102.532 105.418 102.812H108.808C110.136 102.812 111.231 102.812 112.093 102.696C112.956 102.58 113.587 102.348 114.134 102.016C114.682 101.685 115.146 101.253 115.444 100.822C115.744 100.39 115.876 99.9595 115.942 99.5117C116.009 99.0639 116.009 98.5991 115.992 97.9188C115.976 97.2393 115.942 96.343 115.776 95.4148C115.611 94.4858 115.312 93.5234 114.98 92.6946C114.648 91.8652 114.283 91.1679 113.902 90.671C113.521 90.1728 113.122 89.8743 112.79 89.6752C112.458 89.4762 112.193 89.3767 111.961 89.2943C111.728 89.2111 111.529 89.1443 111.314 89.1116C111.098 89.0782 110.866 89.0782 110.626 89.1088C110.387 89.1393 110.14 89.1997 109.893 89.2609Z" fill="white"/>
<path d="M169.409 111.364V123H170.727V114.159H170.841L174.477 123H175.75L179.386 114.159H179.5V123H180.818V111.364H179.136L175.182 121.023H175.045L171.091 111.364H169.409ZM187.121 123.182C188.893 123.182 190.189 122.295 190.598 120.977L189.303 120.614C188.962 121.523 188.172 121.977 187.121 121.977C185.547 121.977 184.462 120.96 184.399 119.091H190.734V118.523C190.734 115.273 188.803 114.159 186.984 114.159C184.621 114.159 183.053 116.023 183.053 118.705C183.053 121.386 184.598 123.182 187.121 123.182ZM184.399 117.932C184.49 116.574 185.45 115.364 186.984 115.364C188.439 115.364 189.371 116.455 189.371 117.932H184.399ZM192.774 123H194.115V117.545C194.115 116.267 195.047 115.364 196.092 115.364C197.109 115.364 197.82 116.028 197.82 117.023V123H199.183V117.318C199.183 116.193 199.888 115.364 201.115 115.364C202.07 115.364 202.888 115.869 202.888 117.159V123H204.229V117.159C204.229 115.108 203.126 114.159 201.57 114.159C200.32 114.159 199.405 114.733 198.956 115.636H198.865C198.433 114.705 197.672 114.159 196.524 114.159C195.388 114.159 194.547 114.705 194.183 115.636H194.07V114.273H192.774V123ZM206.862 123H208.158V121.659H208.317C208.612 122.136 209.18 123.182 210.862 123.182C213.044 123.182 214.567 121.432 214.567 118.659C214.567 115.909 213.044 114.159 210.839 114.159C209.135 114.159 208.612 115.205 208.317 115.659H208.203V111.364H206.862V123ZM208.18 118.636C208.18 116.682 209.044 115.364 210.68 115.364C212.385 115.364 213.226 116.795 213.226 118.636C213.226 120.5 212.362 121.977 210.68 121.977C209.067 121.977 208.18 120.614 208.18 118.636ZM220.277 123.182C222.05 123.182 223.345 122.295 223.754 120.977L222.459 120.614C222.118 121.523 221.328 121.977 220.277 121.977C218.703 121.977 217.618 120.96 217.555 119.091H223.891V118.523C223.891 115.273 221.959 114.159 220.141 114.159C217.777 114.159 216.209 116.023 216.209 118.705C216.209 121.386 217.754 123.182 220.277 123.182ZM217.555 117.932C217.646 116.574 218.607 115.364 220.141 115.364C221.595 115.364 222.527 116.455 222.527 117.932H217.555ZM225.93 123H227.271V117.477C227.271 116.295 228.203 115.432 229.476 115.432C229.834 115.432 230.203 115.5 230.294 115.523V114.159C230.141 114.148 229.788 114.136 229.589 114.136C228.544 114.136 227.635 114.727 227.317 115.591H227.226V114.273H225.93V123ZM238.065 116.227C237.645 114.989 236.702 114.159 234.974 114.159C233.134 114.159 231.77 115.205 231.77 116.682C231.77 117.886 232.486 118.693 234.088 119.068L235.543 119.409C236.423 119.614 236.838 120.034 236.838 120.636C236.838 121.386 236.043 122 234.793 122C233.696 122 233.009 121.528 232.77 120.591L231.497 120.909C231.81 122.392 233.031 123.182 234.815 123.182C236.844 123.182 238.224 122.074 238.224 120.568C238.224 119.352 237.463 118.585 235.906 118.205L234.611 117.886C233.577 117.631 233.111 117.284 233.111 116.614C233.111 115.864 233.906 115.318 234.974 115.318C236.145 115.318 236.628 115.966 236.861 116.568L238.065 116.227ZM242.243 121.409H240.788L240.72 122.045C240.555 123.585 240.232 125.119 240.084 125.841H241.107C241.379 125.068 241.959 123.318 242.152 122.023L242.243 121.409ZM249.409 123H250.818V117.795H255.864V116.545H250.818V112.614H256.386V111.364H249.409V123ZM258.524 123H259.865V117.477C259.865 116.295 260.797 115.432 262.07 115.432C262.428 115.432 262.797 115.5 262.888 115.523V114.159C262.734 114.148 262.382 114.136 262.183 114.136C261.138 114.136 260.229 114.727 259.911 115.591H259.82V114.273H258.524V123ZM264.477 123H265.818V114.273H264.477V123ZM265.159 112.818C265.682 112.818 266.114 112.409 266.114 111.909C266.114 111.409 265.682 111 265.159 111C264.636 111 264.205 111.409 264.205 111.909C264.205 112.409 264.636 112.818 265.159 112.818ZM271.933 123.182C273.706 123.182 275.001 122.295 275.411 120.977L274.115 120.614C273.774 121.523 272.984 121.977 271.933 121.977C270.359 121.977 269.274 120.96 269.212 119.091H275.547V118.523C275.547 115.273 273.615 114.159 271.797 114.159C269.433 114.159 267.865 116.023 267.865 118.705C267.865 121.386 269.411 123.182 271.933 123.182ZM269.212 117.932C269.303 116.574 270.263 115.364 271.797 115.364C273.251 115.364 274.183 116.455 274.183 117.932H269.212ZM278.928 117.75C278.928 116.227 279.871 115.364 281.155 115.364C282.399 115.364 283.155 116.176 283.155 117.545V123H284.496V117.455C284.496 115.227 283.308 114.159 281.541 114.159C280.223 114.159 279.405 114.75 278.996 115.636H278.882V114.273H277.587V123H278.928V117.75ZM290.241 123.182C291.923 123.182 292.491 122.136 292.787 121.659H292.946V123H294.241V111.364H292.901V115.659H292.787C292.491 115.205 291.969 114.159 290.264 114.159C288.06 114.159 286.537 115.909 286.537 118.659C286.537 121.432 288.06 123.182 290.241 123.182ZM290.423 121.977C288.741 121.977 287.878 120.5 287.878 118.636C287.878 116.795 288.719 115.364 290.423 115.364C292.06 115.364 292.923 116.682 292.923 118.636C292.923 120.614 292.037 121.977 290.423 121.977ZM303.065 116.227C302.645 114.989 301.702 114.159 299.974 114.159C298.134 114.159 296.77 115.205 296.77 116.682C296.77 117.886 297.486 118.693 299.088 119.068L300.543 119.409C301.423 119.614 301.838 120.034 301.838 120.636C301.838 121.386 301.043 122 299.793 122C298.696 122 298.009 121.528 297.77 120.591L296.497 120.909C296.81 122.392 298.031 123.182 299.815 123.182C301.844 123.182 303.224 122.074 303.224 120.568C303.224 119.352 302.463 118.585 300.906 118.205L299.611 117.886C298.577 117.631 298.111 117.284 298.111 116.614C298.111 115.864 298.906 115.318 299.974 115.318C301.145 115.318 301.628 115.966 301.861 116.568L303.065 116.227ZM319.288 115C318.857 112.614 316.947 111.205 314.607 111.205C311.629 111.205 309.47 113.5 309.47 117.182C309.47 120.864 311.629 123.159 314.607 123.159C316.947 123.159 318.857 121.75 319.288 119.364H317.879C317.538 120.977 316.152 121.841 314.607 121.841C312.493 121.841 310.834 120.205 310.834 117.182C310.834 114.159 312.493 112.523 314.607 112.523C316.152 112.523 317.538 113.386 317.879 115H319.288ZM324.929 123.182C327.293 123.182 328.884 121.386 328.884 118.682C328.884 115.955 327.293 114.159 324.929 114.159C322.565 114.159 320.974 115.955 320.974 118.682C320.974 121.386 322.565 123.182 324.929 123.182ZM324.929 121.977C323.134 121.977 322.315 120.432 322.315 118.682C322.315 116.932 323.134 115.364 324.929 115.364C326.724 115.364 327.543 116.932 327.543 118.682C327.543 120.432 326.724 121.977 324.929 121.977ZM332.271 117.75C332.271 116.227 333.214 115.364 334.499 115.364C335.743 115.364 336.499 116.176 336.499 117.545V123H337.839V117.455C337.839 115.227 336.652 114.159 334.885 114.159C333.567 114.159 332.749 114.75 332.339 115.636H332.226V114.273H330.93V123H332.271V117.75ZM341.631 117.75C341.631 116.227 342.574 115.364 343.858 115.364C345.102 115.364 345.858 116.176 345.858 117.545V123H347.199V117.455C347.199 115.227 346.011 114.159 344.244 114.159C342.926 114.159 342.108 114.75 341.699 115.636H341.585V114.273H340.29V123H341.631V117.75ZM353.308 123.182C355.081 123.182 356.376 122.295 356.786 120.977L355.49 120.614C355.149 121.523 354.359 121.977 353.308 121.977C351.734 121.977 350.649 120.96 350.587 119.091H356.922V118.523C356.922 115.273 354.99 114.159 353.172 114.159C350.808 114.159 349.24 116.023 349.24 118.705C349.24 121.386 350.786 123.182 353.308 123.182ZM350.587 117.932C350.678 116.574 351.638 115.364 353.172 115.364C354.626 115.364 355.558 116.455 355.558 117.932H350.587ZM362.507 123.182C364.439 123.182 365.712 122 365.939 120.455H364.598C364.348 121.409 363.553 121.977 362.507 121.977C360.916 121.977 359.893 120.659 359.893 118.636C359.893 116.659 360.939 115.364 362.507 115.364C363.689 115.364 364.393 116.091 364.598 116.886H365.939C365.712 115.25 364.325 114.159 362.484 114.159C360.121 114.159 358.553 116.023 358.553 118.682C358.553 121.295 360.053 123.182 362.507 123.182ZM371.695 114.273H369.831V112.182H368.49V114.273H367.172V115.409H368.49V120.864C368.49 122.386 369.717 123.114 370.854 123.114C371.354 123.114 371.672 123.023 371.854 122.955L371.581 121.75C371.467 121.773 371.286 121.818 370.99 121.818C370.399 121.818 369.831 121.636 369.831 120.5V115.409H371.695V114.273ZM373.712 123H375.053V114.273H373.712V123ZM374.393 112.818C374.916 112.818 375.348 112.409 375.348 111.909C375.348 111.409 374.916 111 374.393 111C373.871 111 373.439 111.409 373.439 111.909C373.439 112.409 373.871 112.818 374.393 112.818ZM381.054 123.182C383.418 123.182 385.009 121.386 385.009 118.682C385.009 115.955 383.418 114.159 381.054 114.159C378.69 114.159 377.099 115.955 377.099 118.682C377.099 121.386 378.69 123.182 381.054 123.182ZM381.054 121.977C379.259 121.977 378.44 120.432 378.44 118.682C378.44 116.932 379.259 115.364 381.054 115.364C382.849 115.364 383.668 116.932 383.668 118.682C383.668 120.432 382.849 121.977 381.054 121.977ZM388.396 117.75C388.396 116.227 389.339 115.364 390.624 115.364C391.868 115.364 392.624 116.176 392.624 117.545V123H393.964V117.455C393.964 115.227 392.777 114.159 391.01 114.159C389.692 114.159 388.874 114.75 388.464 115.636H388.351V114.273H387.055V123H388.396V117.75ZM401.392 118.091C401.392 120.955 402.165 123.341 403.551 125.364H404.733C403.642 123.864 402.778 120.795 402.778 118.091C402.778 115.386 403.642 112.318 404.733 110.818H403.551C402.165 112.841 401.392 115.227 401.392 118.091ZM412.553 111.364H411.212V123H412.553V111.364ZM415.009 123H416.349V114.273H415.009V123ZM415.69 112.818C416.213 112.818 416.645 112.409 416.645 111.909C416.645 111.409 416.213 111 415.69 111C415.168 111 414.736 111.409 414.736 111.909C414.736 112.409 415.168 112.818 415.69 112.818ZM418.805 123H420.146V119.733L421.084 118.864L424.351 123H426.055L422.095 118L425.783 114.273H424.124L420.305 118.159H420.146V111.364H418.805V123ZM430.808 123.182C432.581 123.182 433.876 122.295 434.286 120.977L432.99 120.614C432.649 121.523 431.859 121.977 430.808 121.977C429.234 121.977 428.149 120.96 428.087 119.091H434.422V118.523C434.422 115.273 432.49 114.159 430.672 114.159C428.308 114.159 426.74 116.023 426.74 118.705C426.74 121.386 428.286 123.182 430.808 123.182ZM428.087 117.932C428.178 116.574 429.138 115.364 430.672 115.364C432.126 115.364 433.058 116.455 433.058 117.932H428.087ZM173.114 140.273H171.159V139.386C171.159 138.523 171.523 138.068 172.409 138.068C172.795 138.068 173.023 138.159 173.159 138.205L173.545 137.045C173.341 136.955 172.932 136.818 172.273 136.818C171.023 136.818 169.818 137.568 169.818 139.068V140.273H168.409V141.409H169.818V149H171.159V141.409H173.114V140.273ZM178.179 149.182C180.543 149.182 182.134 147.386 182.134 144.682C182.134 141.955 180.543 140.159 178.179 140.159C175.815 140.159 174.224 141.955 174.224 144.682C174.224 147.386 175.815 149.182 178.179 149.182ZM178.179 147.977C176.384 147.977 175.565 146.432 175.565 144.682C175.565 142.932 176.384 141.364 178.179 141.364C179.974 141.364 180.793 142.932 180.793 144.682C180.793 146.432 179.974 147.977 178.179 147.977ZM185.521 137.364H184.18V149H185.521V137.364ZM189.318 137.364H187.977V149H189.318V137.364ZM195.32 149.182C197.683 149.182 199.274 147.386 199.274 144.682C199.274 141.955 197.683 140.159 195.32 140.159C192.956 140.159 191.365 141.955 191.365 144.682C191.365 147.386 192.956 149.182 195.32 149.182ZM195.32 147.977C193.524 147.977 192.706 146.432 192.706 144.682C192.706 142.932 193.524 141.364 195.32 141.364C197.115 141.364 197.933 142.932 197.933 144.682C197.933 146.432 197.115 147.977 195.32 147.977ZM203.001 149H204.32L206.229 142.295H206.365L208.274 149H209.592L212.251 140.273H210.842L208.956 146.932H208.865L207.024 140.273H205.592L203.729 146.955H203.638L201.751 140.273H200.342L203.001 149ZM217.386 149.182C219.159 149.182 220.455 148.295 220.864 146.977L219.568 146.614C219.227 147.523 218.438 147.977 217.386 147.977C215.812 147.977 214.727 146.96 214.665 145.091H221V144.523C221 141.273 219.068 140.159 217.25 140.159C214.886 140.159 213.318 142.023 213.318 144.705C213.318 147.386 214.864 149.182 217.386 149.182ZM214.665 143.932C214.756 142.574 215.716 141.364 217.25 141.364C218.705 141.364 219.636 142.455 219.636 143.932H214.665ZM223.04 149H224.381V143.477C224.381 142.295 225.312 141.432 226.585 141.432C226.943 141.432 227.312 141.5 227.403 141.523V140.159C227.25 140.148 226.898 140.136 226.699 140.136C225.653 140.136 224.744 140.727 224.426 141.591H224.335V140.273H223.04V149ZM235.175 142.227C234.754 140.989 233.811 140.159 232.084 140.159C230.243 140.159 228.879 141.205 228.879 142.682C228.879 143.886 229.595 144.693 231.197 145.068L232.652 145.409C233.533 145.614 233.947 146.034 233.947 146.636C233.947 147.386 233.152 148 231.902 148C230.805 148 230.118 147.528 229.879 146.591L228.607 146.909C228.919 148.392 230.141 149.182 231.925 149.182C233.953 149.182 235.334 148.074 235.334 146.568C235.334 145.352 234.572 144.585 233.016 144.205L231.72 143.886C230.686 143.631 230.22 143.284 230.22 142.614C230.22 141.864 231.016 141.318 232.084 141.318C233.254 141.318 233.737 141.966 233.97 142.568L235.175 142.227ZM244.716 144.091C244.716 141.227 243.943 138.841 242.557 136.818H241.375C242.466 138.318 243.33 141.386 243.33 144.091C243.33 146.795 242.466 149.864 241.375 151.364H242.557C243.943 149.341 244.716 146.955 244.716 144.091ZM249.649 147.409H248.195L248.126 148.045C247.962 149.585 247.638 151.119 247.49 151.841H248.513C248.786 151.068 249.365 149.318 249.558 148.023L249.649 147.409ZM256.815 149H258.224V144.75H260.77C263.48 144.75 264.702 143.102 264.702 141.045C264.702 138.989 263.48 137.364 260.747 137.364H256.815V149ZM258.224 143.5V138.614H260.702C262.594 138.614 263.315 139.648 263.315 141.045C263.315 142.443 262.594 143.5 260.724 143.5H258.224ZM266.79 149H268.131V143.477C268.131 142.295 269.062 141.432 270.335 141.432C270.693 141.432 271.062 141.5 271.153 141.523V140.159C271 140.148 270.648 140.136 270.449 140.136C269.403 140.136 268.494 140.727 268.176 141.591H268.085V140.273H266.79V149ZM272.743 149H274.084V140.273H272.743V149ZM273.425 138.818C273.947 138.818 274.379 138.409 274.379 137.909C274.379 137.409 273.947 137 273.425 137C272.902 137 272.47 137.409 272.47 137.909C272.47 138.409 272.902 138.818 273.425 138.818ZM283.676 140.273H282.222L279.812 147.227H279.722L277.312 140.273H275.858L279.085 149H280.449L283.676 140.273ZM287.749 149.205C289.271 149.205 290.067 148.386 290.339 147.818H290.408V149H291.749V143.25C291.749 140.477 289.635 140.159 288.521 140.159C287.203 140.159 285.703 140.614 285.021 142.205L286.294 142.659C286.589 142.023 287.288 141.341 288.567 141.341C289.8 141.341 290.408 141.994 290.408 143.114V143.159C290.408 143.807 289.749 143.75 288.158 143.955C286.538 144.165 284.771 144.523 284.771 146.523C284.771 148.227 286.089 149.205 287.749 149.205ZM287.953 148C286.885 148 286.112 147.523 286.112 146.591C286.112 145.568 287.044 145.25 288.089 145.114C288.658 145.045 290.18 144.886 290.408 144.614V145.841C290.408 146.932 289.544 148 287.953 148ZM297.991 140.273H296.128V138.182H294.787V140.273H293.469V141.409H294.787V146.864C294.787 148.386 296.014 149.114 297.151 149.114C297.651 149.114 297.969 149.023 298.151 148.955L297.878 147.75C297.764 147.773 297.582 147.818 297.287 147.818C296.696 147.818 296.128 147.636 296.128 146.5V141.409H297.991V140.273ZM303.574 149.182C305.347 149.182 306.642 148.295 307.051 146.977L305.756 146.614C305.415 147.523 304.625 147.977 303.574 147.977C302 147.977 300.915 146.96 300.852 145.091H307.188V144.523C307.188 141.273 305.256 140.159 303.438 140.159C301.074 140.159 299.506 142.023 299.506 144.705C299.506 147.386 301.051 149.182 303.574 149.182ZM300.852 143.932C300.943 142.574 301.903 141.364 303.438 141.364C304.892 141.364 305.824 142.455 305.824 143.932H300.852ZM313.909 137.364V149H315.227V140.159H315.341L318.977 149H320.25L323.886 140.159H324V149H325.318V137.364H323.636L319.682 147.023H319.545L315.591 137.364H313.909ZM331.621 149.182C333.393 149.182 334.689 148.295 335.098 146.977L333.803 146.614C333.462 147.523 332.672 147.977 331.621 147.977C330.047 147.977 328.962 146.96 328.899 145.091H335.234V144.523C335.234 141.273 333.303 140.159 331.484 140.159C329.121 140.159 327.553 142.023 327.553 144.705C327.553 147.386 329.098 149.182 331.621 149.182ZM328.899 143.932C328.99 142.574 329.95 141.364 331.484 141.364C332.939 141.364 333.871 142.455 333.871 143.932H328.899ZM343.456 142.227C343.036 140.989 342.092 140.159 340.365 140.159C338.524 140.159 337.161 141.205 337.161 142.682C337.161 143.886 337.876 144.693 339.479 145.068L340.933 145.409C341.814 145.614 342.229 146.034 342.229 146.636C342.229 147.386 341.433 148 340.183 148C339.087 148 338.399 147.528 338.161 146.591L336.888 146.909C337.2 148.392 338.422 149.182 340.206 149.182C342.234 149.182 343.615 148.074 343.615 146.568C343.615 145.352 342.854 144.585 341.297 144.205L340.001 143.886C338.967 143.631 338.501 143.284 338.501 142.614C338.501 141.864 339.297 141.318 340.365 141.318C341.536 141.318 342.018 141.966 342.251 142.568L343.456 142.227ZM351.815 142.227C351.395 140.989 350.452 140.159 348.724 140.159C346.884 140.159 345.52 141.205 345.52 142.682C345.52 143.886 346.236 144.693 347.838 145.068L349.293 145.409C350.173 145.614 350.588 146.034 350.588 146.636C350.588 147.386 349.793 148 348.543 148C347.446 148 346.759 147.528 346.52 146.591L345.247 146.909C345.56 148.392 346.781 149.182 348.565 149.182C350.594 149.182 351.974 148.074 351.974 146.568C351.974 145.352 351.213 144.585 349.656 144.205L348.361 143.886C347.327 143.631 346.861 143.284 346.861 142.614C346.861 141.864 347.656 141.318 348.724 141.318C349.895 141.318 350.378 141.966 350.611 142.568L351.815 142.227ZM356.561 149.205C358.084 149.205 358.879 148.386 359.152 147.818H359.22V149H360.561V143.25C360.561 140.477 358.447 140.159 357.334 140.159C356.016 140.159 354.516 140.614 353.834 142.205L355.107 142.659C355.402 142.023 356.101 141.341 357.379 141.341C358.612 141.341 359.22 141.994 359.22 143.114V143.159C359.22 143.807 358.561 143.75 356.97 143.955C355.351 144.165 353.584 144.523 353.584 146.523C353.584 148.227 354.902 149.205 356.561 149.205ZM356.766 148C355.697 148 354.925 147.523 354.925 146.591C354.925 145.568 355.857 145.25 356.902 145.114C357.47 145.045 358.993 144.886 359.22 144.614V145.841C359.22 146.932 358.357 148 356.766 148ZM366.531 152.455C368.622 152.455 370.304 151.5 370.304 149.25V140.273H369.009V141.659H368.872C368.577 141.205 368.031 140.159 366.327 140.159C364.122 140.159 362.599 141.909 362.599 144.591C362.599 147.318 364.19 148.864 366.304 148.864C368.009 148.864 368.554 147.864 368.849 147.386H368.963V149.159C368.963 150.614 367.94 151.273 366.531 151.273C364.946 151.273 364.389 150.438 364.031 149.955L362.963 150.705C363.509 151.619 364.582 152.455 366.531 152.455ZM366.486 147.659C364.804 147.659 363.94 146.386 363.94 144.568C363.94 142.795 364.781 141.364 366.486 141.364C368.122 141.364 368.986 142.682 368.986 144.568C368.986 146.5 368.099 147.659 366.486 147.659ZM376.418 149.182C378.19 149.182 379.486 148.295 379.895 146.977L378.599 146.614C378.259 147.523 377.469 147.977 376.418 147.977C374.844 147.977 373.759 146.96 373.696 145.091H380.031V144.523C380.031 141.273 378.099 140.159 376.281 140.159C373.918 140.159 372.349 142.023 372.349 144.705C372.349 147.386 373.895 149.182 376.418 149.182ZM373.696 143.932C373.787 142.574 374.747 141.364 376.281 141.364C377.736 141.364 378.668 142.455 378.668 143.932H373.696Z" fill="#656464"/>
<path d="M169.722 68.5455V86H172.756V73.983H172.918L177.741 85.9489H180.009L184.832 74.0085H184.994V86H188.028V68.5455H184.159L178.977 81.1932H178.773L173.591 68.5455H169.722ZM197.131 86.2557C200.182 86.2557 202.278 84.7642 202.824 82.4886L199.943 82.1648C199.526 83.2727 198.503 83.8523 197.173 83.8523C195.179 83.8523 193.858 82.5398 193.832 80.2983H202.952V79.3523C202.952 74.7585 200.19 72.7386 196.969 72.7386C193.219 72.7386 190.773 75.4915 190.773 79.5312C190.773 83.6392 193.185 86.2557 197.131 86.2557ZM193.841 78.2188C193.935 76.5483 195.17 75.142 197.011 75.142C198.784 75.142 199.977 76.4375 199.994 78.2188H193.841ZM205.562 86H208.647V78.0398C208.647 76.429 209.721 75.3381 211.05 75.3381C212.354 75.3381 213.249 76.2159 213.249 77.5625V86H216.275V77.8352C216.275 76.3608 217.153 75.3381 218.644 75.3381C219.888 75.3381 220.877 76.071 220.877 77.6903V86H223.971V77.2131C223.971 74.2898 222.283 72.7386 219.88 72.7386C217.979 72.7386 216.531 73.6761 215.951 75.1335H215.815C215.312 73.6506 214.042 72.7386 212.278 72.7386C210.522 72.7386 209.21 73.642 208.664 75.1335H208.511V72.9091H205.562V86ZM227.237 86H230.271V83.9375H230.45C230.936 84.892 231.95 86.2301 234.2 86.2301C237.286 86.2301 239.595 83.7841 239.595 79.4716C239.595 75.108 237.217 72.7386 234.192 72.7386C231.882 72.7386 230.919 74.1278 230.45 75.0739H230.322V68.5455H227.237V86ZM230.263 79.4545C230.263 76.9148 231.354 75.2699 233.339 75.2699C235.393 75.2699 236.45 77.017 236.45 79.4545C236.45 81.9091 235.376 83.6989 233.339 83.6989C231.371 83.6989 230.263 81.9943 230.263 79.4545ZM248.013 86.2557C251.065 86.2557 253.161 84.7642 253.707 82.4886L250.826 82.1648C250.408 83.2727 249.386 83.8523 248.056 83.8523C246.062 83.8523 244.741 82.5398 244.715 80.2983H253.835V79.3523C253.835 74.7585 251.073 72.7386 247.852 72.7386C244.102 72.7386 241.656 75.4915 241.656 79.5312C241.656 83.6392 244.067 86.2557 248.013 86.2557ZM244.724 78.2188C244.817 76.5483 246.053 75.142 247.894 75.142C249.667 75.142 250.86 76.4375 250.877 78.2188H244.724ZM256.445 86H259.53V78.304C259.53 76.642 260.783 75.4659 262.479 75.4659C262.999 75.4659 263.646 75.5597 263.911 75.6449V72.8068C263.629 72.7557 263.143 72.7216 262.803 72.7216C261.303 72.7216 260.05 73.5739 259.572 75.0909H259.436V72.9091H256.445V86ZM276.307 76.3693C275.881 74.1534 274.108 72.7386 271.04 72.7386C267.886 72.7386 265.739 74.2898 265.747 76.7102C265.739 78.6193 266.915 79.8807 269.429 80.4006L271.662 80.8693C272.864 81.1335 273.426 81.6193 273.426 82.3608C273.426 83.2557 272.455 83.929 270.989 83.929C269.574 83.929 268.653 83.3153 268.389 82.1392L265.381 82.429C265.764 84.8324 267.784 86.2557 270.997 86.2557C274.27 86.2557 276.58 84.5597 276.588 82.0795C276.58 80.2131 275.378 79.071 272.906 78.5341L270.673 78.0568C269.344 77.7585 268.815 77.2983 268.824 76.5398C268.815 75.6534 269.795 75.0398 271.082 75.0398C272.506 75.0398 273.256 75.8153 273.494 76.6761L276.307 76.3693ZM282.754 83.6136H280.027L279.967 84.5682C279.822 86.8778 279.217 89.2301 278.97 90.2614H281.05C281.459 89.1875 282.405 86.6989 282.643 84.5511L282.754 83.6136ZM291.761 86H294.923V78.5852H302.175V75.9347H294.923V71.196H302.942V68.5455H291.761V86ZM305.499 86H308.585V78.304C308.585 76.642 309.837 75.4659 311.533 75.4659C312.053 75.4659 312.701 75.5597 312.965 75.6449V72.8068C312.684 72.7557 312.198 72.7216 311.857 72.7216C310.357 72.7216 309.104 73.5739 308.627 75.0909H308.491V72.9091H305.499V86ZM315.015 86H318.1V72.9091H315.015V86ZM316.566 71.0511C317.546 71.0511 318.347 70.3011 318.347 69.3807C318.347 68.4517 317.546 67.7017 316.566 67.7017C315.577 67.7017 314.776 68.4517 314.776 69.3807C314.776 70.3011 315.577 71.0511 316.566 71.0511ZM327.068 86.2557C330.119 86.2557 332.216 84.7642 332.761 82.4886L329.881 82.1648C329.463 83.2727 328.44 83.8523 327.111 83.8523C325.116 83.8523 323.795 82.5398 323.77 80.2983H332.889V79.3523C332.889 74.7585 330.128 72.7386 326.906 72.7386C323.156 72.7386 320.71 75.4915 320.71 79.5312C320.71 83.6392 323.122 86.2557 327.068 86.2557ZM323.778 78.2188C323.872 76.5483 325.108 75.142 326.949 75.142C328.722 75.142 329.915 76.4375 329.932 78.2188H323.778ZM338.585 78.3295C338.585 76.4375 339.727 75.3466 341.354 75.3466C342.948 75.3466 343.903 76.3949 343.903 78.142V86H346.988V77.6648C346.996 74.5284 345.207 72.7386 342.505 72.7386C340.545 72.7386 339.198 73.6761 338.602 75.1335H338.448V72.9091H335.499V86H338.585V78.3295ZM354.982 86.2301C357.232 86.2301 358.246 84.892 358.732 83.9375H358.92V86H361.954V68.5455H358.86V75.0739H358.732C358.263 74.1278 357.3 72.7386 354.991 72.7386C351.965 72.7386 349.587 75.108 349.587 79.4716C349.587 83.7841 351.897 86.2301 354.982 86.2301ZM355.843 83.6989C353.806 83.6989 352.732 81.9091 352.732 79.4545C352.732 77.017 353.789 75.2699 355.843 75.2699C357.829 75.2699 358.92 76.9148 358.92 79.4545C358.92 81.9943 357.812 83.6989 355.843 83.6989ZM375.588 76.3693C375.162 74.1534 373.389 72.7386 370.321 72.7386C367.168 72.7386 365.02 74.2898 365.028 76.7102C365.02 78.6193 366.196 79.8807 368.71 80.4006L370.943 80.8693C372.145 81.1335 372.707 81.6193 372.707 82.3608C372.707 83.2557 371.736 83.929 370.27 83.929C368.855 83.929 367.935 83.3153 367.67 82.1392L364.662 82.429C365.045 84.8324 367.065 86.2557 370.278 86.2557C373.551 86.2557 375.861 84.5597 375.869 82.0795C375.861 80.2131 374.659 79.071 372.188 78.5341L369.955 78.0568C368.625 77.7585 368.097 77.2983 368.105 76.5398C368.097 75.6534 369.077 75.0398 370.364 75.0398C371.787 75.0398 372.537 75.8153 372.776 76.6761L375.588 76.3693Z" fill="#2F2C4A"/>
<defs>
<filter id="filter0_d_5_1246" x="0" y="0" width="602" height="262" filterUnits="userSpaceOnUse" color-interpolation-filters="sRGB">
<feFlood flood-opacity="0" result="BackgroundImageFix"/>
<feColorMatrix in="SourceAlpha" type="matrix" values="0 0 0 0 0 0 0 0 0 0 0 0 0 0 0 0 0 0 127 0" result="hardAlpha"/>
<feMorphology radius="12" operator="erode" in="SourceAlpha" result="effect1_dropShadow_5_1246"/>
<feOffset dx="14" dy="22"/>
<feGaussianBlur stdDeviation="26"/>
<feColorMatrix type="matrix" values="0 0 0 0 0.496137 0 0 0 0 0.496137 0 0 0 0 0.496137 0 0 0 0.13 0"/>
<feBlend mode="normal" in2="BackgroundImageFix" result="effect1_dropShadow_5_1246"/>
<feBlend mode="normal" in="SourceGraphic" in2="effect1_dropShadow_5_1246" result="shape"/>
</filter>
<filter id="filter1_d_5_1246" x="46" y="48" width="106" height="106" filterUnits="userSpaceOnUse" color-interpolation-filters="sRGB">
<feFlood flood-opacity="0" result="BackgroundImageFix"/>
<feColorMatrix in="SourceAlpha" type="matrix" values="0 0 0 0 0 0 0 0 0 0 0 0 0 0 0 0 0 0 127 0" result="hardAlpha"/>
<feMorphology radius="2" operator="erode" in="SourceAlpha" result="effect1_dropShadow_5_1246"/>
<feOffset dy="10"/>
<feGaussianBlur stdDeviation="11"/>
<feColorMatrix type="matrix" values="0 0 0 0 0.427083 0 0 0 0 0.671455 0 0 0 0 1 0 0 0 0.36 0"/>
<feBlend mode="normal" in2="BackgroundImageFix" result="effect1_dropShadow_5_1246"/>
<feBlend mode="normal" in="SourceGraphic" in2="effect1_dropShadow_5_1246" result="shape"/>
</filter>
<linearGradient id="paint0_linear_5_1246" x1="79.5" y1="58" x2="111" y2="124" gradientUnits="userSpaceOnUse">
<stop stop-color="#5CA1FE"/>
<stop offset="1" stop-color="#217BF4"/>
</linearGradient>
</defs>
</svg>
