<svg width="1331" height="96" viewBox="0 0 1331 96" fill="none" xmlns="http://www.w3.org/2000/svg">
<rect x="-109" width="1440" height="96" fill="#20202D"/>
<circle cx="1178" cy="48" r="18" fill="white"/>
<path d="M1171.57 43.5973C1172.68 43.5973 1173.57 42.6993 1173.57 41.5916C1173.57 40.4839 1172.68 39.5859 1171.57 39.5859C1170.46 39.5859 1169.56 40.4839 1169.56 41.5916C1169.56 42.6993 1170.46 43.5973 1171.57 43.5973Z" fill="#2B2B39"/>
<path d="M1175.47 45.117V56.2445H1178.92V50.7417C1178.92 49.2897 1179.19 47.8835 1180.99 47.8835C1182.77 47.8835 1182.79 49.5436 1182.79 50.8334V56.2454H1186.25V50.1431C1186.25 47.1456 1185.6 44.842 1182.1 44.842C1180.42 44.842 1179.29 45.7651 1178.83 46.6387H1178.78V45.117H1175.47ZM1169.84 45.117H1173.3V56.2445H1169.84V45.117Z" fill="#2B2B39"/>
<circle cx="1134" cy="48" r="18" fill="white"/>
<path d="M1132.51 48.0949V57.2431H1135.55V48.2378H1138.06L1138.45 44.9502H1135.55V42.9491C1135.55 41.9485 1135.81 41.3767 1137 41.3767H1138.58V38.5179C1138.32 38.5179 1137.4 38.375 1136.34 38.375C1134.1 38.375 1132.51 39.9473 1132.51 42.6632V44.9502H1129.88V48.0949H1132.51Z" fill="#2B2B39"/>
<circle cx="1090" cy="48" r="18" fill="white"/>
<path d="M1089.95 40.2542C1092.48 40.2542 1092.75 40.2542 1093.76 40.3C1094.68 40.3458 1095.18 40.4833 1095.5 40.6208C1095.91 40.7583 1096.28 41.0333 1096.6 41.3083C1096.92 41.6292 1097.15 41.9958 1097.29 42.4083C1097.43 42.7292 1097.56 43.2333 1097.61 44.15C1097.65 45.1583 1097.65 45.4333 1097.65 47.9542C1097.65 50.475 1097.65 50.75 1097.61 51.7583C1097.56 52.675 1097.43 53.1792 1097.29 53.5C1096.97 54.325 1096.33 54.9667 1095.5 55.2875C1095.18 55.425 1094.68 55.5625 1093.76 55.6083C1092.75 55.6542 1092.48 55.6542 1089.95 55.6542C1087.43 55.6542 1087.16 55.6542 1086.15 55.6083C1085.23 55.5625 1084.73 55.425 1084.41 55.2875C1084 55.15 1083.63 54.875 1083.31 54.6C1082.99 54.2792 1082.76 53.9125 1082.62 53.5C1082.48 53.1792 1082.35 52.675 1082.3 51.7583C1082.25 50.75 1082.25 50.475 1082.25 47.9542C1082.25 45.4333 1082.25 45.1583 1082.3 44.15C1082.35 43.2333 1082.48 42.7292 1082.62 42.4083C1082.76 41.9958 1083.03 41.6292 1083.31 41.3083C1083.63 40.9875 1084 40.7583 1084.41 40.6208C1084.73 40.4833 1085.23 40.3458 1086.15 40.3C1087.16 40.2542 1087.48 40.2542 1089.95 40.2542ZM1089.95 38.5583C1087.39 38.5583 1087.07 38.5583 1086.06 38.6042C1085.05 38.65 1084.36 38.7875 1083.77 39.0625C1083.17 39.2917 1082.62 39.6583 1082.16 40.1167C1081.7 40.575 1081.29 41.1708 1081.06 41.7667C1080.83 42.3625 1080.65 43.05 1080.6 44.0583C1080.56 45.0667 1080.56 45.3875 1080.56 47.9542C1080.56 50.5208 1080.56 50.8417 1080.6 51.85C1080.65 52.8583 1080.79 53.5458 1081.06 54.1417C1081.29 54.7375 1081.66 55.3333 1082.16 55.7917C1082.62 56.25 1083.22 56.6625 1083.81 56.8917C1084.41 57.1208 1085.1 57.3042 1086.1 57.35C1087.11 57.3958 1087.43 57.3958 1090 57.3958C1092.57 57.3958 1092.89 57.3958 1093.9 57.35C1094.9 57.3042 1095.59 57.1667 1096.19 56.8917C1097.47 56.3875 1098.43 55.425 1098.94 54.1417C1099.17 53.5458 1099.35 52.8583 1099.4 51.85C1099.44 50.8417 1099.44 50.5208 1099.44 47.9542C1099.44 45.3875 1099.44 45.0667 1099.4 44.0583C1099.35 43.05 1099.21 42.3625 1098.94 41.7667C1098.71 41.125 1098.34 40.575 1097.84 40.1167C1097.38 39.6583 1096.78 39.2458 1096.19 39.0167C1095.59 38.7875 1094.9 38.6042 1093.9 38.5583C1092.84 38.5583 1092.52 38.5583 1089.95 38.5583Z" fill="#2B2B39"/>
<path d="M1089.95 43.1416C1087.29 43.1416 1085.14 45.2958 1085.14 47.9541C1085.14 50.6124 1087.29 52.7666 1089.95 52.7666C1092.61 52.7666 1094.77 50.6124 1094.77 47.9541C1094.81 45.2958 1092.66 43.1416 1089.95 43.1416ZM1089.95 51.1166C1088.21 51.1166 1086.84 49.6958 1086.84 47.9999C1086.84 46.2583 1088.26 44.8833 1089.95 44.8833C1091.69 44.8833 1093.07 46.3041 1093.07 47.9999C1093.12 49.6958 1091.69 51.1166 1089.95 51.1166Z" fill="#2B2B39"/>
<path d="M1095 44.1042C1095.63 44.1042 1096.14 43.5912 1096.14 42.9583C1096.14 42.3255 1095.63 41.8125 1095 41.8125C1094.36 41.8125 1093.85 42.3255 1093.85 42.9583C1093.85 43.5912 1094.36 44.1042 1095 44.1042Z" fill="#2B2B39"/>
<circle cx="1046" cy="48" r="18" fill="white"/>
<path d="M1053.76 42.1305C1054.62 41.6148 1055.28 40.7983 1055.59 39.8255C1054.79 40.3029 1053.9 40.6496 1052.95 40.8365C1052.19 40.0268 1051.11 39.5208 1049.91 39.5208C1047.61 39.5208 1045.74 41.3862 1045.74 43.6871C1045.74 44.0136 1045.78 44.3317 1045.85 44.6366C1042.39 44.4628 1039.32 42.8041 1037.26 40.2834C1036.9 40.8988 1036.7 41.6145 1036.7 42.378C1036.7 43.8235 1037.43 45.0988 1038.55 45.8459C1037.87 45.8243 1037.23 45.6369 1036.66 45.3248C1036.66 45.3422 1036.66 45.3596 1036.66 45.3772C1036.66 47.3959 1038.1 49.0799 1040.01 49.4626C1039.66 49.5578 1039.29 49.6087 1038.91 49.6087C1038.64 49.6087 1038.38 49.5826 1038.12 49.5339C1038.65 51.1893 1040.19 52.3938 1042.02 52.4275C1040.59 53.5449 1038.79 54.211 1036.84 54.211C1036.51 54.211 1036.17 54.1913 1035.85 54.1528C1037.69 55.335 1039.88 56.0247 1042.23 56.0247C1049.9 56.0247 1054.09 49.676 1054.09 44.1702C1054.09 43.9896 1054.08 43.8099 1054.08 43.6312C1054.89 43.0438 1055.6 42.31 1056.16 41.4745C1055.41 41.8058 1054.61 42.0298 1053.76 42.1305Z" fill="#2B2B39"/>
<path d="M596.624 39.224V50.744L589.016 39.224H585.656V56H589.016V44.504L596.624 56H599.984V39.224H596.624ZM609.016 45.248C610.744 45.248 612.136 46.352 612.184 48.104H605.872C606.136 46.28 607.408 45.248 609.016 45.248ZM615.328 51.824H611.704C611.272 52.712 610.48 53.432 609.04 53.432C607.36 53.432 606.016 52.328 605.848 50.36H615.568C615.64 49.928 615.664 49.496 615.664 49.064C615.664 45.104 612.952 42.488 609.112 42.488C605.176 42.488 602.44 45.152 602.44 49.352C602.44 53.528 605.248 56.216 609.112 56.216C612.4 56.216 614.608 54.272 615.328 51.824ZM618.645 51.872C618.645 54.92 620.349 56 622.893 56H625.005V53.168H623.445C622.389 53.168 622.029 52.784 622.029 51.896V45.464H625.005V42.704H622.029V39.416H618.645V42.704H617.061V45.464H618.645V51.872ZM630.782 44.648V38.24H627.422V56H630.782V54.104C631.598 55.256 633.086 56.216 635.174 56.216C638.582 56.216 641.246 53.456 641.246 49.304C641.246 45.152 638.582 42.488 635.174 42.488C633.158 42.488 631.598 43.424 630.782 44.648ZM637.814 49.304C637.814 51.824 636.11 53.264 634.286 53.264C632.486 53.264 630.782 51.872 630.782 49.352C630.782 46.832 632.486 45.44 634.286 45.44C636.11 45.44 637.814 46.784 637.814 49.304ZM656.527 49.352C656.527 45.152 653.527 42.488 649.687 42.488C645.847 42.488 642.847 45.152 642.847 49.352C642.847 53.528 645.751 56.216 649.591 56.216C653.455 56.216 656.527 53.528 656.527 49.352ZM646.255 49.352C646.255 46.688 647.863 45.416 649.639 45.416C651.415 45.416 653.071 46.688 653.071 49.352C653.071 51.992 651.367 53.288 649.591 53.288C647.791 53.288 646.255 51.992 646.255 49.352ZM671.832 49.352C671.832 45.152 668.832 42.488 664.992 42.488C661.152 42.488 658.152 45.152 658.152 49.352C658.152 53.528 661.056 56.216 664.896 56.216C668.76 56.216 671.832 53.528 671.832 49.352ZM661.56 49.352C661.56 46.688 663.168 45.416 664.944 45.416C666.72 45.416 668.376 46.688 668.376 49.352C668.376 51.992 666.672 53.288 664.896 53.288C663.096 53.288 661.56 51.992 661.56 49.352ZM674.297 56H677.657V50.336L682.169 56H686.537L680.633 49.376L686.489 42.704H682.121L677.657 48.344V38.24H674.297V56Z" fill="white"/>
<path d="M578.001 48.0001C578.001 57.3889 570.39 65.0001 561.001 65.0001C557.061 65.0001 553.434 63.6595 550.551 61.4095L568.783 43.177C569.653 44.5776 570.155 46.2294 570.155 48.0001C570.155 52.1928 567.336 55.7271 563.49 56.8114C562.917 56.0654 562.015 55.5847 561.001 55.5847C559.268 55.5847 557.863 56.9898 557.863 58.7231C557.863 60.4565 559.268 61.8616 561.001 61.8616C562.299 61.8616 563.413 61.0741 563.89 59.9509C569.285 58.6513 573.294 53.7938 573.294 48.0001C573.294 45.3619 572.461 42.9162 571.046 40.9138L574.411 37.5496C576.661 40.4325 578.001 44.0597 578.001 48.0001Z" fill="#FFAF2E"/>
<path d="M550.955 55.0862L547.591 58.4505C545.341 55.5676 544 51.9403 544 48C544 38.6112 551.611 31 561 31C564.94 31 568.568 32.3406 571.45 34.5905L553.218 52.823C552.348 51.4225 551.846 49.7708 551.846 48C551.846 43.8073 554.665 40.2729 558.511 39.1887C559.085 39.9346 559.986 40.4154 561 40.4154C562.733 40.4154 564.138 39.0102 564.138 37.2769C564.138 35.5436 562.733 34.1385 561 34.1385C559.702 34.1385 558.589 34.926 558.111 36.0491C552.716 37.3487 548.708 42.2063 548.708 48C548.708 50.6379 549.54 53.0838 550.955 55.0862Z" fill="#F04148"/>
<circle cx="560.999" cy="37.2769" r="1.30769" fill="#F04148"/>
<circle cx="560.999" cy="58.7232" r="1.30769" fill="#FFAF2E"/>
<path d="M27.233 53H30.9119C33.3182 53 34.3125 51.8267 34.3125 50.2955C34.3125 48.6847 33.1989 47.8097 32.2642 47.75V47.6506C33.1392 47.4119 33.9148 46.8352 33.9148 45.5227C33.9148 44.0312 32.9205 42.8182 30.7926 42.8182H27.233V53ZM28.4659 51.9062V48.3665H30.9716C32.304 48.3665 33.1392 49.2614 33.1392 50.2955C33.1392 51.1903 32.5227 51.9062 30.9119 51.9062H28.4659ZM28.4659 47.2926V43.9119H30.7926C32.1449 43.9119 32.7415 44.6278 32.7415 45.5227C32.7415 46.5966 31.8665 47.2926 30.7528 47.2926H28.4659ZM39.381 53.1591C40.9322 53.1591 42.0657 52.3835 42.4237 51.2301L41.2901 50.9119C40.9918 51.7074 40.3008 52.1051 39.381 52.1051C38.0039 52.1051 37.0543 51.2152 36.9996 49.5795H42.543V49.0824C42.543 46.2386 40.8526 45.2642 39.2617 45.2642C37.1935 45.2642 35.8214 46.8949 35.8214 49.2415C35.8214 51.5881 37.1737 53.1591 39.381 53.1591ZM36.9996 48.5653C37.0792 47.3771 37.9194 46.3182 39.2617 46.3182C40.5344 46.3182 41.3498 47.2727 41.3498 48.5653H36.9996ZM49.7369 47.0739C49.369 45.9901 48.5437 45.2642 47.0323 45.2642C45.4215 45.2642 44.2283 46.179 44.2283 47.4716C44.2283 48.5256 44.8548 49.2315 46.2567 49.5597L47.5295 49.858C48.3001 50.0369 48.663 50.4048 48.663 50.9318C48.663 51.5881 47.967 52.125 46.8732 52.125C45.9137 52.125 45.3121 51.7124 45.1033 50.892L43.9897 51.1705C44.2631 52.468 45.332 53.1591 46.8931 53.1591C48.668 53.1591 49.8761 52.1896 49.8761 50.8722C49.8761 49.8082 49.2099 49.1371 47.8477 48.804L46.7141 48.5256C45.8093 48.3018 45.4016 47.9986 45.4016 47.4119C45.4016 46.7557 46.0977 46.2784 47.0323 46.2784C48.0565 46.2784 48.479 46.8452 48.6829 47.3722L49.7369 47.0739ZM52.8155 48.4062C52.8155 47.0739 53.6408 46.3182 54.7644 46.3182C55.8532 46.3182 56.5144 47.0291 56.5144 48.2273V53H57.6877V48.1477C57.6877 46.1989 56.6486 45.2642 55.1025 45.2642C53.949 45.2642 53.2331 45.7812 52.8752 46.5568H52.7757V45.3636H51.6422V53H52.8155V48.4062ZM59.8317 53H61.005V45.3636H59.8317V53ZM60.4283 44.0909C60.8857 44.0909 61.2635 43.733 61.2635 43.2955C61.2635 42.858 60.8857 42.5 60.4283 42.5C59.9709 42.5 59.593 42.858 59.593 43.2955C59.593 43.733 59.9709 44.0909 60.4283 44.0909ZM63.1539 53H64.3272V50.1413L65.1475 49.3807L68.0062 53H69.4977L66.0325 48.625L69.2591 45.3636H67.8074L64.4664 48.7642H64.3272V42.8182H63.1539V53ZM83.0589 46C82.6811 43.9119 81.0107 42.679 78.9624 42.679C76.3572 42.679 74.468 44.6875 74.468 47.9091C74.468 51.1307 76.3572 53.1392 78.9624 53.1392C81.0107 53.1392 82.6811 51.9062 83.0589 49.8182H81.826C81.5277 51.2301 80.3146 51.9858 78.9624 51.9858C77.1129 51.9858 75.6612 50.554 75.6612 47.9091C75.6612 45.2642 77.1129 43.8324 78.9624 43.8324C80.3146 43.8324 81.5277 44.5881 81.826 46H83.0589ZM84.8922 53H86.0655V48.1676C86.0655 47.1335 86.8809 46.3778 87.9945 46.3778C88.3077 46.3778 88.6309 46.4375 88.7104 46.4574V45.2642C88.5762 45.2543 88.2679 45.2443 88.0939 45.2443C87.1792 45.2443 86.3837 45.7614 86.1053 46.517H86.0257V45.3636H84.8922V53ZM93.0705 53.1591C94.6216 53.1591 95.7551 52.3835 96.1131 51.2301L94.9796 50.9119C94.6813 51.7074 93.9902 52.1051 93.0705 52.1051C91.6934 52.1051 90.7438 51.2152 90.6891 49.5795H96.2324V49.0824C96.2324 46.2386 94.5421 45.2642 92.9512 45.2642C90.883 45.2642 89.5108 46.8949 89.5108 49.2415C89.5108 51.5881 90.8631 53.1591 93.0705 53.1591ZM90.6891 48.5653C90.7686 47.3771 91.6088 46.3182 92.9512 46.3182C94.2239 46.3182 95.0392 47.2727 95.0392 48.5653H90.6891ZM100.264 53.179C101.597 53.179 102.293 52.4631 102.531 51.9659H102.591V53H103.764V47.9688C103.764 45.5426 101.915 45.2642 100.941 45.2642C99.7871 45.2642 98.4746 45.6619 97.878 47.054L98.9917 47.4517C99.2502 46.8949 99.8617 46.2983 100.98 46.2983C102.059 46.2983 102.591 46.87 102.591 47.8494V47.8892C102.591 48.456 102.014 48.4062 100.622 48.5852C99.2054 48.7692 97.6593 49.0824 97.6593 50.8324C97.6593 52.3239 98.8127 53.179 100.264 53.179ZM100.443 52.125C99.5087 52.125 98.8326 51.7074 98.8326 50.892C98.8326 49.9972 99.6479 49.7188 100.563 49.5994C101.06 49.5398 102.392 49.4006 102.591 49.1619V50.2358C102.591 51.1903 101.835 52.125 100.443 52.125ZM109.227 45.3636H107.596V43.5341H106.423V45.3636H105.27V46.358H106.423V51.1307C106.423 52.4631 107.497 53.0994 108.491 53.0994C108.929 53.0994 109.207 53.0199 109.366 52.9602L109.127 51.9062C109.028 51.9261 108.869 51.9659 108.61 51.9659C108.093 51.9659 107.596 51.8068 107.596 50.8125V46.358H109.227V45.3636ZM110.992 53H112.165V45.3636H110.992V53ZM111.588 44.0909C112.046 44.0909 112.424 43.733 112.424 43.2955C112.424 42.858 112.046 42.5 111.588 42.5C111.131 42.5 110.753 42.858 110.753 43.2955C110.753 43.733 111.131 44.0909 111.588 44.0909ZM120.558 45.3636H119.286L117.178 51.4489H117.098L114.99 45.3636H113.718L116.541 53H117.735L120.558 45.3636ZM125.035 53.1591C126.586 53.1591 127.72 52.3835 128.078 51.2301L126.944 50.9119C126.646 51.7074 125.955 52.1051 125.035 52.1051C123.658 52.1051 122.709 51.2152 122.654 49.5795H128.197V49.0824C128.197 46.2386 126.507 45.2642 124.916 45.2642C122.848 45.2642 121.476 46.8949 121.476 49.2415C121.476 51.5881 122.828 53.1591 125.035 53.1591ZM122.654 48.5653C122.733 47.3771 123.574 46.3182 124.916 46.3182C126.189 46.3182 127.004 47.2727 127.004 48.5653H122.654ZM134.496 53L135.52 50.1165H139.637L140.661 53H141.954L138.215 42.8182H136.942L133.204 53H134.496ZM135.908 49.0227L137.539 44.429H137.618L139.249 49.0227H135.908ZM146.463 56.0227C148.292 56.0227 149.764 55.1875 149.764 53.2188V45.3636H148.631V46.5767H148.511C148.253 46.179 147.775 45.2642 146.284 45.2642C144.355 45.2642 143.023 46.7955 143.023 49.142C143.023 51.5284 144.415 52.8807 146.264 52.8807C147.756 52.8807 148.233 52.0057 148.491 51.5881H148.591V53.1392C148.591 54.4119 147.696 54.9886 146.463 54.9886C145.076 54.9886 144.589 54.2578 144.275 53.8352L143.341 54.4915C143.818 55.2919 144.758 56.0227 146.463 56.0227ZM146.423 51.8267C144.952 51.8267 144.196 50.7131 144.196 49.1222C144.196 47.571 144.932 46.3182 146.423 46.3182C147.855 46.3182 148.611 47.4716 148.611 49.1222C148.611 50.8125 147.835 51.8267 146.423 51.8267ZM155.113 53.1591C156.665 53.1591 157.798 52.3835 158.156 51.2301L157.023 50.9119C156.724 51.7074 156.033 52.1051 155.113 52.1051C153.736 52.1051 152.787 51.2152 152.732 49.5795H158.275V49.0824C158.275 46.2386 156.585 45.2642 154.994 45.2642C152.926 45.2642 151.554 46.8949 151.554 49.2415C151.554 51.5881 152.906 53.1591 155.113 53.1591ZM152.732 48.5653C152.812 47.3771 153.652 46.3182 154.994 46.3182C156.267 46.3182 157.082 47.2727 157.082 48.5653H152.732ZM161.233 48.4062C161.233 47.0739 162.059 46.3182 163.182 46.3182C164.271 46.3182 164.932 47.0291 164.932 48.2273V53H166.106V48.1477C166.106 46.1989 165.067 45.2642 163.52 45.2642C162.367 45.2642 161.651 45.7812 161.293 46.5568H161.194V45.3636H160.06V53H161.233V48.4062ZM171.352 53.1591C173.042 53.1591 174.156 52.125 174.355 50.7727H173.181C172.963 51.608 172.267 52.1051 171.352 52.1051C169.96 52.1051 169.065 50.9517 169.065 49.1818C169.065 47.4517 169.98 46.3182 171.352 46.3182C172.386 46.3182 173.002 46.9545 173.181 47.6506H174.355C174.156 46.2188 172.943 45.2642 171.332 45.2642C169.264 45.2642 167.892 46.8949 167.892 49.2216C167.892 51.5085 169.204 53.1591 171.352 53.1591ZM176.826 55.8636C177.885 55.8636 178.63 55.3018 179.073 54.1136L182.324 45.3835L181.042 45.3636L178.934 51.4489H178.854L176.746 45.3636H175.473L178.297 53.0398L178.078 53.6364C177.651 54.7997 177.124 54.9091 176.269 54.6903L175.971 55.7244C176.09 55.7841 176.428 55.8636 176.826 55.8636ZM184.253 53.0795C184.745 53.0795 185.148 52.6768 185.148 52.1847C185.148 51.6925 184.745 51.2898 184.253 51.2898C183.761 51.2898 183.358 51.6925 183.358 52.1847C183.358 52.6768 183.761 53.0795 184.253 53.0795Z" fill="#F6F6F6"/>
</svg>
