<svg width="168" height="36" viewBox="0 0 168 36" fill="none" xmlns="http://www.w3.org/2000/svg">
<circle cx="150" cy="18" r="18" fill="white"/>
<path d="M143.568 13.5973C144.675 13.5973 145.573 12.6993 145.573 11.5916C145.573 10.4839 144.675 9.58594 143.568 9.58594C142.46 9.58594 141.562 10.4839 141.562 11.5916C141.562 12.6993 142.46 13.5973 143.568 13.5973Z" fill="#2B2B39"/>
<path d="M147.466 15.117V26.2445H150.921V20.7417C150.921 19.2897 151.194 17.8835 152.995 17.8835C154.77 17.8835 154.792 19.5436 154.792 20.8334V26.2454H158.249V20.1431C158.249 17.1456 157.604 14.842 154.1 14.842C152.418 14.842 151.29 15.7651 150.829 16.6387H150.783V15.117H147.466V15.117ZM141.836 15.117H145.296V26.2445H141.836V15.117Z" fill="#2B2B39"/>
<circle cx="106" cy="18" r="18" fill="white"/>
<path d="M104.514 18.0949V27.2431H107.549V18.2378H110.056L110.451 14.9502H107.549V12.9491C107.549 11.9485 107.812 11.3767 109 11.3767H110.583V8.51794C110.319 8.51794 109.396 8.375 108.34 8.375C106.097 8.375 104.514 9.94734 104.514 12.6632V14.9502H101.875V18.0949H104.514Z" fill="#2B2B39"/>
<circle cx="62" cy="18" r="18" fill="white"/>
<path d="M61.9542 10.2542C64.475 10.2542 64.75 10.2542 65.7583 10.3C66.675 10.3458 67.1792 10.4833 67.5 10.6208C67.9125 10.7583 68.2792 11.0333 68.6 11.3083C68.9208 11.6292 69.15 11.9958 69.2875 12.4083C69.425 12.7292 69.5625 13.2333 69.6083 14.15C69.6542 15.1583 69.6542 15.4333 69.6542 17.9542C69.6542 20.475 69.6542 20.75 69.6083 21.7583C69.5625 22.675 69.425 23.1792 69.2875 23.5C68.9667 24.325 68.325 24.9667 67.5 25.2875C67.1792 25.425 66.675 25.5625 65.7583 25.6083C64.75 25.6542 64.475 25.6542 61.9542 25.6542C59.4333 25.6542 59.1583 25.6542 58.15 25.6083C57.2333 25.5625 56.7292 25.425 56.4083 25.2875C55.9958 25.15 55.6292 24.875 55.3083 24.6C54.9875 24.2792 54.7583 23.9125 54.6208 23.5C54.4833 23.1792 54.3458 22.675 54.3 21.7583C54.2542 20.75 54.2542 20.475 54.2542 17.9542C54.2542 15.4333 54.2542 15.1583 54.3 14.15C54.3458 13.2333 54.4833 12.7292 54.6208 12.4083C54.7583 11.9958 55.0333 11.6292 55.3083 11.3083C55.6292 10.9875 55.9958 10.7583 56.4083 10.6208C56.7292 10.4833 57.2333 10.3458 58.15 10.3C59.1583 10.2542 59.4792 10.2542 61.9542 10.2542ZM61.9542 8.55835C59.3875 8.55835 59.0667 8.55835 58.0583 8.60418C57.05 8.65002 56.3625 8.78752 55.7667 9.06252C55.1708 9.29168 54.6208 9.65835 54.1625 10.1167C53.7042 10.575 53.2917 11.1708 53.0625 11.7667C52.8333 12.3625 52.65 13.05 52.6042 14.0583C52.5583 15.0667 52.5583 15.3875 52.5583 17.9542C52.5583 20.5208 52.5583 20.8417 52.6042 21.85C52.65 22.8583 52.7875 23.5458 53.0625 24.1417C53.2917 24.7375 53.6583 25.3333 54.1625 25.7917C54.6208 26.25 55.2167 26.6625 55.8125 26.8917C56.4083 27.1208 57.0958 27.3042 58.1042 27.35C59.1125 27.3958 59.4333 27.3958 62 27.3958C64.5667 27.3958 64.8875 27.3958 65.8958 27.35C66.9042 27.3042 67.5917 27.1667 68.1875 26.8917C69.4708 26.3875 70.4333 25.425 70.9375 24.1417C71.1667 23.5458 71.35 22.8583 71.3958 21.85C71.4417 20.8417 71.4417 20.5208 71.4417 17.9542C71.4417 15.3875 71.4417 15.0667 71.3958 14.0583C71.35 13.05 71.2125 12.3625 70.9375 11.7667C70.7083 11.125 70.3417 10.575 69.8375 10.1167C69.3792 9.65835 68.7833 9.24585 68.1875 9.01668C67.5917 8.78752 66.9042 8.60418 65.8958 8.55835C64.8417 8.55835 64.5208 8.55835 61.9542 8.55835Z" fill="#2B2B39"/>
<path d="M61.9529 13.1416C59.2945 13.1416 57.1404 15.2958 57.1404 17.9541C57.1404 20.6124 59.2945 22.7666 61.9529 22.7666C64.6112 22.7666 66.7654 20.6124 66.7654 17.9541C66.8112 15.2958 64.6571 13.1416 61.9529 13.1416ZM61.9529 21.1166C60.2112 21.1166 58.8362 19.6958 58.8362 17.9999C58.8362 16.2583 60.257 14.8833 61.9529 14.8833C63.6946 14.8833 65.0696 16.3041 65.0696 17.9999C65.1154 19.6958 63.6946 21.1166 61.9529 21.1166Z" fill="#2B2B39"/>
<path d="M66.9972 14.1042C67.63 14.1042 68.143 13.5912 68.143 12.9583C68.143 12.3255 67.63 11.8125 66.9972 11.8125C66.3643 11.8125 65.8513 12.3255 65.8513 12.9583C65.8513 13.5912 66.3643 14.1042 66.9972 14.1042Z" fill="#2B2B39"/>
<circle cx="18" cy="18" r="18" fill="white"/>
<path d="M25.7627 12.1305C26.623 11.6148 27.2836 10.7983 27.5947 9.82546C26.7897 10.3029 25.898 10.6496 24.9489 10.8365C24.1889 10.0268 23.1061 9.52075 21.9078 9.52075C19.6067 9.52075 17.7412 11.3862 17.7412 13.6871C17.7412 14.0136 17.7781 14.3317 17.8491 14.6366C14.3864 14.4628 11.3163 12.8041 9.2614 10.2834C8.90276 10.8988 8.6973 11.6145 8.6973 12.378C8.6973 13.8235 9.43292 15.0988 10.5509 15.8459C9.86784 15.8243 9.22545 15.6369 8.66365 15.3248C8.66335 15.3422 8.66335 15.3596 8.66335 15.3772C8.66335 17.3959 10.0995 19.0799 12.0055 19.4626C11.6559 19.5578 11.2878 19.6087 10.9078 19.6087C10.6393 19.6087 10.3783 19.5826 10.124 19.5339C10.6541 21.1893 12.1928 22.3938 14.016 22.4275C12.5901 23.5449 10.7935 24.211 8.84155 24.211C8.50528 24.211 8.17361 24.1913 7.84766 24.1528C9.69149 25.335 11.8816 26.0247 14.2345 26.0247C21.898 26.0247 26.0887 19.676 26.0887 14.1702C26.0887 13.9896 26.0847 13.8099 26.0767 13.6312C26.8907 13.0438 27.5971 12.31 28.1557 11.4745C27.4085 11.8058 26.6055 12.0298 25.7627 12.1305Z" fill="#2B2B39"/>
</svg>
