<svg width="522" height="188" xmlns="http://www.w3.org/2000/svg">
 <defs>
  <filter color-interpolation-filters="sRGB" filterUnits="userSpaceOnUse" height="106" width="106" y="48" x="46" id="filter1_d_5_1246">
   <feGaussianBlur stdDeviation="11"/>
  </filter>
  <linearGradient y2="1" x2="0.681818" y1="0" x1="0.204545" id="paint0_linear_5_1246">
   <stop stop-color="#5CA1FE"/>
   <stop stop-color="#217BF4" offset="1"/>
  </linearGradient>
 </defs>
 <g>
  <title>background</title>
  <rect fill="none" id="canvas_background" height="190" width="524" y="-1" x="-1"/>
 </g>
 <g>
  <title>Layer 1</title>
  <g id="svg_3" filter="url(#filter1_d_5_1246)">
   <rect id="svg_4" fill="url(#paint0_linear_5_1246)" rx="24" height="66" width="66" y="58" x="66"/>
  </g>
  <path id="svg_5" fill="white" d="m93.6349,91.3045c3.5176,0 6.3691,-2.8517 6.3691,-6.3693c0,-3.5176 -2.8515,-6.3693 -6.3691,-6.3693c-3.5176,0 -6.3693,2.8517 -6.3693,6.3693c0,3.5176 2.8517,6.3693 6.3693,6.3693z" clip-rule="evenodd" fill-rule="evenodd"/>
  <path id="svg_6" fill="white" d="m99.1641,90.5915c-1.432,1.3654 -3.3814,2.2055 -5.5291,2.2055c-2.1477,0 -4.0972,-0.8401 -5.5292,-2.2055c-0.2466,-0.0611 -0.4932,-0.1215 -0.7327,-0.1521c-0.2395,-0.0306 -0.4712,-0.0306 -0.6872,0.0028c-0.2154,0.0327 -0.4144,0.0995 -0.6468,0.1827c-0.2324,0.0825 -0.4975,0.182 -0.8293,0.381c-0.3312,0.199 -0.7299,0.4975 -1.1108,0.9958c-0.3817,0.4968 -0.7463,1.1941 -1.0782,2.0236c-0.3319,0.8287 -0.6303,1.7911 -0.7959,2.7201c-0.1656,0.9283 -0.199,1.8246 -0.2154,2.5041c-0.017,0.6802 -0.017,1.1455 0.0498,1.5925c0.0661,0.448 0.1983,0.879 0.4975,1.31c0.2984,0.432 0.7625,0.863 1.3098,1.194c0.5472,0.332 1.1776,0.565 2.0403,0.681c0.8621,0.115 1.9566,0.115 3.2834,0.115l3.8477,0l0.597,0l0.5969,0l3.8477,0c1.3268,0 2.4214,0 3.2834,-0.115c0.863,-0.116 1.493,-0.349 2.04,-0.681c0.548,-0.331 1.012,-0.762 1.31,-1.194c0.299,-0.431 0.432,-0.862 0.498,-1.31c0.066,-0.447 0.066,-0.9123 0.049,-1.5925c-0.016,-0.6795 -0.049,-1.5758 -0.215,-2.5041c-0.166,-0.929 -0.464,-1.8914 -0.796,-2.7201c-0.332,-0.8295 -0.696,-1.5268 -1.078,-2.0236c-0.381,-0.4983 -0.78,-0.7968 -1.111,-0.9958c-0.332,-0.199 -0.597,-0.2985 -0.829,-0.381c-0.233,-0.0832 -0.432,-0.15 -0.647,-0.1827c-0.216,-0.0334 -0.448,-0.0334 -0.6872,-0.0028c-0.2395,0.0306 -0.4861,0.091 -0.7327,0.1521z" clip-rule="evenodd" fill-rule="evenodd"/>
  <path id="svg_7" fill="white" d="m100.424,88.0739c1.132,1.0335 2.639,1.6646 4.293,1.6646c3.516,0 6.367,-2.8516 6.367,-6.3692c0,-3.5177 -2.851,-6.3693 -6.367,-6.3693c-2.259,0 -4.243,1.1763 -5.3732,2.9497c1.2752,1.1643 2.0752,2.8417 2.0752,4.7047c0,1.258 -0.366,2.4322 -0.995,3.4195z" clip-rule="evenodd" fill-rule="evenodd"/>
  <path id="svg_8" fill="white" d="m109.893,89.2609c-1.39,1.3241 -3.266,2.155 -5.338,2.2034l0.229,0.2743c0.381,0.4969 0.746,1.1941 1.078,2.0236c0.332,0.8288 0.631,1.7912 0.796,2.7202c0.166,0.9282 0.199,1.8245 0.216,2.504c0.017,0.6802 0.017,1.1446 -0.05,1.5926c-0.066,0.448 -0.198,0.879 -0.498,1.31c-0.222,0.322 -0.536,0.643 -0.908,0.923l3.39,0c1.328,0 2.423,0 3.285,-0.116c0.863,-0.116 1.494,-0.348 2.041,-0.68c0.548,-0.331 1.012,-0.763 1.31,-1.194c0.3,-0.432 0.432,-0.8625 0.498,-1.3103c0.067,-0.4478 0.067,-0.9126 0.05,-1.5929c-0.016,-0.6795 -0.05,-1.5758 -0.216,-2.504c-0.165,-0.929 -0.464,-1.8914 -0.796,-2.7202c-0.332,-0.8294 -0.697,-1.5267 -1.078,-2.0236c-0.381,-0.4982 -0.78,-0.7967 -1.112,-0.9958c-0.332,-0.199 -0.597,-0.2985 -0.829,-0.3809c-0.233,-0.0832 -0.432,-0.15 -0.647,-0.1827c-0.216,-0.0334 -0.448,-0.0334 -0.688,-0.0028c-0.239,0.0305 -0.486,0.0909 -0.733,0.1521z" clip-rule="evenodd" fill-rule="evenodd"/>
  <path id="svg_9" fill="#656464" d="m169.409,111.364l0,11.636l1.318,0l0,-8.841l0.114,0l3.636,8.841l1.273,0l3.636,-8.841l0.114,0l0,8.841l1.318,0l0,-11.636l-1.682,0l-3.954,9.659l-0.137,0l-3.954,-9.659l-1.682,0zm17.712,11.818c1.772,0 3.068,-0.887 3.477,-2.205l-1.295,-0.363c-0.341,0.909 -1.131,1.363 -2.182,1.363c-1.574,0 -2.659,-1.017 -2.722,-2.886l6.335,0l0,-0.568c0,-3.25 -1.931,-4.364 -3.75,-4.364c-2.363,0 -3.931,1.864 -3.931,4.546c0,2.681 1.545,4.477 4.068,4.477zm-2.722,-5.25c0.091,-1.358 1.051,-2.568 2.585,-2.568c1.455,0 2.387,1.091 2.387,2.568l-4.972,0zm8.375,5.068l1.341,0l0,-5.455c0,-1.278 0.932,-2.181 1.977,-2.181c1.017,0 1.728,0.664 1.728,1.659l0,5.977l1.363,0l0,-5.682c0,-1.125 0.705,-1.954 1.932,-1.954c0.955,0 1.773,0.505 1.773,1.795l0,5.841l1.341,0l0,-5.841c0,-2.051 -1.103,-3 -2.659,-3c-1.25,0 -2.165,0.574 -2.614,1.477l-0.091,0c-0.432,-0.931 -1.193,-1.477 -2.341,-1.477c-1.136,0 -1.977,0.546 -2.341,1.477l-0.113,0l0,-1.363l-1.296,0l0,8.727zm14.088,0l1.296,0l0,-1.341l0.159,0c0.295,0.477 0.863,1.523 2.545,1.523c2.182,0 3.705,-1.75 3.705,-4.523c0,-2.75 -1.523,-4.5 -3.728,-4.5c-1.704,0 -2.227,1.046 -2.522,1.5l-0.114,0l0,-4.295l-1.341,0l0,11.636zm1.318,-4.364c0,-1.954 0.864,-3.272 2.5,-3.272c1.705,0 2.546,1.431 2.546,3.272c0,1.864 -0.864,3.341 -2.546,3.341c-1.613,0 -2.5,-1.363 -2.5,-3.341zm12.097,4.546c1.773,0 3.068,-0.887 3.477,-2.205l-1.295,-0.363c-0.341,0.909 -1.131,1.363 -2.182,1.363c-1.574,0 -2.659,-1.017 -2.722,-2.886l6.336,0l0,-0.568c0,-3.25 -1.932,-4.364 -3.75,-4.364c-2.364,0 -3.932,1.864 -3.932,4.546c0,2.681 1.545,4.477 4.068,4.477zm-2.722,-5.25c0.091,-1.358 1.052,-2.568 2.586,-2.568c1.454,0 2.386,1.091 2.386,2.568l-4.972,0zm8.375,5.068l1.341,0l0,-5.523c0,-1.182 0.932,-2.045 2.205,-2.045c0.358,0 0.727,0.068 0.818,0.091l0,-1.364c-0.153,-0.011 -0.506,-0.023 -0.705,-0.023c-1.045,0 -1.954,0.591 -2.272,1.455l-0.091,0l0,-1.318l-1.296,0l0,8.727zm12.135,-6.773c-0.42,-1.238 -1.363,-2.068 -3.091,-2.068c-1.84,0 -3.204,1.046 -3.204,2.523c0,1.204 0.716,2.011 2.318,2.386l1.455,0.341c0.88,0.205 1.295,0.625 1.295,1.227c0,0.75 -0.795,1.364 -2.045,1.364c-1.097,0 -1.784,-0.472 -2.023,-1.409l-1.273,0.318c0.313,1.483 1.534,2.273 3.318,2.273c2.029,0 3.409,-1.108 3.409,-2.614c0,-1.216 -0.761,-1.983 -2.318,-2.363l-1.295,-0.319c-1.034,-0.255 -1.5,-0.602 -1.5,-1.272c0,-0.75 0.795,-1.296 1.863,-1.296c1.171,0 1.654,0.648 1.887,1.25l1.204,-0.341zm4.178,5.182l-1.455,0l-0.068,0.636c-0.165,1.54 -0.488,3.074 -0.636,3.796l1.023,0c0.272,-0.773 0.852,-2.523 1.045,-3.818l0.091,-0.614zm7.166,1.591l1.409,0l0,-5.205l5.046,0l0,-1.25l-5.046,0l0,-3.931l5.568,0l0,-1.25l-6.977,0l0,11.636zm9.115,0l1.341,0l0,-5.523c0,-1.182 0.932,-2.045 2.205,-2.045c0.358,0 0.727,0.068 0.818,0.091l0,-1.364c-0.154,-0.011 -0.506,-0.023 -0.705,-0.023c-1.045,0 -1.954,0.591 -2.272,1.455l-0.091,0l0,-1.318l-1.296,0l0,8.727zm5.953,0l1.341,0l0,-8.727l-1.341,0l0,8.727zm0.682,-10.182c0.523,0 0.955,-0.409 0.955,-0.909c0,-0.5 -0.432,-0.909 -0.955,-0.909c-0.523,0 -0.954,0.409 -0.954,0.909c0,0.5 0.431,0.909 0.954,0.909zm6.774,10.364c1.773,0 3.068,-0.887 3.478,-2.205l-1.296,-0.363c-0.341,0.909 -1.131,1.363 -2.182,1.363c-1.574,0 -2.659,-1.017 -2.721,-2.886l6.335,0l0,-0.568c0,-3.25 -1.932,-4.364 -3.75,-4.364c-2.364,0 -3.932,1.864 -3.932,4.546c0,2.681 1.546,4.477 4.068,4.477zm-2.721,-5.25c0.091,-1.358 1.051,-2.568 2.585,-2.568c1.454,0 2.386,1.091 2.386,2.568l-4.971,0zm9.716,-0.182c0,-1.523 0.943,-2.386 2.227,-2.386c1.244,0 2,0.812 2,2.181l0,5.455l1.341,0l0,-5.545c0,-2.228 -1.188,-3.296 -2.955,-3.296c-1.318,0 -2.136,0.591 -2.545,1.477l-0.114,0l0,-1.363l-1.295,0l0,8.727l1.341,0l0,-5.25zm11.313,5.432c1.682,0 2.25,-1.046 2.546,-1.523l0.159,0l0,1.341l1.295,0l0,-11.636l-1.34,0l0,4.295l-0.114,0c-0.296,-0.454 -0.818,-1.5 -2.523,-1.5c-2.204,0 -3.727,1.75 -3.727,4.5c0,2.773 1.523,4.523 3.704,4.523zm0.182,-1.205c-1.682,0 -2.545,-1.477 -2.545,-3.341c0,-1.841 0.841,-3.272 2.545,-3.272c1.637,0 2.5,1.318 2.5,3.272c0,1.978 -0.886,3.341 -2.5,3.341zm12.642,-5.75c-0.42,-1.238 -1.363,-2.068 -3.091,-2.068c-1.84,0 -3.204,1.046 -3.204,2.523c0,1.204 0.716,2.011 2.318,2.386l1.455,0.341c0.88,0.205 1.295,0.625 1.295,1.227c0,0.75 -0.795,1.364 -2.045,1.364c-1.097,0 -1.784,-0.472 -2.023,-1.409l-1.273,0.318c0.313,1.483 1.534,2.273 3.318,2.273c2.029,0 3.409,-1.108 3.409,-2.614c0,-1.216 -0.761,-1.983 -2.318,-2.363l-1.295,-0.319c-1.034,-0.255 -1.5,-0.602 -1.5,-1.272c0,-0.75 0.795,-1.296 1.863,-1.296c1.171,0 1.654,0.648 1.887,1.25l1.204,-0.341zm16.223,-1.227c-0.431,-2.386 -2.341,-3.795 -4.681,-3.795c-2.978,0 -5.137,2.295 -5.137,5.977c0,3.682 2.159,5.977 5.137,5.977c2.34,0 4.25,-1.409 4.681,-3.795l-1.409,0c-0.341,1.613 -1.727,2.477 -3.272,2.477c-2.114,0 -3.773,-1.636 -3.773,-4.659c0,-3.023 1.659,-4.659 3.773,-4.659c1.545,0 2.931,0.863 3.272,2.477l1.409,0zm5.641,8.182c2.364,0 3.955,-1.796 3.955,-4.5c0,-2.727 -1.591,-4.523 -3.955,-4.523c-2.364,0 -3.955,1.796 -3.955,4.523c0,2.704 1.591,4.5 3.955,4.5zm0,-1.205c-1.795,0 -2.614,-1.545 -2.614,-3.295c0,-1.75 0.819,-3.318 2.614,-3.318c1.795,0 2.614,1.568 2.614,3.318c0,1.75 -0.819,3.295 -2.614,3.295zm7.342,-4.227c0,-1.523 0.943,-2.386 2.228,-2.386c1.244,0 2,0.812 2,2.181l0,5.455l1.34,0l0,-5.545c0,-2.228 -1.187,-3.296 -2.954,-3.296c-1.318,0 -2.136,0.591 -2.546,1.477l-0.113,0l0,-1.363l-1.296,0l0,8.727l1.341,0l0,-5.25zm9.36,0c0,-1.523 0.943,-2.386 2.227,-2.386c1.244,0 2,0.812 2,2.181l0,5.455l1.341,0l0,-5.545c0,-2.228 -1.188,-3.296 -2.955,-3.296c-1.318,0 -2.136,0.591 -2.545,1.477l-0.114,0l0,-1.363l-1.295,0l0,8.727l1.341,0l0,-5.25zm11.677,5.432c1.773,0 3.068,-0.887 3.478,-2.205l-1.296,-0.363c-0.341,0.909 -1.131,1.363 -2.182,1.363c-1.574,0 -2.659,-1.017 -2.721,-2.886l6.335,0l0,-0.568c0,-3.25 -1.932,-4.364 -3.75,-4.364c-2.364,0 -3.932,1.864 -3.932,4.546c0,2.681 1.546,4.477 4.068,4.477zm-2.721,-5.25c0.091,-1.358 1.051,-2.568 2.585,-2.568c1.454,0 2.386,1.091 2.386,2.568l-4.971,0zm11.92,5.25c1.932,0 3.205,-1.182 3.432,-2.727l-1.341,0c-0.25,0.954 -1.045,1.522 -2.091,1.522c-1.591,0 -2.614,-1.318 -2.614,-3.341c0,-1.977 1.046,-3.272 2.614,-3.272c1.182,0 1.886,0.727 2.091,1.522l1.341,0c-0.227,-1.636 -1.614,-2.727 -3.455,-2.727c-2.363,0 -3.931,1.864 -3.931,4.523c0,2.613 1.5,4.5 3.954,4.5zm9.188,-8.909l-1.864,0l0,-2.091l-1.341,0l0,2.091l-1.318,0l0,1.136l1.318,0l0,5.455c0,1.522 1.227,2.25 2.364,2.25c0.5,0 0.818,-0.091 1,-0.159l-0.273,-1.205c-0.114,0.023 -0.295,0.068 -0.591,0.068c-0.591,0 -1.159,-0.182 -1.159,-1.318l0,-5.091l1.864,0l0,-1.136zm2.017,8.727l1.341,0l0,-8.727l-1.341,0l0,8.727zm0.681,-10.182c0.523,0 0.955,-0.409 0.955,-0.909c0,-0.5 -0.432,-0.909 -0.955,-0.909c-0.522,0 -0.954,0.409 -0.954,0.909c0,0.5 0.432,0.909 0.954,0.909zm6.661,10.364c2.364,0 3.955,-1.796 3.955,-4.5c0,-2.727 -1.591,-4.523 -3.955,-4.523c-2.364,0 -3.955,1.796 -3.955,4.523c0,2.704 1.591,4.5 3.955,4.5zm0,-1.205c-1.795,0 -2.614,-1.545 -2.614,-3.295c0,-1.75 0.819,-3.318 2.614,-3.318c1.795,0 2.614,1.568 2.614,3.318c0,1.75 -0.819,3.295 -2.614,3.295zm7.342,-4.227c0,-1.523 0.943,-2.386 2.228,-2.386c1.244,0 2,0.812 2,2.181l0,5.455l1.34,0l0,-5.545c0,-2.228 -1.187,-3.296 -2.954,-3.296c-1.318,0 -2.136,0.591 -2.546,1.477l-0.113,0l0,-1.363l-1.296,0l0,8.727l1.341,0l0,-5.25zm12.996,0.341c0,2.864 0.773,5.25 2.159,7.273l1.182,0c-1.091,-1.5 -1.955,-4.569 -1.955,-7.273c0,-2.705 0.864,-5.773 1.955,-7.273l-1.182,0c-1.386,2.023 -2.159,4.409 -2.159,7.273zm11.161,-6.727l-1.341,0l0,11.636l1.341,0l0,-11.636zm2.456,11.636l1.34,0l0,-8.727l-1.34,0l0,8.727zm0.681,-10.182c0.523,0 0.955,-0.409 0.955,-0.909c0,-0.5 -0.432,-0.909 -0.955,-0.909c-0.522,0 -0.954,0.409 -0.954,0.909c0,0.5 0.432,0.909 0.954,0.909zm3.115,10.182l1.341,0l0,-3.267l0.938,-0.869l3.267,4.136l1.704,0l-3.96,-5l3.688,-3.727l-1.659,0l-3.819,3.886l-0.159,0l0,-6.795l-1.341,0l0,11.636zm12.003,0.182c1.773,0 3.068,-0.887 3.478,-2.205l-1.296,-0.363c-0.341,0.909 -1.131,1.363 -2.182,1.363c-1.574,0 -2.659,-1.017 -2.721,-2.886l6.335,0l0,-0.568c0,-3.25 -1.932,-4.364 -3.75,-4.364c-2.364,0 -3.932,1.864 -3.932,4.546c0,2.681 1.546,4.477 4.068,4.477zm-2.721,-5.25c0.091,-1.358 1.051,-2.568 2.585,-2.568c1.454,0 2.386,1.091 2.386,2.568l-4.971,0zm-254.973,22.341l-1.955,0l0,-0.887c0,-0.863 0.364,-1.318 1.25,-1.318c0.386,0 0.614,0.091 0.75,0.137l0.386,-1.16c-0.204,-0.09 -0.613,-0.227 -1.272,-0.227c-1.25,0 -2.455,0.75 -2.455,2.25l0,1.205l-1.409,0l0,1.136l1.409,0l0,7.591l1.341,0l0,-7.591l1.955,0l0,-1.136zm5.065,8.909c2.364,0 3.955,-1.796 3.955,-4.5c0,-2.727 -1.591,-4.523 -3.955,-4.523c-2.364,0 -3.955,1.796 -3.955,4.523c0,2.704 1.591,4.5 3.955,4.5zm0,-1.205c-1.795,0 -2.614,-1.545 -2.614,-3.295c0,-1.75 0.819,-3.318 2.614,-3.318c1.795,0 2.614,1.568 2.614,3.318c0,1.75 -0.819,3.295 -2.614,3.295zm7.342,-10.613l-1.341,0l0,11.636l1.341,0l0,-11.636zm3.797,0l-1.341,0l0,11.636l1.341,0l0,-11.636zm6.002,11.818c2.363,0 3.954,-1.796 3.954,-4.5c0,-2.727 -1.591,-4.523 -3.954,-4.523c-2.364,0 -3.955,1.796 -3.955,4.523c0,2.704 1.591,4.5 3.955,4.5zm0,-1.205c-1.796,0 -2.614,-1.545 -2.614,-3.295c0,-1.75 0.818,-3.318 2.614,-3.318c1.795,0 2.613,1.568 2.613,3.318c0,1.75 -0.818,3.295 -2.613,3.295zm7.681,1.023l1.319,0l1.909,-6.705l0.136,0l1.909,6.705l1.318,0l2.659,-8.727l-1.409,0l-1.886,6.659l-0.091,0l-1.841,-6.659l-1.432,0l-1.863,6.682l-0.091,0l-1.887,-6.682l-1.409,0l2.659,8.727zm14.385,0.182c1.773,0 3.069,-0.887 3.478,-2.205l-1.296,-0.363c-0.341,0.909 -1.13,1.363 -2.182,1.363c-1.574,0 -2.659,-1.017 -2.721,-2.886l6.335,0l0,-0.568c0,-3.25 -1.932,-4.364 -3.75,-4.364c-2.364,0 -3.932,1.864 -3.932,4.546c0,2.681 1.546,4.477 4.068,4.477zm-2.721,-5.25c0.091,-1.358 1.051,-2.568 2.585,-2.568c1.455,0 2.386,1.091 2.386,2.568l-4.971,0zm8.375,5.068l1.341,0l0,-5.523c0,-1.182 0.931,-2.045 2.204,-2.045c0.358,0 0.727,0.068 0.818,0.091l0,-1.364c-0.153,-0.011 -0.505,-0.023 -0.704,-0.023c-1.046,0 -1.955,0.591 -2.273,1.455l-0.091,0l0,-1.318l-1.295,0l0,8.727zm12.135,-6.773c-0.421,-1.238 -1.364,-2.068 -3.091,-2.068c-1.841,0 -3.205,1.046 -3.205,2.523c0,1.204 0.716,2.011 2.318,2.386l1.455,0.341c0.881,0.205 1.295,0.625 1.295,1.227c0,0.75 -0.795,1.364 -2.045,1.364c-1.097,0 -1.784,-0.472 -2.023,-1.409l-1.272,0.318c0.312,1.483 1.534,2.273 3.318,2.273c2.028,0 3.409,-1.108 3.409,-2.614c0,-1.216 -0.762,-1.983 -2.318,-2.363l-1.296,-0.319c-1.034,-0.255 -1.5,-0.602 -1.5,-1.272c0,-0.75 0.796,-1.296 1.864,-1.296c1.17,0 1.653,0.648 1.886,1.25l1.205,-0.341zm9.541,1.864c0,-2.864 -0.773,-5.25 -2.159,-7.273l-1.182,0c1.091,1.5 1.955,4.568 1.955,7.273c0,2.704 -0.864,5.773 -1.955,7.273l1.182,0c1.386,-2.023 2.159,-4.409 2.159,-7.273zm4.933,3.318l-1.454,0l-0.069,0.636c-0.164,1.54 -0.488,3.074 -0.636,3.796l1.023,0c0.273,-0.773 0.852,-2.523 1.045,-3.818l0.091,-0.614zm7.166,1.591l1.409,0l0,-4.25l2.546,0c2.71,0 3.932,-1.648 3.932,-3.705c0,-2.056 -1.222,-3.681 -3.955,-3.681l-3.932,0l0,11.636zm1.409,-5.5l0,-4.886l2.478,0c1.892,0 2.613,1.034 2.613,2.431c0,1.398 -0.721,2.455 -2.591,2.455l-2.5,0zm8.566,5.5l1.341,0l0,-5.523c0,-1.182 0.931,-2.045 2.204,-2.045c0.358,0 0.727,0.068 0.818,0.091l0,-1.364c-0.153,-0.011 -0.505,-0.023 -0.704,-0.023c-1.046,0 -1.955,0.591 -2.273,1.455l-0.091,0l0,-1.318l-1.295,0l0,8.727zm5.953,0l1.341,0l0,-8.727l-1.341,0l0,8.727zm0.682,-10.182c0.522,0 0.954,-0.409 0.954,-0.909c0,-0.5 -0.432,-0.909 -0.954,-0.909c-0.523,0 -0.955,0.409 -0.955,0.909c0,0.5 0.432,0.909 0.955,0.909zm10.251,1.455l-1.454,0l-2.41,6.954l-0.09,0l-2.41,-6.954l-1.454,0l3.227,8.727l1.364,0l3.227,-8.727zm4.073,8.932c1.522,0 2.318,-0.819 2.59,-1.387l0.069,0l0,1.182l1.341,0l0,-5.75c0,-2.773 -2.114,-3.091 -3.228,-3.091c-1.318,0 -2.818,0.455 -3.5,2.046l1.273,0.454c0.295,-0.636 0.994,-1.318 2.273,-1.318c1.233,0 1.841,0.653 1.841,1.773l0,0.045c0,0.648 -0.659,0.591 -2.25,0.796c-1.62,0.21 -3.387,0.568 -3.387,2.568c0,1.704 1.318,2.682 2.978,2.682zm0.204,-1.205c-1.068,0 -1.841,-0.477 -1.841,-1.409c0,-1.023 0.932,-1.341 1.977,-1.477c0.569,-0.069 2.091,-0.228 2.319,-0.5l0,1.227c0,1.091 -0.864,2.159 -2.455,2.159zm10.038,-7.727l-1.863,0l0,-2.091l-1.341,0l0,2.091l-1.318,0l0,1.136l1.318,0l0,5.455c0,1.522 1.227,2.25 2.364,2.25c0.5,0 0.818,-0.091 1,-0.159l-0.273,-1.205c-0.114,0.023 -0.296,0.068 -0.591,0.068c-0.591,0 -1.159,-0.182 -1.159,-1.318l0,-5.091l1.863,0l0,-1.136zm5.583,8.909c1.773,0 3.068,-0.887 3.477,-2.205l-1.295,-0.363c-0.341,0.909 -1.131,1.363 -2.182,1.363c-1.574,0 -2.659,-1.017 -2.722,-2.886l6.336,0l0,-0.568c0,-3.25 -1.932,-4.364 -3.75,-4.364c-2.364,0 -3.932,1.864 -3.932,4.546c0,2.681 1.545,4.477 4.068,4.477zm-2.722,-5.25c0.091,-1.358 1.051,-2.568 2.586,-2.568c1.454,0 2.386,1.091 2.386,2.568l-4.972,0zm13.057,-6.568l0,11.636l1.318,0l0,-8.841l0.114,0l3.636,8.841l1.273,0l3.636,-8.841l0.114,0l0,8.841l1.318,0l0,-11.636l-1.682,0l-3.954,9.659l-0.137,0l-3.954,-9.659l-1.682,0zm17.712,11.818c1.772,0 3.068,-0.887 3.477,-2.205l-1.295,-0.363c-0.341,0.909 -1.131,1.363 -2.182,1.363c-1.574,0 -2.659,-1.017 -2.722,-2.886l6.335,0l0,-0.568c0,-3.25 -1.931,-4.364 -3.75,-4.364c-2.363,0 -3.931,1.864 -3.931,4.546c0,2.681 1.545,4.477 4.068,4.477zm-2.722,-5.25c0.091,-1.358 1.051,-2.568 2.585,-2.568c1.455,0 2.387,1.091 2.387,2.568l-4.972,0zm14.557,-1.705c-0.42,-1.238 -1.364,-2.068 -3.091,-2.068c-1.841,0 -3.204,1.046 -3.204,2.523c0,1.204 0.715,2.011 2.318,2.386l1.454,0.341c0.881,0.205 1.296,0.625 1.296,1.227c0,0.75 -0.796,1.364 -2.046,1.364c-1.096,0 -1.784,-0.472 -2.022,-1.409l-1.273,0.318c0.312,1.483 1.534,2.273 3.318,2.273c2.028,0 3.409,-1.108 3.409,-2.614c0,-1.216 -0.761,-1.983 -2.318,-2.363l-1.296,-0.319c-1.034,-0.255 -1.5,-0.602 -1.5,-1.272c0,-0.75 0.796,-1.296 1.864,-1.296c1.171,0 1.653,0.648 1.886,1.25l1.205,-0.341zm8.359,0c-0.42,-1.238 -1.363,-2.068 -3.091,-2.068c-1.84,0 -3.204,1.046 -3.204,2.523c0,1.204 0.716,2.011 2.318,2.386l1.455,0.341c0.88,0.205 1.295,0.625 1.295,1.227c0,0.75 -0.795,1.364 -2.045,1.364c-1.097,0 -1.784,-0.472 -2.023,-1.409l-1.273,0.318c0.313,1.483 1.534,2.273 3.318,2.273c2.029,0 3.409,-1.108 3.409,-2.614c0,-1.216 -0.761,-1.983 -2.318,-2.363l-1.295,-0.319c-1.034,-0.255 -1.5,-0.602 -1.5,-1.272c0,-0.75 0.795,-1.296 1.863,-1.296c1.171,0 1.654,0.648 1.887,1.25l1.204,-0.341zm4.746,6.978c1.523,0 2.318,-0.819 2.591,-1.387l0.068,0l0,1.182l1.341,0l0,-5.75c0,-2.773 -2.114,-3.091 -3.227,-3.091c-1.318,0 -2.818,0.455 -3.5,2.046l1.273,0.454c0.295,-0.636 0.994,-1.318 2.272,-1.318c1.233,0 1.841,0.653 1.841,1.773l0,0.045c0,0.648 -0.659,0.591 -2.25,0.796c-1.619,0.21 -3.386,0.568 -3.386,2.568c0,1.704 1.318,2.682 2.977,2.682zm0.205,-1.205c-1.069,0 -1.841,-0.477 -1.841,-1.409c0,-1.023 0.932,-1.341 1.977,-1.477c0.568,-0.069 2.091,-0.228 2.318,-0.5l0,1.227c0,1.091 -0.863,2.159 -2.454,2.159zm9.765,4.455c2.091,0 3.773,-0.955 3.773,-3.205l0,-8.977l-1.295,0l0,1.386l-0.137,0c-0.295,-0.454 -0.841,-1.5 -2.545,-1.5c-2.205,0 -3.728,1.75 -3.728,4.432c0,2.727 1.591,4.273 3.705,4.273c1.705,0 2.25,-1 2.545,-1.478l0.114,0l0,1.773c0,1.455 -1.023,2.114 -2.432,2.114c-1.585,0 -2.142,-0.835 -2.5,-1.318l-1.068,0.75c0.546,0.914 1.619,1.75 3.568,1.75zm-0.045,-4.796c-1.682,0 -2.546,-1.273 -2.546,-3.091c0,-1.773 0.841,-3.204 2.546,-3.204c1.636,0 2.5,1.318 2.5,3.204c0,1.932 -0.887,3.091 -2.5,3.091zm9.932,1.523c1.772,0 3.068,-0.887 3.477,-2.205l-1.296,-0.363c-0.34,0.909 -1.13,1.363 -2.181,1.363c-1.574,0 -2.659,-1.017 -2.722,-2.886l6.335,0l0,-0.568c0,-3.25 -1.932,-4.364 -3.75,-4.364c-2.363,0 -3.932,1.864 -3.932,4.546c0,2.681 1.546,4.477 4.069,4.477zm-2.722,-5.25c0.091,-1.358 1.051,-2.568 2.585,-2.568c1.455,0 2.387,1.091 2.387,2.568l-4.972,0z"/>
  <path id="svg_10" fill="#2F2C4A" d="m169.722,68.5455l0,17.4545l3.034,0l0,-12.017l0.162,0l4.823,11.9659l2.268,0l4.823,-11.9404l0.162,0l0,11.9915l3.034,0l0,-17.4545l-3.869,0l-5.182,12.6477l-0.204,0l-5.182,-12.6477l-3.869,0zm27.409,17.7102c3.051,0 5.147,-1.4915 5.693,-3.7671l-2.881,-0.3238c-0.417,1.1079 -1.44,1.6875 -2.77,1.6875c-1.994,0 -3.315,-1.3125 -3.341,-3.554l9.12,0l0,-0.946c0,-4.5938 -2.762,-6.6137 -5.983,-6.6137c-3.75,0 -6.196,2.7529 -6.196,6.7926c0,4.108 2.412,6.7245 6.358,6.7245zm-3.29,-8.0369c0.094,-1.6705 1.329,-3.0768 3.17,-3.0768c1.773,0 2.966,1.2955 2.983,3.0768l-6.153,0zm11.721,7.7812l3.085,0l0,-7.9602c0,-1.6108 1.074,-2.7017 2.403,-2.7017c1.304,0 2.199,0.8778 2.199,2.2244l0,8.4375l3.026,0l0,-8.1648c0,-1.4744 0.878,-2.4971 2.369,-2.4971c1.244,0 2.233,0.7329 2.233,2.3522l0,8.3097l3.094,0l0,-8.7869c0,-2.9233 -1.688,-4.4745 -4.091,-4.4745c-1.901,0 -3.349,0.9375 -3.929,2.3949l-0.136,0c-0.503,-1.4829 -1.773,-2.3949 -3.537,-2.3949c-1.756,0 -3.068,0.9034 -3.614,2.3949l-0.153,0l0,-2.2244l-2.949,0l0,13.0909zm21.675,0l3.034,0l0,-2.0625l0.179,0c0.486,0.9545 1.5,2.2926 3.75,2.2926c3.086,0 5.395,-2.446 5.395,-6.7585c0,-4.3636 -2.378,-6.733 -5.403,-6.733c-2.31,0 -3.273,1.3892 -3.742,2.3353l-0.128,0l0,-6.5284l-3.085,0l0,17.4545zm3.026,-6.5455c0,-2.5397 1.091,-4.1846 3.076,-4.1846c2.054,0 3.111,1.7471 3.111,4.1846c0,2.4546 -1.074,4.2444 -3.111,4.2444c-1.968,0 -3.076,-1.7046 -3.076,-4.2444zm17.75,6.8012c3.052,0 5.148,-1.4915 5.694,-3.7671l-2.881,-0.3238c-0.418,1.1079 -1.44,1.6875 -2.77,1.6875c-1.994,0 -3.315,-1.3125 -3.341,-3.554l9.12,0l0,-0.946c0,-4.5938 -2.762,-6.6137 -5.983,-6.6137c-3.75,0 -6.196,2.7529 -6.196,6.7926c0,4.108 2.411,6.7245 6.357,6.7245zm-3.289,-8.0369c0.093,-1.6705 1.329,-3.0768 3.17,-3.0768c1.773,0 2.966,1.2955 2.983,3.0768l-6.153,0zm11.721,7.7812l3.085,0l0,-7.696c0,-1.662 1.253,-2.8381 2.949,-2.8381c0.52,0 1.167,0.0938 1.432,0.179l0,-2.8381c-0.282,-0.0511 -0.768,-0.0852 -1.108,-0.0852c-1.5,0 -2.753,0.8523 -3.231,2.3693l-0.136,0l0,-2.1818l-2.991,0l0,13.0909zm19.862,-9.6307c-0.426,-2.2159 -2.199,-3.6307 -5.267,-3.6307c-3.154,0 -5.301,1.5512 -5.293,3.9716c-0.008,1.9091 1.168,3.1705 3.682,3.6904l2.233,0.4687c1.202,0.2642 1.764,0.75 1.764,1.4915c0,0.8949 -0.971,1.5682 -2.437,1.5682c-1.415,0 -2.336,-0.6137 -2.6,-1.7898l-3.008,0.2898c0.383,2.4034 2.403,3.8267 5.616,3.8267c3.273,0 5.583,-1.696 5.591,-4.1762c-0.008,-1.8664 -1.21,-3.0085 -3.682,-3.5454l-2.233,-0.4773c-1.329,-0.2983 -1.858,-0.7585 -1.849,-1.517c-0.009,-0.8864 0.971,-1.5 2.258,-1.5c1.424,0 2.174,0.7755 2.412,1.6363l2.813,-0.3068zm6.447,7.2443l-2.727,0l-0.06,0.9546c-0.145,2.3096 -0.75,4.6619 -0.997,5.6932l2.08,0c0.409,-1.0739 1.355,-3.5625 1.593,-5.7103l0.111,-0.9375zm9.007,2.3864l3.162,0l0,-7.4148l7.252,0l0,-2.6505l-7.252,0l0,-4.7387l8.019,0l0,-2.6505l-11.181,0l0,17.4545zm13.738,0l3.086,0l0,-7.696c0,-1.662 1.252,-2.8381 2.948,-2.8381c0.52,0 1.168,0.0938 1.432,0.179l0,-2.8381c-0.281,-0.0511 -0.767,-0.0852 -1.108,-0.0852c-1.5,0 -2.753,0.8523 -3.23,2.3693l-0.136,0l0,-2.1818l-2.992,0l0,13.0909zm9.516,0l3.085,0l0,-13.0909l-3.085,0l0,13.0909zm1.551,-14.9489c0.98,0 1.781,-0.75 1.781,-1.6704c0,-0.929 -0.801,-1.679 -1.781,-1.679c-0.989,0 -1.79,0.75 -1.79,1.679c0,0.9204 0.801,1.6704 1.79,1.6704zm10.502,15.2046c3.051,0 5.148,-1.4915 5.693,-3.7671l-2.88,-0.3238c-0.418,1.1079 -1.441,1.6875 -2.77,1.6875c-1.995,0 -3.316,-1.3125 -3.341,-3.554l9.119,0l0,-0.946c0,-4.5938 -2.761,-6.6137 -5.983,-6.6137c-3.75,0 -6.196,2.7529 -6.196,6.7926c0,4.108 2.412,6.7245 6.358,6.7245zm-3.29,-8.0369c0.094,-1.6705 1.33,-3.0768 3.171,-3.0768c1.773,0 2.966,1.2955 2.983,3.0768l-6.154,0zm14.807,0.1107c0,-1.892 1.142,-2.9829 2.769,-2.9829c1.594,0 2.549,1.0483 2.549,2.7954l0,7.858l3.085,0l0,-8.3352c0.008,-3.1364 -1.781,-4.9262 -4.483,-4.9262c-1.96,0 -3.307,0.9375 -3.903,2.3949l-0.154,0l0,-2.2244l-2.949,0l0,13.0909l3.086,0l0,-7.6705zm16.397,7.9006c2.25,0 3.264,-1.3381 3.75,-2.2926l0.188,0l0,2.0625l3.034,0l0,-17.4545l-3.094,0l0,6.5284l-0.128,0c-0.469,-0.9461 -1.432,-2.3353 -3.741,-2.3353c-3.026,0 -5.404,2.3694 -5.404,6.733c0,4.3125 2.31,6.7585 5.395,6.7585zm0.861,-2.5312c-2.037,0 -3.111,-1.7898 -3.111,-4.2444c0,-2.4375 1.057,-4.1846 3.111,-4.1846c1.986,0 3.077,1.6449 3.077,4.1846c0,2.5398 -1.108,4.2444 -3.077,4.2444zm19.745,-7.3296c-0.426,-2.2159 -2.199,-3.6307 -5.267,-3.6307c-3.153,0 -5.301,1.5512 -5.293,3.9716c-0.008,1.9091 1.168,3.1705 3.682,3.6904l2.233,0.4687c1.202,0.2642 1.764,0.75 1.764,1.4915c0,0.8949 -0.971,1.5682 -2.437,1.5682c-1.415,0 -2.335,-0.6137 -2.6,-1.7898l-3.008,0.2898c0.383,2.4034 2.403,3.8267 5.616,3.8267c3.273,0 5.583,-1.696 5.591,-4.1762c-0.008,-1.8664 -1.21,-3.0085 -3.681,-3.5454l-2.233,-0.4773c-1.33,-0.2983 -1.858,-0.7585 -1.85,-1.517c-0.008,-0.8864 0.972,-1.5 2.259,-1.5c1.423,0 2.173,0.7755 2.412,1.6363l2.812,-0.3068z"/>
 </g>
</svg>